<?xml version="1.0" encoding="UTF-8"?>
<svg version="1.1" viewBox="0 0 1600 488" width="1280" height="1280" xmlns="http://www.w3.org/2000/svg">
<path transform="translate(549 -.133)" d="m0 0h2.38 4.96c2.5 0.01 5 0 7.49-0 23-0.02 23-0.02 27.8 3.13-0.07 0.91-0.13 1.83-0.2 2.77-0.63 8.99-1.04 18-1.3 27-0.08 2.71-0.16 5.41-0.25 8.12-0.02 0.68-0.04 1.35-0.06 2.05-0.25 8.09-0.56 16.2-0.89 24.3-0.04 1.03-0.08 2.06-0.12 3.12-0.06 1.45-0.06 1.45-0.11 2.93-0.07 2.62 0 5.21 0.09 7.83-0.16 3.93-0.16 3.93-1.46 5.62-3.02 2.34-6.02 2.61-9.7 2.31-4.55-1.37-8.84-3.26-13.2-5.18-17.6-7.64-33.6-12.2-52.8-12.1-2.1 0.01-4.2 0-6.3-0.01-16.5-0.02-16.5-0.02-30.5 8.02-0.4 0.42-0.79 0.83-1.19 1.25h-2c-0.27 0.58-0.54 1.16-0.81 1.75-1.19 2.25-1.19 2.25-2.74 4-3.59 5.57-1.9 13.9-0.72 20.1 2.04 8.05 4.86 15.6 8.27 23.2 0.56 1.29 0.56 1.29 1.14 2.6 1.23 2.81 2.46 5.61 3.85 8.34 1.12 2.29 2.03 4.62 2.95 7 1.41 3.59 2.96 6.81 5.06 10.1 0.67 1.34 1.33 2.67 2 4l1 1v2c0.56-0.24 1.12-0.48 1.7-0.72 52.7-22.2 111-33.8 168-33.6 1.12 0 2.24 0 3.39 0.01 17.4 0.05 34.4 0.66 51.6 3.3 1.05 0.16 1.05 0.16 2.12 0.33 48.4 7.38 48.4 7.38 67.9 14.7 0.68 0.25 1.35 0.51 2.05 0.76 16.5 6.18 29.9 14.5 43 26.2 1.37 1.17 2.75 2.34 4.12 3.5 20.1 17.7 20.1 17.7 20.9 24.5h2c1.06 1.63 2.04 3.31 3 5 0.68 0.99 1.36 1.98 2.06 3 1.71 2.65 2.9 5.05 3.94 8h2l1 3c0.64 0.6 1.28 1.2 1.94 1.82 2.51 2.66 3.06 4.67 4.06 8.18 1.93 6.21 4.28 12.2 6.81 18.2 1.22 2.92 2.37 5.85 3.45 8.82 0.53 1.45 1.09 2.89 1.67 4.32 2.66 6.8 4.29 13.6 5.76 20.8 0.49 3.78 0.49 3.78 2.31 6.93 5.75 41.6 0.95 82.5-24.6 117-34.4 45.3-87.8 67-143 75-8.16 1.08-16.3 1.82-24.6 2.12-1.49 0.06-1.49 0.06-3 0.13-45.4 0.94-89.4-13.4-123-44.1-0.92-0.83-1.84-1.67-2.79-2.53-21.4-20.4-35.5-46.8-45.4-74.2-1.17-3.13-2.5-6.17-3.83-9.23-0.97-2.91-1.53-5.67-2.06-8.68-0.18-1-0.36-1.99-0.54-3.02-0.13-0.76-0.26-1.51-0.4-2.3h-2c-2.53-14.4-3.29-28.3-3.07-42.8 0.03-1.92 0.03-1.92 0.06-3.88 0.03-1.14 0.05-2.28 0.08-3.46 0.07-2.92 0.07-2.92-1.07-5.84l2-1c0.52-2.53 0.94-5.01 1.31-7.56 4.33-26.6 16.3-49 33.7-69.4 0.8-0.94 1.6-1.88 2.42-2.85 25.2-28.8 59-47.5 95.6-57.2v-2c-44.9 4.65-87.8 17.2-129 35.9-0.7 0.32-1.4 0.64-2.13 0.96-6.02 2.76-12 5.54-17.8 8.77-0.81 0.45-1.61 0.9-2.44 1.36-0.61 0.34-1.21 0.68-1.84 1.03-0.02 23-0.04 46.1-0.05 69.1-0.01 10.7-0.01 21.4-0.03 32.1-0.01 9.32-0.01 18.6-0.01 28-0.01 4.93-0.01 9.87-0.02 14.8 0 4.65-0.01 9.29 0 13.9 0 1.71-0.01 3.42-0.01 5.13v6.97 3.95c-0.09 2.94-0.09 2.94 1.12 5.01 0.15 3.03 0.25 6.05 0.3 9.08 0.02 0.94 0.04 1.88 0.06 2.85 0.06 3.13 0.12 6.27 0.17 9.4 0.05 2.18 0.09 4.36 0.13 6.54 0.1 4.59 0.18 9.17 0.27 13.8 0.11 5.84 0.22 11.7 0.34 17.5l0.33 16.8c0.03 1.58 0.03 1.58 0.06 3.19 0.06 3.04 0.12 6.07 0.17 9.1 0.02 0.87 0.04 1.74 0.05 2.64 0.14 7.71 0.12 15.4 0.12 23.1h-105c-0.92-4.6-0.95-7.71-0.6-12.3 0.76-11.1 0.93-22.2 1.13-33.3 0.05-2.26 0.09-4.51 0.13-6.77 0.1-4.7 0.18-9.4 0.27-14.1 0.11-5.97 0.22-11.9 0.34-17.9 0.09-4.65 0.18-9.3 0.26-14 0.05-2.2 0.09-4.4 0.13-6.59 0.23-11.9 0.39-23.9 0.34-35.8-0.02-7.13 0.19-14.2 0.5-21.4 0.44-11.7 0.61-23.3 0.62-35 0.01-0.76 0.01-1.52 0.01-2.3 0.03-8.9-0.2-17.7-1.13-26.6h2v-3c-12.4 9.17-24 18.8-35.2 29.4-2.92 2.76-5.89 5.46-8.91 8.13-4.22 3.79-8.35 7.67-12.4 11.6-0.62 0.58-1.24 1.17-1.88 1.77-0.58 0.56-1.16 1.13-1.75 1.71-0.52 0.5-1.04 1-1.57 1.51-2.99 4.4-2.4 10.2-2.41 15.4 0 0.76-0.01 1.52-0.01 2.3-0.01 2.56-0.01 5.13-0.01 7.7v2.72c0.01 19.5 0.55 39 1.13 58.5 0.02 0.74 0.04 1.49 0.06 2.25 0.67 22.9 0.67 22.9 1.7 45.8 0.45 9.07 0.3 18 0.3 27.2h-104c-1.14-2.28-1.12-3.54-1.11-6.08v-2.55c0-0.91 0.01-1.81 0.01-2.75 0-1.39 0-1.39 0.01-2.82 0-2.97 0.01-5.95 0.03-8.92 0-2.02 0.01-4.03 0.01-6.05 0.01-4.94 0.03-9.88 0.05-14.8h2l-1-5c-0.56 0.57-1.11 1.14-1.69 1.73-4.93 4.99-9.98 9.71-15.3 14.3-1.04 0.92-2.08 1.84-3.12 2.75-25.5 22.4-51.3 35.3-85.9 36.2-1.21 0.04-2.42 0.08-3.67 0.12-32.9 0.57-67.1-5.13-93.3-26.1-0.62-0.45-1.24-0.91-1.88-1.38-13.1-10.1-20.7-26.5-26.3-41.6-0.76-2.06-0.76-2.06-1.89-4.07-1.35-2.91-0.9-5.77-0.9-8.95-0.32-0.79-0.64-1.59-0.97-2.41-1.07-2.68-1.34-4.66-1.44-7.52-0.04-0.95-0.08-1.9-0.12-2.87-0.03-1.02-0.06-2.03-0.09-3.08-0.04-1.06-0.07-2.13-0.11-3.23-0.36-10.9-0.4-21.9-0.38-32.8v-6.51c0-5.81 0-11.6 0.01-17.4 0-6.1 0-12.2 0.01-18.3 0-11.5 0.01-23 0.02-34.6 0.01-13.1 0.01-26.2 0.02-39.4 0.01-27 0.03-53.9 0.05-80.9 3.68-1.22 7.27-1.46 11.1-1.75 1.27-0.1 1.27-0.1 2.56-0.2 2.84-0.21 5.68-0.41 8.53-0.61 0.98-0.07 1.95-0.14 2.96-0.21 29.2-1.97 58.6-1.51 87.8-1.23l-1 3c0 2.09 0 4.17 0.02 6.26-0.04 5.43-0.5 10.8-0.9 16.2-0.07 1.17-0.15 2.35-0.23 3.55-0.37 4.98-0.75 9.79-1.96 14.6-1.21 4.93-1.12 9.7-0.99 14.8l0.09 5.31c0.01 0.77 0.03 1.54 0.05 2.33-0.08 1.92-0.08 1.92-1.08 3.92-0.12 2.12-0.18 4.24-0.21 6.36-0.01 0.66-0.02 1.32-0.03 2-0.03 2.2-0.05 4.4-0.08 6.61-0.02 1.56-0.04 3.12-0.06 4.69-0.06 4.22-0.11 8.43-0.15 12.6-0.03 2.62-0.06 5.25-0.1 7.87-0.28 23.3-0.47 46.6-0.5 70v3.62c-0.02 11 0.01 22.1 0.51 33.1 0.03 0.77 0.06 1.55 0.09 2.34 0.2 3.74 0.56 6.59 2.53 9.79 0.72 1.96 1.42 3.92 2.12 5.88 6.18 16.1 15.2 30 30.9 38.1 17.4 7.52 38.2 7.32 56 1 13.4-6.08 20.7-14.5 26-28 7.63-21.3 10.2-44.4 10.2-66.9 0-1.46 0.01-2.92 0.01-4.39 0.01-3.94 0.01-7.88 0.01-11.8v-7.45c0-27.6-0.56-55.1-1.4-82.6-0.12-3.77-0.23-7.54-0.35-11.3-0.02-0.73-0.04-1.45-0.06-2.19-0.55-18.5-0.61-36.9-0.38-55.4 5.25-2.62 12.6-2.1 18.5-2.56 0.86-0.07 1.72-0.14 2.6-0.21 29.2-2.23 58.6-1.49 87.9-1.23 0 3.02-0.15 5.79-0.47 8.77-0.68 7.31-0.87 14.6-1.07 22-0.04 1.52-0.08 3.03-0.13 4.55-0.09 3.17-0.17 6.34-0.26 9.51-0.11 3.99-0.22 7.97-0.34 12-0.53 18.1-0.89 36.2-0.73 54.2 4.47 0 6.8-2.91 10.1-5.68 11.2-9.29 22.8-18 35.2-25.6 2.17-1.34 4.31-2.72 6.45-4.12 0.95-0.62 0.95-0.62 1.93-1.26 1.26-0.82 2.51-1.65 3.77-2.47 4.37-2.85 4.37-2.85 6.59-2.85 0-1.08 0.01-2.17 0.01-3.29 0.11-19.9 0.23-39.1 5.4-58.5 0.79-3 1.4-6.03 2.03-9.06 2.02-8.54 4.77-16.9 7.56-25.2 0.23-0.69 0.46-1.39 0.7-2.1 3.9-11.6 9.39-22.2 15.3-32.9 0.66-1.21 0.66-1.21 1.34-2.45 2.39-4.32 4.89-8.45 7.66-12.6 0.69-1.32 1.37-2.64 2-4h2c0.08-0.54 0.17-1.08 0.25-1.64 1.01-3.17 2.72-5.42 4.69-8.11 1.06-1.47 1.06-1.47 2.15-2.98 0.63-0.75 1.26-1.5 1.91-2.27h2c0.27-0.57 0.54-1.15 0.81-1.75 1.22-2.3 2.49-4.27 4.19-6.25h2v-2c1.35-1.33 1.35-1.33 3.19-2.81 2.24-1.85 4.31-3.69 6.37-5.75 2.7-2.7 5.43-5.09 8.44-7.44h2v-2c20.4-11.8 41.3-21.2 65.4-21.1zm35.6 2.13 4 1zm75 142v1h8v-1h-8zm-27.5 49.1c-8.22 9.43-11.6 20.9-13.2 33-0.12 0.93-0.25 1.85-0.38 2.81-2.87 22.3-0.69 47 6.76 68.2 1.64 4.74 3.08 9.54 4.51 14.4 0.57 2.34 0.57 2.34 1.8 3.41 0.66 2.52 1.28 5.03 1.87 7.57 2.64 11.3 2.64 11.3 8.54 21.1 2.18 3.16 3.54 6.6 5.03 10.1 10.6 24.4 24 47.3 40.6 68.2 0.75 0.95 1.49 1.89 2.26 2.87 9.95 11.8 25.1 22.4 40.7 24.1 20 1.43 39.4-4.2 55-17 8.5-9.48 12.2-23.6 12.5-36 0.03-0.73 0.05-1.46 0.08-2.22 0.04-1.53 0.09-3.06 0.13-4.59 0.06-2.34 0.14-4.68 0.23-7.01 0.04-1.5 0.08-3 0.13-4.49 0.02-0.7 0.05-1.39 0.07-2.1 0.09-4.05-0.46-6.88-2.12-10.6-0.45-1.8-0.85-3.61-1.22-5.43-0.31-1.55-0.31-1.55-0.63-3.14-0.32-1.63-0.32-1.63-0.65-3.3-0.22-1.12-0.44-2.23-0.67-3.38-1.43-7.3-2.6-14.6-3.37-22-0.44-2.7-1.19-4.42-2.46-6.8-0.33-2.33-0.67-4.66-1-7-0.65-1.34-1.32-2.67-2-4-0.17-1.01-0.33-2.02-0.5-3.06-0.33-3.12-0.33-3.12-2.5-5.94-0.49-2.06-0.49-2.06-0.88-4.43-1.11-6.07-3.07-11.8-5.12-17.6h-2c-0.09-1.15-0.18-2.31-0.27-3.51-0.58-4.66-2.27-8.25-4.48-12.4-0.73-1.4-1.45-2.79-2.18-4.19-0.35-0.67-0.71-1.34-1.07-2.03-1.75-3.35-3.36-6.77-4.99-10.2-0.9-1.9-0.9-1.9-3.01-2.73-0.2-1.28-0.2-1.28-0.41-2.59-0.7-4.04-2.24-7.35-4.09-11-0.36-0.7-0.71-1.4-1.08-2.12-10.3-19.7-26.5-38.7-46.7-48.8-0.97-0.49-0.97-0.49-1.97-0.98-23.6-11.3-53.4-3.57-71.3 14.6zm142 82.9 1 2zm-252 56 1 4zm269 1 1 2zm1 3 1 4zm1 5 1 2zm1 4 1 3zm1 6 1 2zm1 6 1 2zm1 5 1 3zm-690 13 1 3zm1 3 1 3zm1 3 1 2zm-107 10 1 2zm2 12 1 2z" fill="#FA6303"/>
<path transform="translate(113,145)" d="m0 0-1 3c0 2.09 0 4.17 0.02 6.26-0.04 5.42-0.5 10.8-0.9 16.2-0.07 1.17-0.15 2.34-0.23 3.55-0.37 4.98-0.75 9.79-1.96 14.6-1.21 4.93-1.12 9.7-0.99 14.8l0.09 5.31c0.02 0.77 0.03 1.54 0.05 2.33-0.08 1.92-0.08 1.92-1.08 3.92-0.12 2.12-0.18 4.24-0.21 6.36-0.01 0.66-0.02 1.31-0.03 1.99-0.03 2.21-0.05 4.41-0.08 6.61-0.02 1.57-0.04 3.13-0.06 4.69-0.06 4.22-0.11 8.44-0.15 12.7-0.03 2.62-0.06 5.24-0.1 7.87-0.28 23.3-0.47 46.6-0.49 69.9-0.01 1.8-0.01 1.8-0.01 3.62-0.02 11 0.01 22.1 0.51 33.1 0.03 0.77 0.06 1.54 0.09 2.34 0.21 3.73 0.56 6.59 2.53 9.79 0.72 1.95 1.43 3.91 2.12 5.88 6.18 16.1 15.2 30 30.9 38.1 17.4 7.51 38.2 7.32 56 1 13.4-6.08 20.7-14.5 26-28 7.63-21.3 10.2-44.4 10.2-66.9 0-1.46 0.01-2.92 0.01-4.39 0.01-3.94 0.01-7.88 0.01-11.8v-7.44c0-27.6-0.56-55.1-1.4-82.6-0.12-3.76-0.23-7.53-0.34-11.3-0.03-0.72-0.05-1.44-0.07-2.18-0.55-18.5-0.61-36.9-0.38-55.4 5.25-2.62 12.7-2.1 18.5-2.56 1.29-0.11 1.29-0.11 2.6-0.21 29.2-2.23 58.6-1.5 87.9-1.23 0 3.02-0.15 5.79-0.47 8.78-0.68 7.24-0.87 14.5-1.07 21.8-0.04 1.51-0.08 3.01-0.13 4.51-0.09 3.15-0.17 6.31-0.26 9.46-0.09 3.16-0.18 6.32-0.27 9.49-0.49 16.4-0.89 32.8-0.92 49.2-0.01 1.27-0.01 2.54-0.02 3.85 0.01 1.16 0.01 2.32 0.01 3.51v3.07c-0.03 2.41-0.03 2.41 1.13 4.4 0.06 1.59 0.06 3.19 0.02 4.78-0.02 1-0.04 2.01-0.06 3.04-0.03 1.1-0.05 2.2-0.08 3.33-0.05 2.37-0.1 4.73-0.15 7.1-0.03 1.25-0.05 2.5-0.08 3.79-0.15 6.59-0.27 13.2-0.38 19.8-0.03 1.32-0.05 2.64-0.08 4-0.82 46 0.04 92.1 2.51 138 0.45 9.07 0.3 18 0.3 27.2h-104c-1.14-2.29-1.12-3.54-1.11-6.08v-2.55c0-0.91 0.01-1.82 0.01-2.75 0-1.4 0-1.4 0.01-2.82 0-2.97 0.01-5.95 0.03-8.92 0-2.02 0.01-4.03 0.01-6.05 0.01-4.94 0.03-9.89 0.05-14.8h2l-1-5c-0.56 0.57-1.11 1.14-1.69 1.72-4.93 4.99-9.98 9.72-15.3 14.3-1.04 0.92-2.08 1.83-3.12 2.75-25.5 22.4-51.3 35.3-85.9 36.2-1.21 0.04-2.42 0.08-3.67 0.12-32.9 0.56-67.1-5.13-93.3-26.1-0.62-0.46-1.24-0.91-1.88-1.38-13.1-10.2-20.7-26.5-26.3-41.6-0.76-2.06-0.76-2.06-1.89-4.07-1.35-2.92-0.9-5.77-0.9-8.95-0.32-0.8-0.64-1.59-0.97-2.41-1.07-2.68-1.33-4.66-1.44-7.52-0.04-0.95-0.08-1.9-0.12-2.88-0.03-1.01-0.06-2.02-0.09-3.07-0.04-1.07-0.07-2.13-0.11-3.23-0.36-10.9-0.4-21.9-0.38-32.8v-6.51c0-5.81 0-11.6 0.01-17.4 0-6.1 0.01-12.2 0.01-18.3 0-11.5 0.01-23 0.02-34.6 0.01-13.1 0.01-26.3 0.02-39.4 0.01-27 0.03-53.9 0.05-80.9 3.68-1.23 7.27-1.46 11.1-1.75 0.84-0.07 1.68-0.13 2.55-0.2 2.84-0.21 5.69-0.42 8.53-0.61 0.98-0.07 1.95-0.14 2.96-0.21 29.2-1.98 58.6-1.51 87.8-1.23zm-6 230 1 3zm1 3 1 3zm1 3 1 2zm-107 10 1 2zm2 12 1 2z" fill="#87B716"/>
<path transform="translate(1185,150)" d="m0 0c0.97 0.33 0.97 0.33 1.95 0.67 13.8 4.73 23.5 12.6 33.7 22.6 0.71 0.7 1.41 1.39 2.14 2.11 0.99 0.99 0.99 0.99 1.99 2.01 0.89 0.88 0.89 0.88 1.79 1.79 1.39 1.78 1.39 1.78 1.9 3.94 0.16 0.61 0.32 1.21 0.49 1.84 0.99 0.33 1.98 0.66 3 1 1.39 1.78 1.39 1.78 2.69 3.94 0.43 0.71 0.87 1.42 1.32 2.15 0.99 1.91 0.99 1.91 0.99 3.91 1.84 2.05 1.84 2.05 4 3 0.36 1.66 0.68 3.33 1 5 1.18 2.89 2.46 5.73 3.75 8.57 2.89 7.91 3.69 16.2 4.36 24.6 0.09 1.04 0.17 2.08 0.26 3.16 0.82 11 0.9 21.9 0.86 33v6.63c0 5.91-0.01 11.8-0.03 17.8-0.01 6.21-0.01 12.4-0.01 18.6-0.01 11.7-0.03 23.5-0.05 35.2-0.01 9.38-0.02 18.8-0.03 28.1v2.02c-0.01 5.83-0.01 11.7-0.01 17.5-0.02 25-0.06 49.9-0.1 74.9h-111c-1.49-2.98-0.89-5.45-0.65-8.77 0.05-0.7 0.1-1.4 0.15-2.13 0.1-1.55 0.21-3.09 0.32-4.64 0.31-4.27 0.58-8.55 0.86-12.8 0.13-1.86 0.25-3.71 0.37-5.57 3.58-54 6.25-108 3.45-162-0.05-1.09-0.05-1.09-0.11-2.19-0.18-3.62-0.18-3.62-1.39-7-0.04-1.35-0.04-2.71 0-4.06v-3.94l-1-1c-0.69-3.1-1.13-6.24-1.62-9.38-0.15-0.87-0.3-1.75-0.45-2.65-0.2-1.27-0.2-1.27-0.41-2.56-0.12-0.77-0.25-1.54-0.37-2.34-0.15-2.07-0.15-2.07 0.85-5.07h-2c-0.12-0.93-0.25-1.86-0.38-2.81-0.44-3.33-0.44-3.33-2.62-6.19-0.08-0.89-0.16-1.77-0.25-2.69-1.74-7.69-8.44-13.9-14.8-18.3-17.6-10.1-42-10-61.2-5.19-11 3.38-21.3 8.82-27.4 18.8-6.83 12.9-9.44 26.7-12 41-0.35 1.95-0.71 3.89-1.08 5.84-2.29 12.6-2.5 25.3-2.51 38 0 1.37-0.01 2.75-0.01 4.13-0.01 3.7-0.01 7.39-0.01 11.1v6.98c0 25.7 0.48 51.4 1.4 77.1 0.8 22.8 0.79 45.4 0.79 68.2h-108c-1.94-4.84-2.1-7.57-1.64-12.5 0.48-6.48 0.77-12.9 0.83-19.4 0.01-0.87 0.02-1.74 0.03-2.63 0.01-1.81 0.03-3.63 0.04-5.44 0.02-2.93 0.05-5.85 0.08-8.78 0.06-6.24 0.11-12.5 0.16-18.7 0.07-8.18 0.14-16.4 0.22-24.5 0.01-1.01 0.02-2.01 0.03-3.05 0.11-12.1 0.34-24.1 0.77-36.2 0.72-20.5 0.63-40.9 0.61-61.4-0.01-5.69 0-11.4 0-17.1 0.01-4.46 0.01-8.92 0-13.4 0-2.09 0-4.19 0.01-6.29 0.01-12.6-0.3-25.1-1.14-37.6-0.84-13.1-1.13-26-1.06-39.1 0-1.85 0.01-3.7 0.01-5.54 0.01-4.45 0.03-8.89 0.05-13.3 3.38-1.69 7.21-1.5 10.9-1.75 0.91-0.07 1.82-0.13 2.75-0.2 1.93-0.14 3.87-0.27 5.8-0.41 2.89-0.2 5.77-0.41 8.66-0.62 18.4-1.32 35.9-1.4 54.2 1.06 2.69 0.36 5.39 0.71 8.09 1.05 1.72 0.23 3.45 0.45 5.17 0.68 0.8 0.1 1.6 0.21 2.43 0.31 3.11 0.42 5.97 0.89 8.95 1.88-0.16 1.28-0.33 2.55-0.5 3.87-0.8 8.06-0.61 16.2-0.56 24.2 0 1.65 0.01 3.29 0.01 4.93 0.01 3.98 0.03 7.97 0.05 12h2c1.34-1.39 2.62-2.84 3.88-4.31 26-29.4 61-46.7 100-50.5 21.8-1.06 43.5 1.44 64.1 8.81zm-47 84 1 2zm6 32 1 3z" fill="#FA6303"/>
<path transform="translate(1547,169)" d="m0 0c0.88 0.76 1.76 1.52 2.66 2.3 7.89 6.94 7.89 6.94 10.3 10.7v2l4 2v3c0.99 0.33 1.98 0.66 3 1 1.24 2.61 2.09 5.26 3 8 0.99 0.33 1.98 0.66 3 1 1 3 1 3 1 5 0.63 1.35 1.3 2.68 2 4h2c0.1 0.93 0.21 1.86 0.31 2.81 0.74 3.42 1.3 3.9 3.69 6.19 0.39 1.65 0.71 3.33 1 5 0.94 3.02 1.96 6.01 3 9h2c0.1 1.07 0.21 2.14 0.31 3.25 0.85 9.55 0.85 9.55 4.69 17.8 4.95 20.4 5 40 5 61h-220c-0.08 9.78-0.08 9.78 1 19.1 0.76 4.88 1.11 9.46 1.02 14.4-0.02 2.87 0.07 5.7 0.23 8.56 0.05 0.92 0.09 1.84 0.14 2.79 0.85 4.39 2.7 8.12 4.61 12.2 0.69 1.54 1.39 3.07 2.08 4.61 10.9 23.8 26.9 45.4 51.9 55.7 4.37 1.5 8.9 2.38 13.4 3.32 1.48 0.33 1.48 0.33 3 0.66 20.4 4.36 41.3 3.9 61.6-0.28 1.07-0.2 1.07-0.2 2.15-0.41 19.8-3.74 39-12.3 54.9-24.8 1.96-0.84 1.96-0.84 4.56-0.09 2.35 1.22 4.35 2.58 6.4 4.25-0.67 4.28-2.12 7.91-3.84 11.9-0.28 0.64-0.56 1.29-0.84 1.96-0.6 1.36-1.19 2.72-1.78 4.08-0.91 2.07-1.81 4.15-2.7 6.22-6.93 15.9-6.93 15.9-14.8 20.1-1.04 0.57-1.04 0.57-2.11 1.15-13 6.97-26.5 13.4-41 16.6-0.9 0.2-1.81 0.4-2.74 0.61-3.17 0.69-6.34 1.36-9.51 2.01-0.99 0.21-1.97 0.42-2.99 0.63-15.5 3.07-30.8 4.13-46.6 4.06h-2.55c-44-0.16-91.8-5.82-127-35.3-1.12-0.91-2.24-1.82-3.37-2.73-22.2-18.2-39.9-41.4-48.8-68.9-1.27-4.05-1.27-4.05-3.85-7.36v-8l-2-2c-0.64-2.62-1.14-5.15-1.56-7.81-0.2-1.23-0.2-1.23-0.39-2.48-1.79-12.5-1.86-25.1-2.05-37.7-0.02-0.94-0.03-1.88-0.05-2.84-0.07-7.3 0.42-14.5 0.99-21.8 0.08-1.17 0.17-2.33 0.26-3.53 0.48-6.3 1.06-12.6 1.8-18.8h2c0.1-1.11 0.2-2.21 0.3-3.35 0.66-5.23 2.25-10 3.95-15 0.32-0.93 0.64-1.87 0.97-2.83 2.15-6.22 4.4-12.1 7.78-17.8 0.34-0.57 0.68-1.15 1.03-1.74 7.58-12.8 16.1-26 27-36.3h2v-2c2.99-2.78 6.22-5.25 9.43-7.77 1.46-1.14 2.9-2.31 4.34-3.47 22.7-17.9 50-26.1 78.2-30.8 0.76-0.13 1.52-0.26 2.3-0.39 44-7.13 105-3.04 140 27.4zm-145 17.8c-4.98 6.34-8.58 12.7-11.6 20.2-0.35 0.79-0.69 1.57-1.05 2.38-9.03 21-12.1 45.9-12 68.6l1 2h118c0.16-20 0.16-20-1-40v-3c-0.32-2.34-0.65-4.67-1-7h-2c-0.11-0.76-0.22-1.52-0.33-2.31-0.88-5.72-1.98-11-3.96-16.5-0.77-2.41-1.22-4.77-1.65-7.27-0.88-4.82-2.66-8.7-5.06-12.9-0.49-0.99-0.49-0.99-1-2h-2c-0.06-0.54-0.12-1.07-0.19-1.62-2.61-7.64-9.98-11.9-16.8-15.4-20.7-7.86-44.9-1.81-59.4 14.8zm84.4 17.2 1 2zm1 3 1 2zm5 18 1 2zm-224 120 1 3zm1 6 1 3zm3 14 1 3zm110 3 1 2zm1 3 1 2zm1 2 1 2z" fill="#FA6303"/>
<path transform="translate(1382,364)" d="m0 0c1.79 2.69 3.02 5.28 4.26 8.24 8.71 20.8 21.2 39.7 40.7 51.8 0.97 0.6 1.94 1.2 2.94 1.81 25.3 14.1 59.4 13.9 87.1 8.19 0.71-0.13 1.42-0.27 2.15-0.41 19.8-3.74 39-12.3 54.9-24.8 1.96-0.84 1.96-0.84 4.56-0.09 2.35 1.22 4.35 2.58 6.4 4.25l-1 5c-1.69-1.11-3.39-2.21-5.08-3.32-1.9-0.9-1.9-0.9-3.76-0.06-2.24 1.43-4.47 2.87-6.68 4.35-10.5 6.99-21.8 14.2-34.5 16v2c-4.39 1.19-8.78 2.36-13.2 3.51-1.43 0.38-2.85 0.79-4.27 1.2-7.36 1.98-15 1.46-22.6 1.29v2c-2.96 0.03-5.92 0.05-8.88 0.06-0.84 0.01-1.68 0.02-2.55 0.03-0.8 0-1.61 0-2.44 0.01-1.11 0.01-1.11 0.01-2.25 0.01-1.88-0.11-1.88-0.11-3.88-1.11-2.92-0.37-5.83-0.7-8.75-1-5.12-0.53-10.2-1.09-15.2-2v-2c-1.36-0.09-1.36-0.09-2.75-0.19-11.3-1.7-20.3-8.24-29.2-14.8-1.35-0.94-2.71-1.88-4.06-2.81-2.58-1.92-4.84-3.76-6.94-6.19v-2h-2c-3.22-3.48-5.63-6.91-7.9-11.1-1.26-2.18-2.66-4.22-4.1-6.29-5.04-7.48-8.34-15.5-9.5-24.5-0.16-1.03-0.33-2.06-0.5-3.12l-2-1 1-3z"/>
<path transform="translate(641,339)" d="m0 0c1.74 2.6 2.95 4.96 4.21 7.8 0.65 1.45 0.65 1.45 1.32 2.93 0.46 1.04 0.93 2.08 1.41 3.15 11.2 24.7 24.1 47.9 41.1 69.1 0.76 0.96 1.52 1.91 2.3 2.9 9.68 11.5 24.5 21.4 39.7 23.1 19.4 1.39 37.7-3.65 53-16h2c0.27-0.53 0.53-1.06 0.8-1.61 3.6-7.19 3.6-7.19 7.2-14.4h1c-0.39 6.96-2.63 11.9-6 18h-2c-0.27 0.64-0.54 1.28-0.81 1.94-1.19 2.06-1.19 2.06-4.19 3.06l-1 3c-1.33 0.33-2.67 0.67-4 1l-1 3c-1.65 0.72-3.31 1.38-5 2l-2 2v-2h-2v2c-0.85 0.28-1.71 0.55-2.59 0.84-1.1 0.36-2.21 0.72-3.35 1.1-1.1 0.36-2.2 0.72-3.34 1.09-2.6 0.71-2.6 0.71-3.72 1.97-17.4 2.9-33.5 0.26-48-10-4.99-3.66-9.89-7.36-14-12v-2c-0.99-0.33-1.98-0.66-3-1v-2h-2c-1.41-1.73-1.41-1.73-3.06-4.19-0.62-0.91-1.24-1.82-1.88-2.76-0.68-1.01-1.36-2.01-2.06-3.05-1.13-1.62-2.27-3.23-3.4-4.85-11.6-16.5-11.6-16.5-11.6-21.2h-2c-1.46-2.65-2-3.89-2-7h-2c-0.99-1.89-1.96-3.79-2.94-5.69-0.54-1.05-1.09-2.11-1.65-3.2-1.27-2.79-1.92-5.1-2.41-8.11l-1-3h-2c-0.24-0.79-0.48-1.57-0.73-2.38-1.92-6.02-4.01-11.2-7.27-16.6-1.14-3.15-1.1-3.7 0-7z" fill="#010000"/>
<path transform="translate(107,370)" d="m0 0c1.7 3.2 2.91 6.46 4.12 9.88 6.18 16.1 15.2 30 30.9 38.1 17.4 7.51 38.2 7.32 56 1 13.7-6.23 20.1-14.5 26-28 0.7-1.99 1.37-3.99 2-6 2.02 5.56-0.88 10.8-3 16-5.5 11.5-14.2 20.2-26 25-4.3 1.25-8.6 2.19-13 3-0.77 0.18-1.54 0.37-2.33 0.55-15.4 2.58-32.7 0.52-45.7-8.55-10.1-7.28-18.1-15.4-23-27v-4h-2c-0.5-1.94-1-3.87-1.5-5.81-0.28-1.08-0.56-2.16-0.84-3.27-0.66-2.92-0.66-2.92-0.66-5.92l-2-1 1-4z" fill="#020100"/>
<path transform="translate(1377,278)" d="m0 0 1 2h118v4c-15.2 0.05-30.4 0.08-45.7 0.1-7.07 0.01-14.1 0.03-21.2 0.05-6.82 0.02-13.6 0.03-20.4 0.04-2.61 0-5.22 0.01-7.82 0.02-3.64 0.02-7.28 0.02-10.9 0.02-1.63 0.01-1.63 0.01-3.3 0.02-0.98 0-1.97-0.01-2.99-0.01-0.86 0-1.72 0-2.61 0.01-2.07-0.25-2.07-0.25-4.07-2.25v-4z" fill="#000001"/>
<path transform="translate(1579 409)" d="m0 0c2.35 1.22 4.35 2.58 6.4 4.25l-1 5c-1.69-1.11-3.39-2.21-5.08-3.32-1.91-0.9-1.91-0.9-3.77-0.05-2.23 1.42-4.46 2.86-6.67 4.34-10.5 6.99-21.8 14.2-34.5 16v2c-23.4 6.36-23.4 6.36-29 6l-1-2c-2.32-0.73-4.65-1.4-7-2l1-2c2.84-0.55 5.63-0.99 8.5-1.37 24.7-3.67 47.6-11.2 67.5-26.8 1.97-0.84 1.97-0.84 4.57-0.09z"/>
<path transform="translate(393,220)" d="m0 0c-1.34 4.02-3.92 5.1-7.38 7.19-7.39 4.6-14.5 9.49-21.3 15-2.32 1.83-2.32 1.83-4.38 2.83-2.13 0.97-2.13 0.97-4.06 3.12l-1.88 1.88h-2v2c-1.65 1.02-3.32 2.02-5 3-1.05 0.88-2.1 1.78-3.12 2.69-2.88 2.31-2.88 2.31-5.88 2.31 1.08-3.23 1.52-3.66 4.14-5.57 0.65-0.48 1.3-0.96 1.98-1.45 0.7-0.51 1.4-1.02 2.13-1.54 1.47-1.08 2.95-2.17 4.42-3.25 0.74-0.54 1.47-1.08 2.23-1.64 2.91-2.15 5.75-4.38 8.6-6.61 4.86-3.75 9.82-7.33 14.9-10.8 0.98-0.67 0.98-0.67 1.98-1.37 11.4-7.75 11.4-7.75 14.6-7.75z" fill="#010101"/>
<path transform="translate(651,150)" d="m0 0c-2.63 2.63-4.85 2.89-8.44 3.81-6.56 1.81-12.5 4.22-18.6 7.19-5.27 2.46-10.4 4.56-16 6v2c-1.29 0.67-2.58 1.34-3.88 2-0.71 0.37-1.43 0.74-2.17 1.12-1.95 0.88-1.95 0.88-3.95 0.88v2c-1.96 1.07-3.97 2.07-6 3l-2-1c15.3-11.6 32.8-20.4 51.2-25.9 0.74-0.22 1.48-0.45 2.24-0.68 5.26-1.5 5.26-1.5 7.51-0.38z" fill="#000001"/>
<path transform="translate(641,339)" d="m0 0c1.76 2.64 3 5.06 4.29 7.95 0.44 0.98 0.88 1.97 1.34 2.99 0.71 1.57 0.71 1.57 1.43 3.18 3.81 8.45 7.79 16.7 12.4 24.8 0.92 1.66 1.74 3.37 2.55 5.09l-1 3c-3-1-3-1-4.57-3.55-0.51-1.05-1.03-2.11-1.55-3.2-0.52-1.05-1.04-2.09-1.58-3.17-1.16-2.76-1.81-5.14-2.3-8.08l-1-3h-2c-0.24-0.79-0.48-1.57-0.73-2.38-1.92-6.02-4.01-11.2-7.27-16.6-1.14-3.15-1.1-3.7 0-7z" fill="#060402"/>
<path transform="translate(1369,153)" d="m0 0c-2.12 0.84-4.25 1.67-6.38 2.5-1.18 0.46-2.36 0.93-3.58 1.41-3.04 1.09-3.04 1.09-5.04 1.09v2c-0.76 0.29-1.52 0.58-2.31 0.88-8.1 3.22-14.9 7.02-21.6 12.5-2.06 1.62-2.06 1.62-4.06 1.62v2c-1.98 1.36-3.98 2.69-6 4-1.79 1.62-1.79 1.62-3 3l-2-1c10.4-10.1 38.5-35.2 54-30z" fill="#010102"/>
<path transform="translate(794,153)" d="m0 0c5.87 0.47 10.1 2.95 15.1 5.88 0.84 0.48 1.67 0.97 2.53 1.47 9.14 5.47 17 12.1 24.4 19.6-3.43-0.59-5.12-1.75-7.62-4.12-6.96-6.3-14.6-11.2-22.8-15.5-2.57-1.37-5.05-2.85-7.54-4.36-1.33-0.68-2.66-1.35-4-2v-1z" fill="#020101"/>
<path transform="translate(532,153)" d="m0 0h-2v2c-7.42 1.49-7.42 1.49-15 3v2c-4.29 0.99-8.58 1.98-13 3v2l-10 2v-2c4.12-1.61 8.25-3.21 12.4-4.81 1.15-0.45 2.31-0.91 3.5-1.37 19.2-7.44 19.2-7.44 24.1-5.82z" fill="#060301"/>
<path transform="translate(688,132)" d="m0 0c9.23-0.26 18 0.47 27.1 1.88 1.19 0.17 2.37 0.34 3.59 0.52 7.13 1.06 14.2 2.26 21.3 3.6v1c-2.63-0.12-5.25-0.24-7.88-0.38-0.72-0.03-1.45-0.06-2.2-0.09-4.86-0.25-9.43-0.99-14.2-2-5.24-1.01-10.6-1.55-15.8-2.15-1.15-0.14-2.3-0.27-3.48-0.41-2.8-0.33-5.6-0.65-8.4-0.97v-1z" fill="#030202"/>
<path transform="translate(1077,154)" d="m0 0c-3.42 1.79-6.83 3.58-10.2 5.38-0.97 0.5-1.94 1.01-2.93 1.53-0.94 0.49-1.87 0.98-2.84 1.49-0.85 0.45-1.71 0.9-2.6 1.36-1.52 0.8-3.07 1.56-4.63 2.28-1.93 0.84-1.93 0.84-2.75 2.96-1.25 1.11-2.55 2.17-3.88 3.19-0.69 0.55-1.39 1.1-2.11 1.67-0.66 0.37-1.33 0.75-2.01 1.14-0.99-0.33-1.98-0.66-3-1 9.12-7.48 18.6-13.5 29-19 0.73-0.43 1.46-0.87 2.21-1.31 2.29-0.88 3.48-0.35 5.79 0.31z" fill="#010001"/>
<path transform="translate(755,452)" d="m0 0-1 3c-10.4 1.26-19.8 1.66-30-1v-1c4.09-0.14 8.19-0.29 12.3-0.43 1.39-0.05 2.79-0.09 4.18-0.14l6-0.21c1.81-0.06 1.81-0.06 3.65-0.13 1.63-0.05 3.26-0.09 4.89-0.09z" fill="#080504"/>
<path transform="translate(393,220)" d="m0 0c-1.35 4.06-4.02 5.19-7.5 7.31-1.27 0.8-2.55 1.6-3.82 2.39-0.94 0.59-0.94 0.59-1.9 1.18-2.41 1.52-4.79 3.09-7.16 4.68-0.7 0.48-1.41 0.95-2.14 1.44-0.49 0.33-0.98 0.66-1.48 1 0.61-3.53 0.95-3.96 3.91-6.44 1.23-0.86 2.47-1.72 3.71-2.56 0.61-0.43 1.21-0.85 1.84-1.29 11.1-7.71 11.1-7.71 14.5-7.71z" fill="#020101"/>
<path transform="translate(1517,153)" d="m0 0c5.02 0.54 8.94 2.22 13.3 4.62 0.66 0.36 1.32 0.72 1.99 1.08 6.58 3.64 12.4 7.9 17.7 13.3-3.62-0.42-5.44-2.21-8.11-4.54-3.94-3.04-8.48-5.18-12.9-7.46-1.16-0.61-1.16-0.61-2.35-1.23-3.19-1.65-6.15-2.99-9.65-3.77v-2z" fill="#000001"/>
<path transform="translate(208 416)" d="m0 0c0.66 0.43 1.32 0.87 2 1.31-3.61 4.24-8.15 6.47-13 9-0.5-2.69-0.5-2.69 0-6 3.29-3.24 6.38-5.37 11-4.31z" fill="#040401"/>
<path transform="translate(1190,153)" d="m0 0c10.9 1.27 19.5 9.47 27 17l2 3-6-3v-2c-0.99-0.33-1.98-0.66-3-1v-2c-0.69-0.25-1.37-0.5-2.08-0.75-3.4-1.46-6.48-3.29-9.61-5.25-0.58-0.36-1.16-0.71-1.76-1.08-2.42-1.5-4.53-2.9-6.55-4.92z" fill="#020101"/>
<path transform="translate(1495 442)" d="m0 0c1.51 0.01 1.51 0.01 3.06 0.01 2.46 0.02 4.92 0.03 7.38 0.05v1h-11v2c-2.96 0.06-5.92 0.1-8.88 0.13-1.26 0.02-1.26 0.02-2.55 0.05-0.8 0-1.61 0.01-2.44 0.02-0.74 0.01-1.49 0.02-2.25 0.03-1.88-0.23-1.88-0.23-3.88-2.23 6.89-0.9 13.6-1.12 20.6-1.06z" fill="#0D0704"/>
<path transform="translate(653,366)" d="m0 0c2.65 3.32 4.7 6.84 6.75 10.6 0.63 1.14 1.27 2.27 1.92 3.44 1.33 3 1.33 3 0.33 6-4-1.33-4.32-2.91-6.19-6.62-2.32-4.8-3.53-8.11-2.81-13.4z" fill="#040201"/>
<path transform="translate(1492 439)" d="m0 0c1.28-0.01 2.57-0.03 3.89-0.04 4.01 0.24 7.07 0.99 10.9 2.23v1h-25v-2c3.57-1.19 6.49-1.17 10.2-1.19z" fill="#000204"/>
<path transform="translate(1382,364)" d="m0 0c2.11 3.16 3.62 6.41 5.12 9.88 0.28 0.61 0.56 1.22 0.84 1.85 1.55 3.56 2.38 6.38 2.04 10.3h-2c-2.77-5.45-4.45-10.1-4.73-16.2-0.09-0.58-0.18-1.15-0.27-1.75l-2-1 1-3z" fill="#010101"/>
<path transform="translate(368,235)" d="m0 0 1 3c-1.08 0.96-2.16 1.92-3.25 2.88-0.6 0.53-1.21 1.06-1.83 1.61-1.92 1.51-1.92 1.51-4.09 2.58-2.01 0.79-2.01 0.79-2.83 2.93h-3c1.52-4.21 4.62-6.25 8.12-8.75 0.85-0.62 0.85-0.62 1.71-1.25l4.17-3z"/>
<path transform="translate(677,132)" d="m0 0c6.11-0.1 12-0.07 18 1v2h-18v-3z" fill="#EA5904"/>
<path transform="translate(1116,143)" d="m0 0c1.77 1.52 1.77 1.52 3 3-1.48 0.03-2.96 0.05-4.44 0.06-1.23 0.02-1.23 0.02-2.49 0.04-2.07-0.1-2.07-0.1-3.07-1.1-1.86 0.09-3.71 0.25-5.56 0.44-1.01 0.1-2.03 0.2-3.07 0.31-0.78 0.08-1.56 0.16-2.37 0.25 5.59-2.88 11.7-3.99 18-3z" fill="#883403"/>
<path transform="translate(1055,163)" d="m0 0c0.99 0.33 1.98 0.66 3 1-3.75 3-3.75 3-6 3l-1 2c-1.25 1.11-2.55 2.17-3.88 3.19-0.69 0.55-1.39 1.1-2.11 1.67-0.66 0.37-1.33 0.75-2.01 1.14-0.99-0.33-1.98-0.66-3-1 2.12-1.65 4.25-3.29 6.38-4.94 0.6-0.47 1.2-0.93 1.82-1.42 4.57-3.53 4.57-3.53 6.8-4.64z" fill="#040202"/>
<path transform="translate(1154,143)" d="m0 0c7.88 0.52 15.3 2.09 23 4v1c-19.4-1.4-19.4-1.4-23-5z" fill="#070403"/>
<path transform="translate(651,150)" d="m0 0c-2.71 2.71-5.26 3.1-8.94 4.12-1.24 0.36-2.49 0.71-3.77 1.08-3.29 0.8-3.29 0.8-6.29 0.8v-2c2.79-0.86 5.58-1.72 8.38-2.56 0.79-0.25 1.58-0.5 2.4-0.75 0.76-0.23 1.52-0.46 2.31-0.69 0.7-0.22 1.4-0.43 2.12-0.65 1.79-0.35 1.79-0.35 3.79 0.65z" fill="#0C0806"/>
<path transform="translate(794,153)" d="m0 0c4.6 0.54 7.87 1.77 11.9 4.06 0.96 0.55 1.93 1.1 2.92 1.66 1.09 0.63 1.09 0.63 2.2 1.28l-1 3c-0.57-0.4-1.14-0.8-1.72-1.21-4.64-3.18-9.03-5.78-14.3-7.79v-1z" fill="#000001"/>
<path transform="translate(662 145)" d="m0 0c1.2 0.15 1.2 0.15 2.42 0.31 0.61 0.08 1.21 0.17 1.83 0.25-2.52 2.53-4.14 2.56-7.63 3.13-1 0.17-2 0.33-3.03 0.51-0.77 0.12-1.55 0.24-2.34 0.36v-4c3.12-0.96 5.52-0.99 8.75-0.56z" fill="#2C190B"/>
<path transform="translate(630,144)" d="m0 0-1 2c0.99 0.33 1.98 0.66 3 1-3 2-3 2-6.19 1.62-0.93-0.2-1.85-0.41-2.81-0.62 0.31-1.94 0.31-1.94 1-4 3-1 3-1 6 0z" fill="#E75804"/>
<path transform="translate(340,160)" d="m0 0h1v13h-1v-13z" fill="#251509"/>
<path transform="translate(500,362)" d="m0 0h1v9h-1v-9z" fill="#2C190B"/>
<path transform="translate(899,318)" d="m0 0h1v9h-1v-9z" fill="#2C190B"/>
<path transform="translate(108,193)" d="m0 0h1v8h-1v-8z" fill="#2C190B"/>
<path transform="translate(637,326)" d="m0 0c0.99 1.49 0.99 1.49 2 3l-1 3-1-6z" fill="#060403"/>
<path transform="translate(627,295)" d="m0 0c0.99 1.49 0.99 1.49 2 3l-1 3-1-6z"/>
<path transform="translate(107,215)" d="m0 0h1v7h-1v-7z" fill="#2C190B"/>
<path transform="translate(646,147)" d="m0 0h7v1h-7v-1z" fill="#7C3408"/>
<path transform="translate(589,66)" d="m0 0h1v7h-1v-7z" fill="#2C190B"/>
<path transform="translate(879,237)" d="m0 0 2 2-1 3-1-5z" fill="#070402"/>
<path transform="translate(884,249)" d="m0 0 2 4-2-1v-3z" fill="#000002"/>
<path transform="translate(895,284)" d="m0 0 1 4z" fill="#000103"/>
<path transform="translate(623,282)" d="m0 0 1 4z" fill="#000102"/>
<path transform="translate(889,262)" d="m0 0 1 4z" fill="#000001"/>
</svg>
