<svg width="42" height="40" viewBox="0 0 42 40" fill="none" xmlns="http://www.w3.org/2000/svg">
<path d="M25.1489 31.9205H23.2301C22.9574 31.9205 22.7372 31.7003 22.7372 31.4276C22.7372 31.1549 22.9574 30.9348 23.2301 30.9348H25.1489C26.8871 30.9348 28.5661 30.4189 30.0052 29.4431L31.4082 28.4935C31.4246 28.4837 31.4279 28.4672 31.4279 28.4607C31.2702 28.2274 31.0566 28.0269 30.7905 27.8725C30.2845 27.5768 29.6208 27.5768 29.0162 27.8725C26.2431 29.2295 23.7854 28.1222 23.6835 28.0762L23.6277 28.0467C22.8555 27.5604 22.0703 27.153 21.2948 26.8375C18.2621 25.5955 14.8154 26.0161 12.0752 27.9678C11.8517 28.1255 11.5462 28.0729 11.3885 27.8528C11.2308 27.6327 11.2833 27.3238 11.5035 27.1661C14.523 25.0173 18.3213 24.554 21.6694 25.9274C22.4842 26.2625 23.309 26.6897 24.1205 27.1957C24.3571 27.2942 26.3745 28.0697 28.5825 26.9919C29.4828 26.5517 30.4948 26.5648 31.2833 27.0248C31.6809 27.2548 32.0029 27.5604 32.2493 27.9251C32.5516 28.3752 32.4202 28.9995 31.9602 29.3116L30.5572 30.2612C28.9571 31.3455 27.0842 31.9205 25.1489 31.9205Z" fill="#130F3F"/>
<path d="M11.7892 34.7955C11.5592 34.7955 11.3522 34.6312 11.3062 34.3979C11.2537 34.1318 11.4278 33.8722 11.6972 33.8196C11.8779 33.7835 16.1822 32.9719 23.7393 33.4023C25.6351 33.5107 27.5408 33.0902 29.2494 32.1899L40.7526 26.1212C40.3682 25.658 39.5829 25.1651 38.0518 25.5692C37.8513 25.6218 37.6575 25.7007 37.4965 25.7697L31.6939 28.2438C31.4442 28.3489 31.1551 28.2339 31.0467 27.9842C30.9382 27.7345 31.0565 27.4454 31.3062 27.3369L37.1088 24.8628C37.2928 24.784 37.5392 24.6854 37.7988 24.6164C39.9739 24.0414 41.0779 24.9581 41.5445 25.5561C41.7186 25.7795 41.7843 26.0654 41.7252 26.3414C41.666 26.6141 41.4919 26.8474 41.2422 26.9788L29.7094 33.0639C27.8431 34.0496 25.7567 34.5096 23.6834 34.388C16.2611 33.9642 11.9272 34.7823 11.8845 34.7889C11.8517 34.7922 11.8188 34.7955 11.7892 34.7955Z" fill="#130F3F"/>
<path d="M12.167 37.5719H7.40936C7.13665 37.5719 6.9165 37.3517 6.9165 37.079C6.9165 36.8063 7.13665 36.5862 7.40936 36.5862H11.1813V26.5648H7.40936C7.13665 26.5648 6.9165 26.3447 6.9165 26.0719C6.9165 25.7992 7.13665 25.5791 7.40936 25.5791H12.167V37.5719Z" fill="#130F3F"/>
<path d="M7.40595 22.8553H0V40H7.40595V22.8553Z" fill="#FCB017"/>
<path d="M39.484 17.1283H28.1024C26.8571 17.1283 25.8418 16.1163 25.8418 14.8678V2.26056C25.8418 1.01528 26.8538 0 28.1024 0H39.484C40.7293 0 41.7446 1.01199 41.7446 2.26056V14.8678C41.7446 16.113 40.7293 17.1283 39.484 17.1283ZM28.1024 0.988976C27.3992 0.988976 26.8275 1.56069 26.8275 2.26383V14.871C26.8275 15.5742 27.3992 16.1459 28.1024 16.1459H39.484C40.1871 16.1459 40.7588 15.5742 40.7588 14.871V2.26383C40.7588 1.56069 40.1871 0.988976 39.484 0.988976H28.1024Z" fill="#130F3F"/>
<path d="M32.1375 13.3596H29.6667C29.394 13.3596 29.1738 13.1395 29.1738 12.8668C29.1738 12.594 29.394 12.3739 29.6667 12.3739H32.1375C32.4102 12.3739 32.6304 12.594 32.6304 12.8668C32.6304 13.1395 32.4102 13.3596 32.1375 13.3596Z" fill="#130F3F"/>
<path d="M37.9237 13.3596H35.4528C35.1801 13.3596 34.96 13.1395 34.96 12.8668C34.96 12.594 35.1801 12.3739 35.4528 12.3739H37.9237C38.1964 12.3739 38.4165 12.594 38.4165 12.8668C38.4165 13.1395 38.1931 13.3596 37.9237 13.3596Z" fill="#130F3F"/>
<path d="M35.4788 20.9923H31.3979V18.3079C31.3979 18.0352 31.6181 17.815 31.8908 17.815C32.1635 17.815 32.3837 18.0352 32.3837 18.3079V20.0066H34.4931V18.3079C34.4931 18.0352 34.7132 17.815 34.9859 17.815C35.2586 17.815 35.4788 18.0352 35.4788 18.3079V20.9923Z" fill="#130F3F"/>
<path d="M33.4387 24.071C33.1659 24.071 32.9458 23.8508 32.9458 23.5781V20.4994C32.9458 20.2267 33.1659 20.0066 33.4387 20.0066C33.7114 20.0066 33.9315 20.2267 33.9315 20.4994V23.5781C33.9315 23.8508 33.7114 24.071 33.4387 24.071Z" fill="#130F3F"/>
<path d="M29.6665 3.44669V10.7672C32.0749 5.12238 37.9234 5.23081 37.9234 5.23081V3.44997H29.6665V3.44669Z" fill="#130F3F"/>
<path d="M14.434 16.7077C11.7529 16.7077 9.56787 14.526 9.56787 11.8416C9.56787 9.33793 13.5764 3.78182 14.0364 3.15426L14.434 2.60884L14.8315 3.15426C15.2883 3.77854 19.3001 9.33793 19.3001 11.8416C19.3001 14.526 17.1151 16.7077 14.434 16.7077ZM14.434 4.29438C13.0704 6.2428 10.5536 10.1758 10.5536 11.8416C10.5536 13.9806 12.295 15.722 14.434 15.722C16.573 15.722 18.3144 13.9806 18.3144 11.8416C18.3144 10.1758 15.7976 6.2428 14.434 4.29438Z" fill="#130F3F"/>
<path d="M15.5119 8.5165C15.6237 8.89764 15.6894 9.24592 15.6894 9.53835C15.6894 11.4638 14.4441 13.0935 12.7158 13.6783C13.166 14.0989 13.7672 14.3585 14.431 14.3585C15.8175 14.3585 16.9478 13.2282 16.9478 11.8416C16.9511 11.2798 16.3531 9.98849 15.5119 8.5165Z" fill="#FCB017"/>
</svg>
