<svg width="38" height="40" viewBox="0 0 38 40" fill="none" xmlns="http://www.w3.org/2000/svg">
<path d="M28.2762 21.3296C25.013 21.3296 21.9412 20.0568 19.6261 17.745C19.4345 17.5534 19.4345 17.2449 19.6261 17.0566C19.8177 16.865 20.1262 16.865 20.3145 17.0566C22.4446 19.1834 25.2727 20.3555 28.2762 20.3555C31.2829 20.3555 34.1111 19.1801 36.2444 17.0501C36.436 16.8585 36.7443 16.8585 36.9326 17.0501C37.1242 17.2417 37.1242 17.5501 36.9326 17.7385C34.6175 20.0536 31.5427 21.3296 28.2762 21.3296Z" fill="#130F3F"/>
<path d="M28.2763 18.1638C23.2694 18.1638 19.1943 14.0888 19.1943 9.0819C19.1943 4.075 23.2694 0 28.2763 0C33.2832 0 37.3581 4.075 37.3581 9.0819C37.3581 14.0888 33.2832 18.1638 28.2763 18.1638ZM28.2763 0.974105C23.8052 0.974105 20.1684 4.61076 20.1684 9.0819C20.1684 13.553 23.8052 17.1897 28.2763 17.1897C32.7475 17.1897 36.384 13.553 36.384 9.0819C36.384 4.61076 32.7475 0.974105 28.2763 0.974105Z" fill="#130F3F"/>
<path d="M24.8765 6.16934C24.7531 6.16934 24.6265 6.12061 24.5323 6.02645L23.3732 4.86728C23.1816 4.67571 23.1816 4.36724 23.3732 4.17891C23.5647 3.98734 23.8733 3.98734 24.0616 4.17891L25.2207 5.33808C25.4123 5.52966 25.4123 5.83812 25.2207 6.02645C25.1265 6.12061 24.9999 6.16934 24.8765 6.16934Z" fill="#130F3F"/>
<path d="M23.4705 9.56895H21.8308C21.5613 9.56895 21.3438 9.3514 21.3438 9.0819C21.3438 8.8124 21.5613 8.59485 21.8308 8.59485H23.4705C23.74 8.59485 23.9575 8.8124 23.9575 9.0819C23.9575 9.3514 23.74 9.56895 23.4705 9.56895Z" fill="#130F3F"/>
<path d="M23.7174 14.1278C23.594 14.1278 23.4673 14.0791 23.3732 13.9849C23.1816 13.7933 23.1816 13.4849 23.3732 13.2965L24.5323 12.1374C24.7239 11.9458 25.0324 11.9458 25.2207 12.1374C25.4123 12.3289 25.4123 12.6374 25.2207 12.8257L24.0616 13.9849C23.9674 14.0791 23.8408 14.1278 23.7174 14.1278Z" fill="#130F3F"/>
<path d="M28.2761 16.0143C28.0066 16.0143 27.7891 15.7967 27.7891 15.5272V13.8875C27.7891 13.618 28.0066 13.4005 28.2761 13.4005C28.5456 13.4005 28.7632 13.618 28.7632 13.8875V15.5272C28.7632 15.7967 28.5456 16.0143 28.2761 16.0143Z" fill="#130F3F"/>
<path d="M32.8352 14.1278C32.7118 14.1278 32.5851 14.0791 32.491 13.9849L31.3317 12.8257C31.1401 12.6341 31.1401 12.3257 31.3317 12.1374C31.5232 11.9458 31.8317 11.9458 32.0201 12.1374L33.1792 13.2965C33.3708 13.4881 33.3708 13.7966 33.1792 13.9849C33.085 14.0791 32.9585 14.1278 32.8352 14.1278Z" fill="#130F3F"/>
<path d="M34.7215 9.56895H33.0818C32.8123 9.56895 32.5947 9.3514 32.5947 9.0819C32.5947 8.8124 32.8123 8.59485 33.0818 8.59485H34.7215C34.991 8.59485 35.2085 8.8124 35.2085 9.0819C35.2085 9.3514 34.991 9.56895 34.7215 9.56895Z" fill="#130F3F"/>
<path d="M31.6759 6.16934C31.5525 6.16934 31.4258 6.12061 31.3317 6.02645C31.1401 5.83487 31.1401 5.52641 31.3317 5.33808L32.491 4.17891C32.6825 3.98734 32.9909 3.98734 33.1792 4.17891C33.3675 4.37049 33.3708 4.67895 33.1792 4.86728L32.0201 6.02645C31.9259 6.12061 31.7993 6.16934 31.6759 6.16934Z" fill="#130F3F"/>
<path d="M28.2761 9.56895C28.0066 9.56895 27.7891 9.3514 27.7891 9.0819V3.40937C27.7891 3.13987 28.0066 2.92232 28.2761 2.92232C28.5456 2.92232 28.7632 3.13987 28.7632 3.40937V9.0819C28.7632 9.3514 28.5456 9.56895 28.2761 9.56895Z" fill="#130F3F"/>
<path d="M31.3575 25.8722H25.1946C23.977 25.8722 22.9834 24.8787 22.9834 23.661V20.0146C22.9834 19.7451 23.2009 19.5276 23.4705 19.5276C23.74 19.5276 23.9575 19.7451 23.9575 20.0146V23.661C23.9575 24.3429 24.5128 24.8981 25.1946 24.8981H31.3575C32.0393 24.8981 32.5946 24.3429 32.5946 23.661V20.0146C32.5946 19.7451 32.8122 19.5276 33.0817 19.5276C33.3512 19.5276 33.5687 19.7451 33.5687 20.0146V23.661C33.5687 24.8819 32.5751 25.8722 31.3575 25.8722Z" fill="#130F3F"/>
<path d="M8.87842 25.8755H6.09578C4.68008 25.8755 3.49156 24.791 3.38766 23.4045C3.25128 21.531 2.43965 20.1412 2.05001 19.4724C1.96234 19.323 1.89404 19.2061 1.85182 19.1217C0.643934 16.6605 -2.73287 8.25716 4.46577 3.48404C4.83268 3.24052 5.05017 2.84763 5.05017 2.42876C5.05017 1.09099 6.14116 0 7.47893 0C8.81671 0 9.9077 1.09099 9.9077 2.42876C9.9077 2.84763 10.1285 3.24052 10.4954 3.48729C17.6908 8.26366 14.3139 16.6637 13.106 19.1249C13.0671 19.2061 13.0022 19.3165 12.921 19.4561C12.5281 20.1315 11.7132 21.5342 11.5735 23.4175C11.4729 24.7975 10.2876 25.8755 8.87842 25.8755ZM7.47893 0.974106C6.67692 0.974106 6.02428 1.62675 6.02428 2.42876C6.02428 3.17233 5.64433 3.87044 5.00467 4.2958C-1.53158 8.63057 1.60836 16.4104 2.72858 18.6931C2.7643 18.7645 2.8195 18.8587 2.89093 18.9821C3.31954 19.7126 4.20915 21.2355 4.36176 23.3331C4.4267 24.213 5.18986 24.9014 6.09578 24.9014H8.87842C9.78109 24.9014 10.5409 24.2195 10.6026 23.3461C10.7585 21.2388 11.6513 19.7062 12.0799 18.9658C12.1481 18.849 12.2001 18.758 12.2326 18.6963C13.3496 16.4169 16.4894 8.63707 9.95637 4.29905C9.31671 3.87044 8.93359 3.17233 8.93359 2.42876C8.93359 1.62675 8.28095 0.974106 7.47893 0.974106Z" fill="#130F3F"/>
<path d="M28.2795 40C28.01 40 27.7925 39.7825 27.7925 39.513V25.3852C27.7925 25.1157 28.01 24.8981 28.2795 24.8981C28.549 24.8981 28.7666 25.1157 28.7666 25.3852V39.513C28.7666 39.7825 28.549 40 28.2795 40Z" fill="#130F3F"/>
<path d="M7.42699 40C7.15749 40 6.93994 39.7825 6.93994 39.513V25.3852C6.93994 25.1157 7.15749 24.8981 7.42699 24.8981C7.6965 24.8981 7.91405 25.1157 7.91405 25.3852V39.513C7.91405 39.7825 7.6965 40 7.42699 40Z" fill="#130F3F"/>
<path d="M8.4595 11.488C6.77105 12.8387 4.8456 13.9037 2.80322 14.6116C3.1539 16.1052 3.69941 17.3553 4.03386 18.0404C4.05983 18.0924 4.102 18.1606 4.1507 18.2417C4.59555 19.0048 5.64105 20.7907 5.81639 23.2259C5.82613 23.3396 5.95279 23.437 6.09241 23.437H8.87521C9.01159 23.437 9.13809 23.3428 9.14458 23.2324C9.32641 20.7939 10.3688 18.9983 10.8136 18.232C10.8591 18.1541 10.898 18.0891 10.9208 18.0469C11.6936 16.4689 13.5703 11.923 11.674 8.25715C10.7226 9.4488 9.65116 10.5366 8.4595 11.488Z" fill="#FCB017"/>
</svg>
