<svg width="45" height="40" viewBox="0 0 45 40" fill="none" xmlns="http://www.w3.org/2000/svg">
<path d="M22.3566 0.858414C22.3566 0.858414 22.3431 0.875244 22.3263 0.898809C24.5044 6.38947 28.6922 17.8758 27.6149 22.6427C26.1909 28.9413 19.9866 32.9103 13.6914 31.6142C15.8527 33.9438 18.9296 35.4082 22.3566 35.4082C28.8909 35.4082 34.1862 30.1128 34.1862 23.5785C34.1862 17.0409 22.3566 0.858414 22.3566 0.858414Z" fill="#FCB017"/>
<path d="M22.3566 35.9098C15.5564 35.9098 10.022 30.3753 10.022 23.5751C10.022 16.9534 21.4612 1.22535 21.9493 0.558799L22.3566 0L22.764 0.558799C23.2521 1.22535 34.6912 16.95 34.6912 23.5751C34.6912 30.3753 29.1602 35.9098 22.3566 35.9098ZM22.3566 1.72361C20.2829 4.63558 11.0319 17.9565 11.0319 23.5751C11.0319 29.8199 16.1119 34.8998 22.3566 34.8998C28.6014 34.8998 33.6813 29.8199 33.6813 23.5751C33.6813 17.9565 24.4304 4.63558 22.3566 1.72361Z" fill="#130F3F"/>
<path d="M10.4292 34.7181H0.504966C0.225551 34.7181 0 34.4925 0 34.2131C0 33.9337 0.225551 33.7081 0.504966 33.7081H10.4292C10.7086 33.7081 10.9342 33.9337 10.9342 34.2131C10.9342 34.4925 10.7086 34.7181 10.4292 34.7181Z" fill="#130F3F"/>
<path d="M40.8049 40H5.56502C5.28561 40 5.06006 39.7744 5.06006 39.495C5.06006 39.2156 5.28561 38.9901 5.56502 38.9901H40.8049C41.0843 38.9901 41.3098 39.2156 41.3098 39.495C41.3098 39.7744 41.0843 40 40.8049 40Z" fill="#130F3F"/>
<path d="M38.0242 7.46673H31.3048C31.0254 7.46673 30.7998 7.24118 30.7998 6.96177C30.7998 6.68235 31.0254 6.4568 31.3048 6.4568H38.0242C38.3037 6.4568 38.5292 6.68235 38.5292 6.96177C38.5292 7.24118 38.3037 7.46673 38.0242 7.46673Z" fill="#130F3F"/>
<path d="M43.5921 1.36339H28.7696C28.4902 1.36339 28.2646 1.13783 28.2646 0.85842C28.2646 0.579006 28.4902 0.353455 28.7696 0.353455H43.5921C43.8715 0.353455 44.097 0.579006 44.097 0.85842C44.097 1.13783 43.8715 1.36339 43.5921 1.36339Z" fill="#130F3F"/>
</svg>
