<svg xmlns="http://www.w3.org/2000/svg" xmlns:xlink="http://www.w3.org/1999/xlink" width="250" zoomAndPan="magnify" viewBox="0 0 187.5 187.499992" height="250" preserveAspectRatio="xMidYMid meet" version="1.0"><defs><clipPath id="id1"><path d="M 155 0 L 187 0 L 187 187 L 155 187 Z M 155 0 " clip-rule="nonzero"/></clipPath><clipPath id="id2"><path d="M 0 0 L 169 0 L 169 187 L 0 187 Z M 0 0 " clip-rule="nonzero"/></clipPath></defs><g clip-path="url(#id1)"><path fill="#ff66c4" d="M 187.5 12.929688 L 187.5 174.570312 C 187.5 181.714844 181.714844 187.5 174.570312 187.5 L 155.171875 187.5 C 162.316406 187.5 168.101562 181.714844 168.101562 174.570312 L 168.101562 12.929688 C 168.101562 5.785156 162.316406 0 155.171875 0 L 174.570312 0 C 181.714844 0 187.5 5.785156 187.5 12.929688 Z M 187.5 12.929688 " fill-opacity="1" fill-rule="nonzero"/></g><g clip-path="url(#id2)"><path fill="#38b6ff" d="M 168.101562 12.929688 L 168.101562 174.570312 C 168.101562 181.714844 162.316406 187.5 155.171875 187.5 L 12.929688 187.5 C 5.785156 187.5 0 181.714844 0 174.570312 L 0 12.929688 C 0 5.785156 5.785156 0 12.929688 0 L 155.171875 0 C 162.316406 0 168.101562 5.785156 168.101562 12.929688 Z M 168.101562 12.929688 " fill-opacity="1" fill-rule="nonzero"/></g><path fill="#3b668f" d="M 103.449219 139.007812 L 148.707031 139.007812 L 148.707031 158.40625 L 103.449219 158.40625 Z M 103.449219 139.007812 " fill-opacity="1" fill-rule="nonzero"/><path fill="#3b668f" d="M 103.449219 80.820312 L 148.707031 80.820312 L 148.707031 100.214844 L 103.449219 100.214844 Z M 103.449219 80.820312 " fill-opacity="1" fill-rule="nonzero"/><path fill="#f2f0eb" d="M 82.597656 45.613281 C 81.53125 46.132812 80.820312 47.230469 80.820312 48.492188 C 80.820312 50.269531 82.273438 51.722656 84.050781 51.722656 C 85.828125 51.722656 87.285156 50.269531 87.285156 48.492188 C 87.285156 46.714844 85.828125 45.257812 84.050781 45.257812 C 83.535156 45.257812 83.050781 45.386719 82.597656 45.613281 Z M 122.84375 0 L 122.84375 64.65625 L 45.257812 64.65625 L 45.257812 0 Z M 122.84375 0 " fill-opacity="1" fill-rule="nonzero"/><path fill="#3b668f" d="M 19.398438 139.007812 L 64.65625 139.007812 L 64.65625 158.40625 L 19.398438 158.40625 Z M 19.398438 139.007812 " fill-opacity="1" fill-rule="nonzero"/><path fill="#3b668f" d="M 19.398438 80.820312 L 64.65625 80.820312 L 64.65625 100.214844 L 19.398438 100.214844 Z M 19.398438 80.820312 " fill-opacity="1" fill-rule="nonzero"/><path fill="#3b668f" d="M 84.050781 54.957031 C 80.484375 54.957031 77.585938 52.058594 77.585938 48.492188 C 77.585938 46 78.964844 43.78125 81.183594 42.703125 C 82.085938 42.257812 83.054688 42.027344 84.050781 42.027344 C 87.617188 42.027344 90.515625 44.925781 90.515625 48.492188 C 90.515625 52.058594 87.617188 54.957031 84.050781 54.957031 Z M 84.050781 48.492188 C 84.050781 48.496094 84.050781 48.496094 84.054688 48.5 L 87.285156 48.492188 Z M 84.050781 48.492188 " fill-opacity="1" fill-rule="nonzero"/><path fill="#3b668f" d="M 81.164062 49.949219 L 68.226562 24.074219 L 74.015625 21.183594 L 86.9375 47.035156 Z M 81.164062 49.949219 " fill-opacity="1" fill-rule="nonzero"/><path fill="#3b668f" d="M 111.523438 23.582031 C 94.816406 13.875 73.285156 13.875 56.578125 23.582031 L 53.335938 17.992188 C 62.671875 12.566406 73.292969 9.699219 84.050781 9.699219 C 94.808594 9.699219 105.433594 12.566406 114.769531 17.992188 Z M 111.523438 23.582031 " fill-opacity="1" fill-rule="nonzero"/><path fill="#3b668f" d="M 67.886719 171.335938 L 74.351562 171.335938 L 74.351562 177.800781 L 67.886719 177.800781 Z M 67.886719 171.335938 " fill-opacity="1" fill-rule="nonzero"/><path fill="#3b668f" d="M 80.820312 171.335938 L 87.285156 171.335938 L 87.285156 177.800781 L 80.820312 177.800781 Z M 80.820312 171.335938 " fill-opacity="1" fill-rule="nonzero"/><path fill="#3b668f" d="M 93.75 171.335938 L 100.214844 171.335938 L 100.214844 177.800781 L 93.75 177.800781 Z M 93.75 171.335938 " fill-opacity="1" fill-rule="nonzero"/></svg>