<svg width="42" height="40" viewBox="0 0 42 40" fill="none" xmlns="http://www.w3.org/2000/svg">
<path d="M32.2162 17.4676C32.0021 17.4676 31.8292 17.2947 31.8292 17.0806C31.8292 16.8664 32.0021 16.6935 32.2162 16.6935C32.3891 16.6935 36.4219 16.6317 36.4219 12.4905V9.0976C36.4219 8.88345 36.5948 8.71058 36.8089 8.71058H40.483L33.9398 0.985634L27.3939 8.71058H31.0681C31.2823 8.71058 31.4551 8.88345 31.4551 9.0976V12.3564C31.4551 12.5705 31.2823 12.7434 31.0681 12.7434C30.854 12.7434 30.6811 12.5705 30.6811 12.3564V9.48462H26.558C26.4084 9.48462 26.2691 9.39693 26.2072 9.26018C26.1427 9.12343 26.1658 8.96086 26.2639 8.84733L33.6456 0.136755C33.7204 0.0490303 33.8263 0 33.9398 0C34.0533 0 34.1617 0.0490303 34.234 0.136755L41.6132 8.84733C41.7113 8.96344 41.7318 9.12343 41.6699 9.26018C41.6054 9.39693 41.4687 9.48462 41.319 9.48462H37.196V12.4905C37.196 17.4109 32.2652 17.4676 32.2162 17.4676Z" fill="#130F3F"/>
<path d="M35.2608 7.54693H36.8089H37.9803L33.9424 2.77882L29.9019 7.54693H31.0706H35.2608Z" fill="#FCB017"/>
<path d="M32.1597 28.1494H29.804C29.5899 28.1494 29.417 27.9766 29.417 27.7624C29.417 27.5483 29.5899 27.3754 29.804 27.3754H32.1597C32.3738 27.3754 32.5467 27.5483 32.5467 27.7624C32.5467 27.9766 32.3738 28.1494 32.1597 28.1494Z" fill="#130F3F"/>
<path d="M32.1597 22.8085H29.804C29.5899 22.8085 29.417 22.6357 29.417 22.4215C29.417 22.2074 29.5899 22.0345 29.804 22.0345H32.1597C32.3738 22.0345 32.5467 22.2074 32.5467 22.4215C32.5467 22.6357 32.3738 22.8085 32.1597 22.8085Z" fill="#130F3F"/>
<path d="M32.1597 20.1381H30.8748C30.6607 20.1381 30.4878 19.9652 30.4878 19.751C30.4878 19.5369 30.6607 19.364 30.8748 19.364H32.1597C32.3739 19.364 32.5467 19.5369 32.5467 19.751C32.5467 19.9652 32.3739 20.1381 32.1597 20.1381Z" fill="#130F3F"/>
<path d="M27.7731 32.3138C28.2006 32.3138 28.5471 31.9672 28.5471 31.5397C28.5471 31.1122 28.2006 30.7657 27.7731 30.7657C27.3456 30.7657 26.999 31.1122 26.999 31.5397C26.999 31.9672 27.3456 32.3138 27.7731 32.3138Z" fill="#130F3F"/>
<path d="M27.7733 29.1222C27.5591 29.1222 27.3862 28.9493 27.3862 28.7351V11.7371C27.3862 11.5229 27.5591 11.3501 27.7733 11.3501C27.9874 11.3501 28.1603 11.5229 28.1603 11.7371V28.7351C28.1603 28.9493 27.9874 29.1222 27.7733 29.1222Z" fill="#130F3F"/>
<path d="M27.7733 40C26.8135 40 26.0317 39.2182 26.0317 38.2584V37.5747C26.0317 36.5891 25.5621 35.637 24.7416 34.9635C23.6347 34.0502 23 32.7085 23 31.2791V7.4024C23 6.08911 23.5418 4.8068 24.4861 3.88053C25.4072 2.97748 26.6071 2.4924 27.8636 2.51562C28.4493 2.52594 29.0247 2.64465 29.5665 2.86397C29.7652 2.94395 29.8606 3.17099 29.7806 3.36708C29.7006 3.56575 29.4736 3.66124 29.2775 3.58125C28.8208 3.39806 28.3409 3.29741 27.8481 3.28966C27.8249 3.28966 27.799 3.28966 27.7758 3.28966C26.7541 3.28966 25.7814 3.69473 25.028 4.43265C24.2307 5.21444 23.774 6.2981 23.774 7.4024V31.2791C23.774 32.4763 24.3055 33.6012 25.2318 34.3649C26.2303 35.188 26.8031 36.3569 26.8031 37.5747V38.2584C26.8031 38.7925 27.2365 39.226 27.7706 39.226C28.3047 39.226 28.7382 38.7925 28.7382 38.2584V37.5747C28.7382 36.3543 29.3111 35.1854 30.3096 34.3649C31.2358 33.6038 31.7673 32.4789 31.7673 31.2791V17.0805C31.7673 16.8664 31.9402 16.6935 32.1544 16.6935C32.3685 16.6935 32.5414 16.8664 32.5414 17.0805V31.2791C32.5414 32.7137 31.9067 34.0553 30.7998 34.9635C29.9819 35.6344 29.5122 36.5865 29.5122 37.5747V38.2584C29.5148 39.2182 28.7331 40 27.7733 40Z" fill="#130F3F"/>
<path d="M32.1594 25.5099H30.9803C30.7661 25.5099 30.5933 25.3371 30.5933 25.1229C30.5933 24.9088 30.7661 24.7359 30.9803 24.7359H32.1594C32.3735 24.7359 32.5464 24.9088 32.5464 25.1229C32.5464 25.3371 32.3735 25.5099 32.1594 25.5099Z" fill="#130F3F"/>
<path d="M3.4552 39.9944H3.04428C1.36701 39.9944 0 38.6274 0 36.9502C0 32.866 0.880562 30.0063 1.46481 28.1138C1.53749 27.8789 1.60457 27.6581 1.66607 27.4512C2.06023 26.1066 3.10579 25.0779 4.45879 24.7005L7.60639 23.6746C7.82444 23.6019 8.06209 23.7221 8.13477 23.9429C8.20745 24.1638 8.08726 24.3986 7.86642 24.4713L4.70196 25.5028C3.61173 25.8075 2.78708 26.621 2.4712 27.6889C2.4097 27.8985 2.33982 28.1222 2.26714 28.3626C1.69966 30.2076 0.838633 32.9946 0.838633 36.953C0.838633 38.169 1.82826 39.1586 3.04428 39.1586H3.4552C4.34415 39.1586 5.19118 38.8371 5.84252 38.2556C7.84126 36.4749 9.42624 34.3588 10.5556 31.9715C11.7996 29.3382 12.6913 26.4616 13.0687 23.8759C13.2169 22.8639 13.6753 21.9498 14.3937 21.2314C14.5475 21.0776 14.6314 20.8736 14.6314 20.6583C14.6314 20.211 14.268 19.8477 13.8207 19.8477H13.4209C12.7081 20.0517 12.0037 20.5186 11.4781 21.1335C11.0057 21.687 10.7206 22.6459 10.6563 23.901C10.5612 25.6957 10.0581 27.4093 9.19985 28.8546C8.41433 30.1796 7.46665 31.404 6.37642 32.4942C5.40641 33.4671 4.2631 34.2889 2.97999 34.9347C2.77312 35.0381 2.52153 34.957 2.4181 34.7473C2.31467 34.5377 2.39851 34.2889 2.60537 34.1855C3.80741 33.5816 4.8781 32.8129 5.78383 31.9016C6.82373 30.8617 7.72942 29.6932 8.4786 28.4297C9.26692 27.1018 9.73097 25.5224 9.81763 23.8591C9.89311 22.3971 10.2369 21.2957 10.8407 20.5912C11.4865 19.8336 12.3671 19.2634 13.256 19.023C13.2924 19.0146 13.3287 19.009 13.365 19.009H13.8207C14.7292 19.009 15.47 19.7498 15.47 20.6583C15.47 21.0972 15.2995 21.5137 14.9864 21.824C14.3966 22.4139 14.0191 23.1658 13.8961 23.9989C13.5076 26.6657 12.5879 29.6261 11.3104 32.3321C10.1307 34.8228 8.47862 37.0284 6.39601 38.8846C5.59651 39.5975 4.54822 39.9944 3.4552 39.9944Z" fill="#130F3F"/>
<path d="M15.1962 21.0916C14.9642 21.0916 14.7769 20.9043 14.7769 20.6723C14.7769 20.4403 14.9642 20.253 15.1962 20.253C16.7421 20.253 18.2152 19.4032 19.1405 17.9831C20.432 16.0011 21.1281 12.5208 21.1281 10.2565C21.1281 10.0244 21.3154 9.83715 21.5474 9.83715C21.7794 9.83715 21.9667 10.0244 21.9667 10.2565C21.9667 12.7025 21.2371 16.3002 19.845 18.4415C18.7631 20.102 17.0272 21.0916 15.1962 21.0916Z" fill="#130F3F"/>
<path d="M10.8995 18.6316C10.7597 18.6316 10.6227 18.5618 10.5445 18.436C8.80569 15.6629 8.2131 11.6402 8.14042 9.89866C8.13203 9.66664 8.31093 9.47097 8.54295 9.46259C8.77776 9.45141 8.97067 9.63309 8.97905 9.86511C9.04614 11.5284 9.61079 15.3666 11.2545 17.9887C11.3775 18.1844 11.3188 18.4443 11.1231 18.5673C11.0533 18.6121 10.975 18.6316 10.8995 18.6316Z" fill="#130F3F"/>
<path d="M21.5472 10.6758C21.4606 10.6758 21.3767 10.6506 21.304 10.5975C19.677 9.44019 18.243 9.20259 16.8593 8.97057C15.3274 8.71619 13.8737 8.47297 12.4592 7.03611C11.615 8.41986 10.3207 9.55202 8.73568 10.2649C8.61828 10.318 8.48415 10.3124 8.36953 10.2537C8.25492 10.195 8.17664 10.086 8.15148 9.95737L7.93902 8.79725C7.51971 6.50779 8.14869 4.14564 9.61909 2.47676C11.0084 0.902924 12.9904 0 15.0562 0C17.4994 0 19.7777 1.24675 21.1447 3.33215C22.1427 4.85846 22.5256 6.74539 22.2265 8.64909L21.9637 10.3208C21.9414 10.4633 21.8464 10.5863 21.7122 10.6422C21.6591 10.6646 21.6031 10.6758 21.5472 10.6758ZM12.873 6.25621C14.1589 7.6707 15.4783 7.89154 16.9962 8.14313C18.2598 8.35279 19.6715 8.59037 21.2341 9.54641L21.3963 8.51771C21.6646 6.82088 21.3236 5.1408 20.443 3.7906C19.2298 1.94282 17.2171 0.838633 15.0562 0.838633C13.2308 0.838633 11.4809 1.63812 10.2481 3.03025C8.94539 4.50904 8.39187 6.60841 8.76367 8.64629L8.87546 9.26131C10.2424 8.53449 11.3271 7.44984 11.9868 6.16393C11.9952 6.14157 12.0064 6.12201 12.0175 6.09964C12.1797 5.77537 12.3139 5.43713 12.4201 5.09049C12.4872 4.86965 12.722 4.74386 12.9428 4.81095C13.1637 4.87804 13.2895 5.11286 13.2224 5.3337C13.1273 5.65238 13.0099 5.95989 12.873 6.25621Z" fill="#130F3F"/>
</svg>
