<svg xmlns="http://www.w3.org/2000/svg" xmlns:xlink="http://www.w3.org/1999/xlink" width="200"
    zoomAndPan="magnify" viewBox="0 0 150 37.5" height="50" preserveAspectRatio="xMidYMid meet"
    version="1.0">
    <defs>
        <g />
        <clipPath id="id1">
            <path
                d="M 0.988281 0 L 149.011719 0 L 149.011719 37.007812 L 0.988281 37.007812 Z M 0.988281 0 "
                clip-rule="nonzero" />
        </clipPath>
        <clipPath id="id2">
            <path
                d="M 2.835938 2.25 L 22.820312 2.25 L 22.820312 37.007812 L 2.835938 37.007812 Z M 2.835938 2.25 "
                clip-rule="nonzero" />
        </clipPath>
    </defs>

    <g fill="#ffffff" fill-opacity="1">
        <g transform="translate(26.957796, 28.762073)">
            <g>
                <path
                    d="M 13.109375 -21.234375 C 13.929688 -21.234375 14.644531 -21.144531 15.25 -20.96875 C 15.863281 -20.800781 16.328125 -20.644531 16.640625 -20.5 L 15.265625 -17.296875 C 14.941406 -17.453125 14.5625 -17.570312 14.125 -17.65625 C 13.695312 -17.738281 13.300781 -17.78125 12.9375 -17.78125 C 11.9375 -17.78125 11.191406 -17.523438 10.703125 -17.015625 C 10.222656 -16.503906 9.894531 -15.867188 9.71875 -15.109375 L 9.546875 -14.390625 L 14.359375 -14.390625 L 13.546875 -11.046875 L 8.75 -11.046875 L 7.09375 -4.078125 C 6.46875 -1.472656 5.789062 0.550781 5.0625 2 C 4.332031 3.457031 3.53125 4.515625 2.65625 5.171875 L -0.984375 4.65625 C -0.515625 4.21875 -0.078125 3.675781 0.328125 3.03125 C 0.734375 2.394531 1.09375 1.71875 1.40625 1 C 1.726562 0.289062 2.003906 -0.425781 2.234375 -1.15625 C 2.460938 -1.894531 2.648438 -2.585938 2.796875 -3.234375 L 5.640625 -15.15625 C 6.085938 -17.09375 6.90625 -18.585938 8.09375 -19.640625 C 9.28125 -20.703125 10.953125 -21.234375 13.109375 -21.234375 Z M 13.109375 -21.234375 " />
            </g>
        </g>
    </g>
    <g fill="#ffffff" fill-opacity="1">
        <g transform="translate(38.942222, 28.762073)">
            <g>
                <path
                    d="M 8.421875 0.390625 C 7.460938 0.390625 6.625 0.242188 5.90625 -0.046875 C 5.195312 -0.347656 4.609375 -0.757812 4.140625 -1.28125 C 3.679688 -1.8125 3.332031 -2.4375 3.09375 -3.15625 C 2.851562 -3.875 2.734375 -4.671875 2.734375 -5.546875 C 2.734375 -6.648438 2.910156 -7.75 3.265625 -8.84375 C 3.617188 -9.9375 4.140625 -10.921875 4.828125 -11.796875 C 5.523438 -12.671875 6.375 -13.382812 7.375 -13.9375 C 8.382812 -14.5 9.535156 -14.78125 10.828125 -14.78125 C 11.773438 -14.78125 12.609375 -14.632812 13.328125 -14.34375 C 14.054688 -14.050781 14.648438 -13.640625 15.109375 -13.109375 C 15.578125 -12.578125 15.929688 -11.953125 16.171875 -11.234375 C 16.410156 -10.515625 16.53125 -9.71875 16.53125 -8.84375 C 16.53125 -7.75 16.351562 -6.648438 16 -5.546875 C 15.65625 -4.453125 15.144531 -3.46875 14.46875 -2.59375 C 13.789062 -1.71875 12.945312 -1 11.9375 -0.4375 C 10.925781 0.113281 9.753906 0.390625 8.421875 0.390625 Z M 10.453125 -11.328125 C 9.847656 -11.328125 9.316406 -11.148438 8.859375 -10.796875 C 8.410156 -10.453125 8.03125 -10.015625 7.71875 -9.484375 C 7.40625 -8.960938 7.171875 -8.382812 7.015625 -7.75 C 6.859375 -7.125 6.78125 -6.53125 6.78125 -5.96875 C 6.78125 -5.03125 6.925781 -4.3125 7.21875 -3.8125 C 7.507812 -3.3125 8.039062 -3.0625 8.8125 -3.0625 C 9.414062 -3.0625 9.941406 -3.234375 10.390625 -3.578125 C 10.847656 -3.929688 11.234375 -4.367188 11.546875 -4.890625 C 11.859375 -5.421875 12.085938 -6 12.234375 -6.625 C 12.390625 -7.257812 12.46875 -7.859375 12.46875 -8.421875 C 12.46875 -9.359375 12.320312 -10.078125 12.03125 -10.578125 C 11.738281 -11.078125 11.210938 -11.328125 10.453125 -11.328125 Z M 10.453125 -11.328125 " />
            </g>
        </g>
    </g>
    <g fill="#ffffff" fill-opacity="1">
        <g transform="translate(54.647837, 28.762073)">
            <g>
                <path
                    d="M 12.90625 -10.890625 C 12.539062 -10.984375 12.179688 -11.066406 11.828125 -11.140625 C 11.472656 -11.222656 10.953125 -11.265625 10.265625 -11.265625 C 10.003906 -11.265625 9.71875 -11.242188 9.40625 -11.203125 C 9.101562 -11.160156 8.847656 -11.109375 8.640625 -11.046875 L 5.984375 0 L 1.921875 0 L 5.203125 -13.625 C 5.984375 -13.882812 6.859375 -14.125 7.828125 -14.34375 C 8.804688 -14.570312 9.910156 -14.6875 11.140625 -14.6875 C 11.585938 -14.6875 12.085938 -14.644531 12.640625 -14.5625 C 13.203125 -14.488281 13.695312 -14.359375 14.125 -14.171875 Z M 12.90625 -10.890625 " />
            </g>
        </g>
    </g>
    <g fill="#ffffff" fill-opacity="1">
        <g transform="translate(66.303926, 28.762073)">
            <g>
                <path
                    d="M 5.96875 0 L 1.921875 0 L 5.328125 -14.390625 L 9.40625 -14.390625 Z M 7.9375 -16.140625 C 7.375 -16.140625 6.863281 -16.304688 6.40625 -16.640625 C 5.945312 -16.984375 5.71875 -17.5 5.71875 -18.1875 C 5.71875 -18.570312 5.796875 -18.929688 5.953125 -19.265625 C 6.109375 -19.609375 6.3125 -19.898438 6.5625 -20.140625 C 6.820312 -20.390625 7.117188 -20.585938 7.453125 -20.734375 C 7.796875 -20.878906 8.15625 -20.953125 8.53125 -20.953125 C 9.101562 -20.953125 9.613281 -20.78125 10.0625 -20.4375 C 10.519531 -20.101562 10.75 -19.59375 10.75 -18.90625 C 10.75 -18.519531 10.671875 -18.15625 10.515625 -17.8125 C 10.359375 -17.476562 10.148438 -17.1875 9.890625 -16.9375 C 9.640625 -16.695312 9.347656 -16.503906 9.015625 -16.359375 C 8.679688 -16.210938 8.320312 -16.140625 7.9375 -16.140625 Z M 7.9375 -16.140625 " />
            </g>
        </g>
    </g>
    <g fill="#ffffff" fill-opacity="1">
        <g transform="translate(74.047288, 28.762073)">
            <g />
        </g>
    </g>
    <g fill="#ffffff" fill-opacity="1">
        <g transform="translate(80.605769, 28.762073)">
            <g>
                <path
                    d="M 7.53125 0.359375 C 6.03125 0.359375 4.851562 -0.0820312 4 -0.96875 C 3.15625 -1.851562 2.734375 -3.070312 2.734375 -4.625 C 2.734375 -5.675781 2.882812 -6.785156 3.1875 -7.953125 C 3.488281 -9.128906 3.96875 -10.207031 4.625 -11.1875 C 5.28125 -12.175781 6.128906 -12.988281 7.171875 -13.625 C 8.210938 -14.257812 9.46875 -14.578125 10.9375 -14.578125 C 12.4375 -14.578125 13.609375 -14.132812 14.453125 -13.25 C 15.304688 -12.363281 15.734375 -11.148438 15.734375 -9.609375 C 15.734375 -8.546875 15.582031 -7.429688 15.28125 -6.265625 C 14.976562 -5.097656 14.5 -4.019531 13.84375 -3.03125 C 13.1875 -2.050781 12.335938 -1.238281 11.296875 -0.59375 C 10.253906 0.0390625 9 0.359375 7.53125 0.359375 Z M 7.96875 -1.8125 C 8.78125 -1.8125 9.507812 -2.046875 10.15625 -2.515625 C 10.8125 -2.992188 11.359375 -3.597656 11.796875 -4.328125 C 12.242188 -5.066406 12.585938 -5.882812 12.828125 -6.78125 C 13.066406 -7.675781 13.1875 -8.546875 13.1875 -9.390625 C 13.1875 -10.316406 12.984375 -11.050781 12.578125 -11.59375 C 12.179688 -12.144531 11.488281 -12.421875 10.5 -12.421875 C 9.6875 -12.421875 8.953125 -12.179688 8.296875 -11.703125 C 7.648438 -11.234375 7.101562 -10.628906 6.65625 -9.890625 C 6.207031 -9.148438 5.863281 -8.332031 5.625 -7.4375 C 5.394531 -6.539062 5.28125 -5.675781 5.28125 -4.84375 C 5.28125 -3.914062 5.476562 -3.175781 5.875 -2.625 C 6.28125 -2.082031 6.976562 -1.8125 7.96875 -1.8125 Z M 7.96875 -1.8125 " />
            </g>
        </g>
    </g>
    <g fill="#ffffff" fill-opacity="1">
        <g transform="translate(95.791521, 28.762073)">
            <g>
                <path
                    d="M 10.234375 -14.53125 C 10.453125 -14.53125 10.695312 -14.519531 10.96875 -14.5 C 11.238281 -14.476562 11.503906 -14.445312 11.765625 -14.40625 C 12.035156 -14.363281 12.28125 -14.316406 12.5 -14.265625 C 12.71875 -14.222656 12.882812 -14.175781 13 -14.125 L 12.25 -11.90625 C 11.882812 -12.050781 11.460938 -12.160156 10.984375 -12.234375 C 10.515625 -12.304688 10.0625 -12.34375 9.625 -12.34375 C 9.25 -12.34375 8.875 -12.3125 8.5 -12.25 C 8.125 -12.195312 7.800781 -12.125 7.53125 -12.03125 L 4.625 0 L 2.078125 0 L 5.359375 -13.6875 C 6.085938 -13.9375 6.867188 -14.140625 7.703125 -14.296875 C 8.546875 -14.453125 9.390625 -14.53125 10.234375 -14.53125 Z M 10.234375 -14.53125 " />
            </g>
        </g>
    </g>
    <g fill="#ffffff" fill-opacity="1">
        <g transform="translate(105.97008, 28.762073)">
            <g>
                <path
                    d="M 13.65625 -2.8125 C 13.65625 -2.394531 13.691406 -1.972656 13.765625 -1.546875 C 13.835938 -1.117188 13.960938 -0.660156 14.140625 -0.171875 L 11.90625 0.171875 C 11.695312 -0.234375 11.539062 -0.71875 11.4375 -1.28125 C 11.03125 -0.914062 10.488281 -0.550781 9.8125 -0.1875 C 9.144531 0.175781 8.316406 0.359375 7.328125 0.359375 C 6.523438 0.359375 5.832031 0.234375 5.25 -0.015625 C 4.664062 -0.265625 4.179688 -0.613281 3.796875 -1.0625 C 3.421875 -1.519531 3.140625 -2.0625 2.953125 -2.6875 C 2.773438 -3.320312 2.6875 -4.015625 2.6875 -4.765625 C 2.6875 -5.984375 2.890625 -7.175781 3.296875 -8.34375 C 3.703125 -9.507812 4.3125 -10.546875 5.125 -11.453125 C 5.9375 -12.367188 6.953125 -13.101562 8.171875 -13.65625 C 9.398438 -14.21875 10.828125 -14.5 12.453125 -14.5 C 12.648438 -14.5 12.847656 -14.488281 13.046875 -14.46875 C 13.242188 -14.457031 13.457031 -14.429688 13.6875 -14.390625 L 15.21875 -20.796875 L 17.859375 -21.234375 L 14.015625 -5.21875 C 13.921875 -4.800781 13.835938 -4.398438 13.765625 -4.015625 C 13.691406 -3.640625 13.65625 -3.238281 13.65625 -2.8125 Z M 7.859375 -1.8125 C 8.617188 -1.8125 9.265625 -1.96875 9.796875 -2.28125 C 10.335938 -2.601562 10.8125 -2.972656 11.21875 -3.390625 C 11.238281 -3.679688 11.269531 -3.992188 11.3125 -4.328125 C 11.351562 -4.671875 11.421875 -5.039062 11.515625 -5.4375 L 13.15625 -12.28125 C 12.988281 -12.320312 12.804688 -12.34375 12.609375 -12.34375 C 12.410156 -12.351562 12.21875 -12.359375 12.03125 -12.359375 C 11 -12.359375 10.0625 -12.15625 9.21875 -11.75 C 8.382812 -11.351562 7.671875 -10.816406 7.078125 -10.140625 C 6.484375 -9.472656 6.023438 -8.695312 5.703125 -7.8125 C 5.378906 -6.925781 5.21875 -6 5.21875 -5.03125 C 5.21875 -4.613281 5.265625 -4.210938 5.359375 -3.828125 C 5.453125 -3.441406 5.597656 -3.097656 5.796875 -2.796875 C 5.992188 -2.503906 6.257812 -2.265625 6.59375 -2.078125 C 6.9375 -1.898438 7.359375 -1.8125 7.859375 -1.8125 Z M 7.859375 -1.8125 " />
            </g>
        </g>
    </g>
    <g fill="#ffffff" fill-opacity="1">
        <g transform="translate(120.93693, 28.762073)">
            <g>
                <path
                    d="M 5.578125 -7.46875 C 6.640625 -7.507812 7.609375 -7.578125 8.484375 -7.671875 C 9.359375 -7.773438 10.113281 -7.945312 10.75 -8.1875 C 11.382812 -8.4375 11.878906 -8.769531 12.234375 -9.1875 C 12.597656 -9.613281 12.78125 -10.160156 12.78125 -10.828125 C 12.78125 -10.992188 12.742188 -11.164062 12.671875 -11.34375 C 12.609375 -11.53125 12.5 -11.703125 12.34375 -11.859375 C 12.195312 -12.015625 11.984375 -12.140625 11.703125 -12.234375 C 11.429688 -12.335938 11.097656 -12.390625 10.703125 -12.390625 C 10.054688 -12.390625 9.457031 -12.253906 8.90625 -11.984375 C 8.351562 -11.710938 7.851562 -11.351562 7.40625 -10.90625 C 6.96875 -10.457031 6.59375 -9.9375 6.28125 -9.34375 C 5.976562 -8.75 5.742188 -8.125 5.578125 -7.46875 Z M 8.1875 0.359375 C 7.25 0.359375 6.441406 0.226562 5.765625 -0.03125 C 5.097656 -0.300781 4.535156 -0.664062 4.078125 -1.125 C 3.617188 -1.59375 3.28125 -2.132812 3.0625 -2.75 C 2.84375 -3.375 2.734375 -4.035156 2.734375 -4.734375 C 2.734375 -6.003906 2.925781 -7.234375 3.3125 -8.421875 C 3.695312 -9.609375 4.242188 -10.65625 4.953125 -11.5625 C 5.660156 -12.476562 6.523438 -13.207031 7.546875 -13.75 C 8.566406 -14.289062 9.726562 -14.5625 11.03125 -14.5625 C 11.769531 -14.5625 12.410156 -14.460938 12.953125 -14.265625 C 13.492188 -14.078125 13.929688 -13.816406 14.265625 -13.484375 C 14.609375 -13.160156 14.859375 -12.78125 15.015625 -12.34375 C 15.179688 -11.914062 15.265625 -11.476562 15.265625 -11.03125 C 15.265625 -10.164062 15.109375 -9.4375 14.796875 -8.84375 C 14.492188 -8.257812 14.082031 -7.765625 13.5625 -7.359375 C 13.050781 -6.953125 12.453125 -6.640625 11.765625 -6.421875 C 11.085938 -6.203125 10.378906 -6.03125 9.640625 -5.90625 C 8.898438 -5.78125 8.148438 -5.691406 7.390625 -5.640625 C 6.640625 -5.597656 5.925781 -5.5625 5.25 -5.53125 C 5.226562 -5.382812 5.21875 -5.265625 5.21875 -5.171875 C 5.21875 -5.078125 5.21875 -5.003906 5.21875 -4.953125 C 5.21875 -4.535156 5.269531 -4.140625 5.375 -3.765625 C 5.476562 -3.390625 5.664062 -3.0625 5.9375 -2.78125 C 6.207031 -2.5 6.582031 -2.273438 7.0625 -2.109375 C 7.550781 -1.941406 8.1875 -1.859375 8.96875 -1.859375 C 9.320312 -1.859375 9.679688 -1.890625 10.046875 -1.953125 C 10.421875 -2.015625 10.773438 -2.097656 11.109375 -2.203125 C 11.453125 -2.304688 11.753906 -2.40625 12.015625 -2.5 C 12.285156 -2.601562 12.472656 -2.703125 12.578125 -2.796875 L 12.796875 -0.625 C 12.429688 -0.425781 11.84375 -0.210938 11.03125 0.015625 C 10.226562 0.242188 9.28125 0.359375 8.1875 0.359375 Z M 8.1875 0.359375 " />
            </g>
        </g>
    </g>
    <g fill="#ffffff" fill-opacity="1">
        <g transform="translate(135.110298, 28.762073)">
            <g>
                <path
                    d="M 10.234375 -14.53125 C 10.453125 -14.53125 10.695312 -14.519531 10.96875 -14.5 C 11.238281 -14.476562 11.503906 -14.445312 11.765625 -14.40625 C 12.035156 -14.363281 12.28125 -14.316406 12.5 -14.265625 C 12.71875 -14.222656 12.882812 -14.175781 13 -14.125 L 12.25 -11.90625 C 11.882812 -12.050781 11.460938 -12.160156 10.984375 -12.234375 C 10.515625 -12.304688 10.0625 -12.34375 9.625 -12.34375 C 9.25 -12.34375 8.875 -12.3125 8.5 -12.25 C 8.125 -12.195312 7.800781 -12.125 7.53125 -12.03125 L 4.625 0 L 2.078125 0 L 5.359375 -13.6875 C 6.085938 -13.9375 6.867188 -14.140625 7.703125 -14.296875 C 8.546875 -14.453125 9.390625 -14.53125 10.234375 -14.53125 Z M 10.234375 -14.53125 " />
            </g>
        </g>
    </g>
    <g clip-path="url(#id2)">
        <path fill="#ffffff"
            d="M 4.933594 37.019531 C 4.648438 37.019531 4.394531 36.929688 4.167969 36.753906 C 3.921875 36.570312 3.761719 36.324219 3.699219 36.019531 C 3.632812 35.714844 3.675781 35.425781 3.828125 35.152344 L 3.832031 35.144531 L 11.324219 21.792969 L 4.183594 21.792969 C 3.929688 21.792969 3.699219 21.722656 3.492188 21.582031 C 3.28125 21.441406 3.128906 21.257812 3.027344 21.023438 C 2.929688 20.789062 2.90625 20.546875 2.953125 20.300781 C 3 20.050781 3.109375 19.835938 3.285156 19.652344 L 18.503906 2.777344 L 18.527344 2.753906 C 18.738281 2.539062 18.996094 2.417969 19.296875 2.390625 C 19.597656 2.363281 19.871094 2.433594 20.121094 2.605469 C 20.367188 2.777344 20.535156 3.007812 20.617188 3.296875 C 20.699219 3.589844 20.679688 3.875 20.558594 4.152344 L 20.550781 4.171875 L 14.632812 16.625 L 20.917969 16.625 C 21.273438 16.625 21.597656 16.722656 21.894531 16.921875 C 22.1875 17.117188 22.40625 17.378906 22.542969 17.707031 C 22.679688 18.035156 22.71875 18.375 22.652344 18.726562 C 22.589844 19.074219 22.433594 19.378906 22.1875 19.636719 L 5.8125 36.640625 L 5.792969 36.660156 C 5.554688 36.898438 5.269531 37.015625 4.933594 37.019531 Z M 4.898438 35.726562 Z M 4.269531 20.492188 L 11.390625 20.492188 C 11.5 20.492188 11.605469 20.507812 11.710938 20.535156 C 11.816406 20.5625 11.914062 20.605469 12.007812 20.65625 C 12.105469 20.710938 12.191406 20.777344 12.265625 20.851562 C 12.34375 20.929688 12.410156 21.015625 12.464844 21.109375 C 12.523438 21.203125 12.566406 21.300781 12.59375 21.40625 C 12.625 21.511719 12.640625 21.617188 12.644531 21.726562 C 12.644531 21.835938 12.632812 21.945312 12.609375 22.050781 C 12.582031 22.15625 12.542969 22.257812 12.492188 22.351562 L 12.488281 22.363281 L 5.109375 35.511719 L 21.257812 18.730469 C 21.402344 18.582031 21.4375 18.410156 21.355469 18.214844 C 21.273438 18.019531 21.125 17.921875 20.917969 17.925781 L 14.574219 17.925781 C 14.359375 17.925781 14.160156 17.875 13.976562 17.773438 C 13.789062 17.671875 13.640625 17.53125 13.523438 17.351562 C 13.40625 17.175781 13.339844 16.980469 13.324219 16.765625 C 13.304688 16.554688 13.339844 16.351562 13.425781 16.15625 L 13.433594 16.136719 L 19.265625 3.863281 Z M 19.96875 3.890625 Z M 19.96875 3.890625 "
            fill-opacity="1" fill-rule="nonzero" />
    </g>
</svg>