<?xml version="1.0"?>
<svg xmlns="http://www.w3.org/2000/svg" xmlns:xlink="http://www.w3.org/1999/xlink" xmlns:svgjs="http://svgjs.com/svgjs" version="1.1" width="512" height="512" x="0" y="0" viewBox="0 0 419.005 419.005" style="enable-background:new 0 0 512 512" xml:space="preserve" class=""><g>
<g xmlns="http://www.w3.org/2000/svg">
	<g>
		<path style="" d="M338.025,58.515H80.98c-17.767,0.24-32.345,14.135-33.437,31.869v299.363    c0,17.241,16.196,29.257,33.437,29.257h257.045c17.241,0,33.437-12.016,33.437-29.257V90.385    C370.37,72.65,355.792,58.755,338.025,58.515z" fill="#81d4fa" data-original="#d4e1f4" class=""/>
		<g>
			<path style="" d="M121.209,281.601c-2.782,0.089-5.46-1.059-7.314-3.135l-21.42-21.943     c-4.047-4.24-4.047-10.911,0-15.151c4.204-3.841,10.709-3.609,14.629,0.522l14.106,14.629l33.437-31.869     c4.204-3.841,10.709-3.609,14.629,0.522c4.047,4.24,4.047,10.911,0,15.151l-40.751,38.139     C126.594,280.435,123.965,281.562,121.209,281.601z" fill="#00bb64" data-original="#00bb64" class=""/>
			<path style="" d="M319.217,268.54H199.054c-5.771,0-10.449-4.678-10.449-10.449s4.678-10.449,10.449-10.449h120.163     c5.771,0,10.449,4.678,10.449,10.449S324.988,268.54,319.217,268.54z" fill="#083863" data-original="#083863" class=""/>
			<path style="" d="M121.209,198.009c-2.782,0.089-5.46-1.059-7.314-3.135l-21.42-21.943     c-4.047-4.24-4.047-10.911,0-15.151c4.204-3.841,10.709-3.609,14.629,0.522l14.106,14.629l33.437-31.869     c4.204-3.841,10.709-3.609,14.629,0.522c4.047,4.24,4.047,10.911,0,15.151l-40.751,38.139     C126.594,196.843,123.965,197.97,121.209,198.009z" fill="#00bb64" data-original="#00bb64" class=""/>
			<path style="" d="M319.217,184.948H199.054c-5.771,0-10.449-4.678-10.449-10.449     c0-5.771,4.678-10.449,10.449-10.449h120.163c5.771,0,10.449,4.678,10.449,10.449     C329.666,180.27,324.988,184.948,319.217,184.948z" fill="#083863" data-original="#083863" class=""/>
			<path style="" d="M121.209,365.193c-2.782,0.089-5.46-1.059-7.314-3.135l-21.42-21.943     c-4.047-4.24-4.047-10.911,0-15.151c4.204-3.841,10.709-3.609,14.629,0.522l14.106,14.629l33.437-31.869     c4.204-3.841,10.709-3.609,14.629,0.522c4.047,4.24,4.047,10.911,0,15.151l-40.751,38.139     C126.594,364.027,123.965,365.153,121.209,365.193z" fill="#00bb64" data-original="#00bb64" class=""/>
			<path style="" d="M319.217,352.132H199.054c-5.771,0-10.449-4.678-10.449-10.449     c0-5.771,4.678-10.449,10.449-10.449h120.163c5.771,0,10.449,4.678,10.449,10.449     C329.666,347.453,324.988,352.132,319.217,352.132z" fill="#083863" data-original="#083863" class=""/>
		</g>
	</g>
	<path style="" d="M286.303,60.083v36.571H132.18V31.348h38.139c3.926-18.232,20.012-31.274,38.661-31.347   c18.721-0.129,34.917,13.004,38.661,31.347h38.661V60.083z" fill="#3caddf" data-original="#00ceb4" class=""/>
</g>
<g xmlns="http://www.w3.org/2000/svg">
</g>
<g xmlns="http://www.w3.org/2000/svg">
</g>
<g xmlns="http://www.w3.org/2000/svg">
</g>
<g xmlns="http://www.w3.org/2000/svg">
</g>
<g xmlns="http://www.w3.org/2000/svg">
</g>
<g xmlns="http://www.w3.org/2000/svg">
</g>
<g xmlns="http://www.w3.org/2000/svg">
</g>
<g xmlns="http://www.w3.org/2000/svg">
</g>
<g xmlns="http://www.w3.org/2000/svg">
</g>
<g xmlns="http://www.w3.org/2000/svg">
</g>
<g xmlns="http://www.w3.org/2000/svg">
</g>
<g xmlns="http://www.w3.org/2000/svg">
</g>
<g xmlns="http://www.w3.org/2000/svg">
</g>
<g xmlns="http://www.w3.org/2000/svg">
</g>
<g xmlns="http://www.w3.org/2000/svg">
</g>
</g></svg>
