<?xml version="1.0"?>
<svg xmlns="http://www.w3.org/2000/svg" xmlns:xlink="http://www.w3.org/1999/xlink"
    xmlns:svgjs="http://svgjs.com/svgjs" version="1.1" width="512" height="512" x="0" y="0"
    viewBox="0 0 512.001 512.001" style="enable-background:new 0 0 512 512" xml:space="preserve"
    class=""><g><g xmlns="http://www.w3.org/2000/svg"><g><g><path d="m111.36 512.001c-1.537 0-3.088-.471-4.423-1.448-3.343-2.446-4.07-7.14-1.624-10.481l40.347-55.134c2.445-3.345 7.14-4.071 10.481-1.624 3.343 2.446 4.07 7.14 1.624 10.481l-40.347 55.134c-1.468 2.008-3.749 3.072-6.058 3.072z" fill="#d1d3d7" data-original="#edebed" style="" class=""/></g><g><path d="m317.141 512.001c-2.311 0-4.589-1.064-6.059-3.072l-40.347-55.134c-2.446-3.342-1.719-8.035 1.624-10.481 3.342-2.444 8.034-1.72 10.481 1.624l40.347 55.134c2.446 3.342 1.719 8.035-1.624 10.481-1.334.976-2.885 1.448-4.422 1.448z" fill="#d1d3d7" data-original="#edebed" style="" class=""/></g></g><g><path d="m214.251 73c-4.143 0-7.5-3.357-7.5-7.5v-58c0-4.143 3.357-7.5 7.5-7.5s7.5 3.357 7.5 7.5v58c0 4.143-3.358 7.5-7.5 7.5z" fill="#d1d3d7" data-original="#edebed" style="" class=""/></g><g><g><path d="m403.38 84.838c-2.12 0-4.226-.894-5.709-2.632-2.688-3.151-2.314-7.885.837-10.573l13.874-11.838c3.151-2.689 7.886-2.312 10.573.837 2.688 3.151 2.314 7.885-.837 10.573l-13.874 11.838c-1.411 1.205-3.143 1.795-4.864 1.795z" fill="#d1d3d7" data-original="#edebed" style="" class=""/></g>
    <circle cx="349.251" cy="118.5" fill="#81d4fa" r="68" data-original="#b3e59f" style=""
        class="" />
    <path
        d="m349.251 50.5c-5.157 0-10.172.593-15 1.681 30.335 6.833 53 33.92 53 66.319s-22.665 59.486-53 66.319c4.828 1.088 9.843 1.681 15 1.681 37.555 0 68-30.445 68-68s-30.445-68-68-68z"
        fill="#4fc3f7" data-original="#95d6a4" style="" class="" /></g><g><g><path d="m25.121 84.838c-1.722 0-3.452-.59-4.864-1.795l-13.875-11.838c-3.151-2.688-3.525-7.422-.837-10.573 2.688-3.149 7.422-3.526 10.573-.837l13.874 11.838c3.151 2.688 3.525 7.422.837 10.573-1.483 1.738-3.588 2.632-5.708 2.632z" fill="#d1d3d7" data-original="#edebed" style="" class=""/></g>
    <circle cx="79.251" cy="118.5" fill="#81d4fa" r="68" data-original="#b3e59f" style=""
        class="" />
    <path
        d="m79.251 50.5c-5.157 0-10.172.593-15 1.681 30.335 6.833 53 33.92 53 66.319s-22.665 59.486-53 66.319c4.828 1.088 9.843 1.681 15 1.681 37.555 0 68-30.445 68-68s-30.445-68-68-68z"
        fill="#4fc3f7" data-original="#95d6a4" style="" class="" /></g><circle cx="214.251"
    cy="262.5" fill="#655e67" r="197" data-original="#655e67" style="" class="" /><circle
    cx="214.251" cy="262.5" fill="#ffffff" r="167" data-original="#ffffff" style="" class="" /><g><path d="m257.1 268h-42.989c-4.143 0-7.5-3.357-7.5-7.5s3.357-7.5 7.5-7.5h42.989c4.143 0 7.5 3.357 7.5 7.5s-3.357 7.5-7.5 7.5z" fill="#655e67" data-original="#655e67" style="" class=""/></g><path
    d="m214.251 95.5c-5.056 0-10.057.239-15 .681 85.082 7.611 152 79.291 152 166.319s-66.918 158.708-152 166.319c4.943.442 9.944.681 15 .681 92.084 0 167-74.916 167-167s-74.916-167-167-167z"
    fill="#d1d3d7" data-original="#edebed" style="" class="" /><g><path d="m206.751 262.5v-76c0-4.143 3.357-7.5 7.5-7.5s7.5 3.357 7.5 7.5v68.5z" fill="#655e67" data-original="#655e67" style="" class=""/></g><g><g><path d="m214.251 155c-4.143 0-7.5-3.357-7.5-7.5v-22c0-4.143 3.357-7.5 7.5-7.5s7.5 3.357 7.5 7.5v22c0 4.143-3.358 7.5-7.5 7.5z" fill="#655e67" data-original="#655e67" style="" class=""/></g>
    <g><path d="m214.251 407c-4.143 0-7.5-3.357-7.5-7.5v-22c0-4.143 3.357-7.5 7.5-7.5s7.5 3.357 7.5 7.5v22c0 4.143-3.358 7.5-7.5 7.5z" fill="#655e67" data-original="#655e67" style="" class=""/></g></g><g><g><path d="m117.376 366.874c-1.919 0-3.839-.732-5.304-2.196-2.929-2.93-2.929-7.678 0-10.607l15.557-15.557c2.93-2.928 7.678-2.928 10.607 0 2.929 2.93 2.929 7.678 0 10.607l-15.557 15.557c-1.464 1.464-3.384 2.196-5.303 2.196z" fill="#655e67" data-original="#655e67" style="" class=""/></g>
    <g><path d="m295.568 188.683c-1.919 0-3.839-.732-5.304-2.196-2.929-2.93-2.929-7.678 0-10.607l15.557-15.557c2.93-2.928 7.678-2.928 10.607 0 2.929 2.93 2.929 7.678 0 10.607l-15.557 15.557c-1.464 1.463-3.384 2.196-5.303 2.196z" fill="#655e67" data-original="#655e67" style="" class=""/></g></g><g><g><path d="m132.933 188.683c-1.919 0-3.839-.732-5.304-2.196l-15.557-15.557c-2.929-2.93-2.929-7.678 0-10.607 2.93-2.928 7.678-2.928 10.607 0l15.557 15.557c2.929 2.93 2.929 7.678 0 10.607-1.464 1.463-3.384 2.196-5.303 2.196z" fill="#655e67" data-original="#655e67" style="" class=""/></g>
    <g><path d="m311.125 366.874c-1.919 0-3.839-.732-5.304-2.196l-15.557-15.557c-2.929-2.93-2.929-7.678 0-10.607 2.93-2.928 7.678-2.928 10.607 0l15.557 15.557c2.929 2.93 2.929 7.678 0 10.607-1.465 1.464-3.385 2.196-5.303 2.196z" fill="#655e67" data-original="#655e67" style="" class=""/></g></g><circle
    cx="214.251" cy="260.5" fill="#81d4fa" r="15" data-original="#b3e59f" style="" class="" /><g><circle cx="406.041" cy="402.29" fill="#81d4fa" r="102.21" data-original="#b3e59f" style="" class=""/>
    <path
        d="m406.041 300.081c-5.096 0-10.104.378-15 1.098 49.337 7.257 87.21 49.759 87.21 101.111s-37.873 93.854-87.21 101.111c4.896.72 9.904 1.099 15 1.099 56.449 0 102.21-45.761 102.21-102.21s-45.761-102.209-102.21-102.209z"
        fill="#4fc3f7" data-original="#95d6a4" style="" class="" />
    <g><path d="m361.309 447.022c-10.468-10.468-10.468-27.44 0-37.909l51.556-51.556c10.468-10.468 27.44-10.468 37.909 0 10.468 10.468 10.468 27.44 0 37.909l-51.556 51.556c-10.469 10.469-27.441 10.469-37.909 0z" fill="#ffc300" data-original="#e5979d" style="" class=""/>
        <path
            d="m361.309 409.114c-10.468 10.468-10.468 27.44 0 37.909 10.468 10.468 27.44 10.468 37.909 0l25.778-25.778-37.909-37.909z"
            fill="#ffffff" data-original="#ffffff" style="" class="" /></g></g><g><path d="m241.251 15h-54c-4.143 0-7.5-3.357-7.5-7.5s3.357-7.5 7.5-7.5h54c4.143 0 7.5 3.357 7.5 7.5s-3.358 7.5-7.5 7.5z" fill="#d1d3d7" data-original="#e2dfe3" style="" class=""/></g><g><g><path d="m99.251 268h-22c-4.143 0-7.5-3.357-7.5-7.5s3.357-7.5 7.5-7.5h22c4.143 0 7.5 3.357 7.5 7.5s-3.358 7.5-7.5 7.5z" fill="#655e67" data-original="#655e67" style="" class=""/></g>
    <g><path d="m351.251 268h-22c-4.143 0-7.5-3.357-7.5-7.5s3.357-7.5 7.5-7.5h22c4.143 0 7.5 3.357 7.5 7.5s-3.358 7.5-7.5 7.5z" fill="#655e67" data-original="#655e67" style="" class=""/></g></g></g></g></svg>
