<svg width="28" height="40" viewBox="0 0 28 40" fill="none" xmlns="http://www.w3.org/2000/svg">
<path d="M21.0107 4.26911H25.6798V8.93815L21.0107 4.26911Z" fill="#FCB017"/>
<path d="M2.10815 37.6655V32.9964L6.77718 37.6655H2.10815Z" fill="#FCB017"/>
<path d="M27.791 40H0V2.15781H9.43421V3.0879H0.930088V39.0699H26.861V3.0879H18.3537V2.15781H27.791V40Z" fill="#130F3F"/>
<path d="M20.4 14.6024H13.8925C13.6352 14.6024 13.4275 14.3947 13.4275 14.1374C13.4275 13.88 13.6352 13.6723 13.8925 13.6723H20.4C20.6574 13.6723 20.8651 13.88 20.8651 14.1374C20.8651 14.3947 20.6574 14.6024 20.4 14.6024Z" fill="#130F3F"/>
<path d="M20.4 21.5439H13.8925C13.6352 21.5439 13.4275 21.3362 13.4275 21.0789C13.4275 20.8216 13.6352 20.6139 13.8925 20.6139H20.4C20.6574 20.6139 20.8651 20.8216 20.8651 21.0789C20.8651 21.3362 20.6574 21.5439 20.4 21.5439Z" fill="#130F3F"/>
<path d="M20.4 28.4855H13.8925C13.6352 28.4855 13.4275 28.2778 13.4275 28.0205C13.4275 27.7631 13.6352 27.5554 13.8925 27.5554H20.4C20.6574 27.5554 20.8651 27.7631 20.8651 28.0205C20.8651 28.2778 20.6574 28.4855 20.4 28.4855Z" fill="#130F3F"/>
<path d="M17.5695 6.91055C16.9432 6.91055 16.4099 6.44242 16.3293 5.82236L16.3169 5.72625C16.1681 4.59155 15.1946 3.73895 14.0537 3.73895C12.9097 3.73895 11.9362 4.59465 11.7874 5.72625L11.775 5.82236C11.6944 6.44242 11.1611 6.91055 10.5349 6.91055H10.2186C9.53036 6.91055 8.96924 6.34941 8.96924 5.66114V1.07271C8.96924 0.480552 9.44977 0 10.0419 0H17.7493C18.3414 0 18.8219 0.480552 18.8219 1.07271V5.66114C18.8188 6.34941 18.2577 6.91055 17.5695 6.91055ZM14.0506 2.80576C15.6596 2.80576 17.03 4.00869 17.2377 5.60534L17.2501 5.70145C17.2718 5.85956 17.4082 5.98046 17.5663 5.98046C17.7431 5.98046 17.8856 5.83786 17.8856 5.66114V1.07271C17.8856 0.995201 17.8206 0.930088 17.743 0.930088H10.0357C9.95821 0.930088 9.89312 0.995201 9.89312 1.07271V5.66114C9.89312 5.83786 10.0357 5.98046 10.2124 5.98046H10.5287C10.6899 5.98046 10.8263 5.85956 10.8449 5.70145L10.8573 5.60534C11.0743 4.00869 12.4446 2.80576 14.0506 2.80576Z" fill="#130F3F"/>
<path d="M7.44392 22.719L5.93408 21.2091L6.59134 20.5518L7.4253 21.3858L9.518 19.166L10.197 19.8047L7.44392 22.719Z" fill="#130F3F"/>
<path d="M8.81828 12.3647L5.92896 15.254L6.58662 15.9116L9.47595 13.0223L8.81828 12.3647Z" fill="#130F3F"/>
<path d="M6.58662 12.3647L5.92896 13.0223L8.8183 15.9117L9.47596 15.254L6.58662 12.3647Z" fill="#130F3F"/>
<path d="M8.81902 26.2473L5.92969 29.1367L6.58735 29.7943L9.47668 26.905L8.81902 26.2473Z" fill="#130F3F"/>
<path d="M6.58784 26.259L5.93018 26.9167L8.81953 29.806L9.4772 29.1484L6.58784 26.259Z" fill="#130F3F"/>
</svg>
