<svg width="28" height="40" viewBox="0 0 28 40" fill="none" xmlns="http://www.w3.org/2000/svg">
<path d="M5.74823 15.9478H2.05192C1.79732 15.9478 1.5918 15.7423 1.5918 15.4877C1.5918 15.2331 1.79732 15.0276 2.05192 15.0276H5.74823C6.00283 15.0276 6.20835 15.2331 6.20835 15.4877C6.20835 15.7423 6.00283 15.9478 5.74823 15.9478Z" fill="#130F3F"/>
<path d="M4.58566 13.1932H2.05192C1.79732 13.1932 1.5918 12.9877 1.5918 12.7331C1.5918 12.4785 1.79732 12.273 2.05192 12.273H4.58566C4.84026 12.273 5.04578 12.4785 5.04578 12.7331C5.04578 12.9877 4.84026 13.1932 4.58566 13.1932Z" fill="#130F3F"/>
<path d="M5.74823 10.4386H2.05192C1.79732 10.4386 1.5918 10.2331 1.5918 9.97852C1.5918 9.72392 1.79732 9.5184 2.05192 9.5184H5.74823C6.00283 9.5184 6.20835 9.72392 6.20835 9.97852C6.20835 10.2331 6.00283 10.4386 5.74823 10.4386Z" fill="#130F3F"/>
<path d="M5.74823 4.92946H2.05192C1.79732 4.92946 1.5918 4.72394 1.5918 4.46934C1.5918 4.21474 1.79732 4.00922 2.05192 4.00922H5.74823C6.00283 4.00922 6.20835 4.21474 6.20835 4.46934C6.20835 4.72394 6.00283 4.92946 5.74823 4.92946Z" fill="#130F3F"/>
<path d="M7.14111 39.9939C4.05215 39.9939 1.53988 37.4816 1.53988 34.3926V4.87734C0.659514 4.66875 0 3.87424 0 2.92946V0.460122C0 0.205521 0.205521 0 0.460122 0H13.8221C14.0767 0 14.2822 0.205521 14.2822 0.460122V2.92946C14.2822 3.87424 13.6227 4.66875 12.7423 4.87734V34.3926C12.7423 37.4816 10.2301 39.9939 7.14111 39.9939ZM0.920244 0.920244V2.92946C0.920244 3.52455 1.40491 4.00922 2 4.00922C2.2546 4.00922 2.46013 4.21474 2.46013 4.46934V34.3926C2.46013 36.9724 4.56135 39.0736 7.14111 39.0736C9.72086 39.0736 11.8221 36.9724 11.8221 34.3926V4.46934C11.8221 4.21474 12.0276 4.00922 12.2822 4.00922C12.8773 4.00922 13.3619 3.52455 13.3619 2.92946V0.920244H0.920244Z" fill="#130F3F"/>
<path d="M21.2913 13.7792H18.5275C18.2729 13.7792 18.0674 13.5737 18.0674 13.3191C18.0674 13.0645 18.2729 12.8589 18.5275 12.8589H21.2913C21.5459 12.8589 21.7514 13.0645 21.7514 13.3191C21.7514 13.5737 21.5459 13.7792 21.2913 13.7792Z" fill="#130F3F"/>
<path d="M22.3345 40C19.9603 40 18.0308 38.0705 18.0308 35.6963V13.7178C17.3652 13.5184 16.8774 12.9019 16.8774 12.1718V10.3252C16.8774 10.0706 17.083 9.86507 17.3376 9.86507H27.3314C27.586 9.86507 27.7915 10.0706 27.7915 10.3252V12.1718C27.7915 12.9019 27.3038 13.5214 26.6382 13.7178V35.6963C26.6382 38.0705 24.7087 40 22.3345 40ZM17.7977 10.7853V12.1718C17.7977 12.5553 18.1075 12.8651 18.4909 12.8651C18.7455 12.8651 18.9511 13.0706 18.9511 13.3252V35.6963C18.9511 37.5613 20.4695 39.0798 22.3345 39.0798C24.1995 39.0798 25.7179 37.5613 25.7179 35.6963V13.3252C25.7179 13.0706 25.9234 12.8651 26.178 12.8651C26.5615 12.8651 26.8713 12.5553 26.8713 12.1718V10.7853H17.7977Z" fill="#130F3F"/>
<path d="M20.3281 24.6104V35.6902C20.3281 36.7945 21.2269 37.6932 22.3312 37.6932C23.4355 37.6932 24.3343 36.7945 24.3343 35.6902V23.6165C23.4907 24.2944 22.4232 24.6994 21.2576 24.6994C20.9416 24.7024 20.6318 24.6687 20.3281 24.6104Z" fill="#FCB017"/>
</svg>
