<svg xmlns="http://www.w3.org/2000/svg" width="26.104" height="32" viewBox="0 0 26.104 32">
  <g id="Head" transform="translate(-6.389 -0.6)">
    <g id="Group_1329" data-name="Group 1329" transform="translate(6.389 0.6)">
      <g id="Group_1326" data-name="Group 1326" transform="translate(16.307 19.615)">
        <path id="Path_667" data-name="Path 667" d="M51.5,57.357l-3.772,1.58a.506.506,0,0,1-.663-.255L46.1,56.337,50.79,54.4l.969,2.345A.466.466,0,0,1,51.5,57.357Z" transform="translate(-42.165 -46.591)" fill="#b0bec5"/>
        <path id="Path_668" data-name="Path 668" d="M49.691,52.1l-5.658,2.345a.506.506,0,0,1-.663-.255l-.408-.918a.506.506,0,0,1,.255-.663l5.658-2.345a.506.506,0,0,1,.663.255l.408.918A.438.438,0,0,1,49.691,52.1Z" transform="translate(-40.608 -44.543)" fill="#b0bec5"/>
        <g id="Group_1325" data-name="Group 1325">
          <path id="Path_669" data-name="Path 669" d="M47.158,45.545,46.19,43.2,41.5,45.137l.969,2.345a.467.467,0,0,0,.663.255l3.772-1.58A.407.407,0,0,0,47.158,45.545Z" transform="translate(-39.91 -41.1)" fill="#b0bec5"/>
          <path id="Path_670" data-name="Path 670" d="M45.425,40.314l-.408-.918a.467.467,0,0,0-.663-.255L38.7,41.435a.467.467,0,0,0-.255.663l.408.918a.467.467,0,0,0,.663.255l5.658-2.345A.435.435,0,0,0,45.425,40.314Z" transform="translate(-38.38 -39.08)" fill="#b0bec5"/>
        </g>
      </g>
      <g id="Group_1328" data-name="Group 1328">
        <path id="Path_671" data-name="Path 671" d="M6.752,10.232l-.357,5.862a1.233,1.233,0,0,0,.765,1.274l1.631.663a1.272,1.272,0,0,1,.153,2.294l-.918.51v5.913a2.5,2.5,0,0,0,3.16,2.447l5.607-1.427a2.654,2.654,0,0,0,1.682-1.376L20.82,21.5a2.551,2.551,0,0,1,2.294-1.427h1.733a7.636,7.636,0,0,0,7.646-7.646V10.895A10.225,10.225,0,0,0,22.3.7H16.946A10.206,10.206,0,0,0,6.752,10.232Z" transform="translate(-6.389 -0.649)" fill="#cfd8dc"/>
        <path id="Path_672" data-name="Path 672" d="M9.555,26.648V20.786l.918-.51a1.258,1.258,0,0,0-.153-2.294L8.689,17.32a1.344,1.344,0,0,1-.816-1.274l.357-5.862A10.25,10.25,0,0,1,18.425.6H16.9A10.213,10.213,0,0,0,6.7,10.183l-.306,5.862a1.233,1.233,0,0,0,.765,1.274l1.631.663a1.272,1.272,0,0,1,.153,2.294l-.918.51V26.7a2.5,2.5,0,0,0,3.16,2.447l.153-.051A2.54,2.54,0,0,1,9.555,26.648Z" transform="translate(-6.389 -0.6)" fill="#eceff1"/>
        <g id="Group_1327" data-name="Group 1327" transform="translate(3.472 0.051)">
          <path id="Path_673" data-name="Path 673" d="M22.681,40.173l-2.345,4.894a2.559,2.559,0,0,1-1.682,1.376L13.2,47.87a2.511,2.511,0,0,0,1.376.051l5.607-1.427a2.654,2.654,0,0,0,1.682-1.376l2.345-4.894A2.551,2.551,0,0,1,26.5,38.8H24.975A2.372,2.372,0,0,0,22.681,40.173Z" transform="translate(-13.2 -19.376)" fill="#b0bec5"/>
          <path id="Path_674" data-name="Path 674" d="M36.129.7H34.6A10.225,10.225,0,0,1,44.795,10.895v1.529a7.636,7.636,0,0,1-7.646,7.646h1.529a7.636,7.636,0,0,0,7.646-7.646V10.895A10.16,10.16,0,0,0,36.129.7Z" transform="translate(-23.691 -0.7)" fill="#b0bec5"/>
        </g>
        <path id="Path_675" data-name="Path 675" d="M16.227,45.719H9.6V44.7h6.627a.482.482,0,0,1,.51.51h0A.482.482,0,0,1,16.227,45.719Z" transform="translate(-7.963 -22.22)" fill="#b0bec5"/>
        <path id="Path_676" data-name="Path 676" d="M8.08,15.7a3.287,3.287,0,0,0-1.019.153,6.855,6.855,0,0,0-.255,1.784L6.5,22.48a3.277,3.277,0,0,0,1.58.357,3.568,3.568,0,1,0,0-7.136Z" transform="translate(-6.444 -8.003)" fill="#b0bec5"/>
        <path id="Path_677" data-name="Path 677" d="M30.719,26.8l-5.25.561a1.269,1.269,0,0,0-1.07.867l-1.121,3.568a.515.515,0,0,0,.867.51l2.7-2.7a2.133,2.133,0,0,1,.918-.561l3.262-1.223A.543.543,0,0,0,30.719,26.8Z" transform="translate(-14.657 -13.443)" fill="#b0bec5"/>
      </g>
    </g>
  </g>
</svg>
