<svg id="Pill_Bottle" xmlns="http://www.w3.org/2000/svg" width="23.333" height="32" viewBox="0 0 23.333 32">
  <g id="Group_1479" data-name="Group 1479" transform="translate(0 0)">
    <g id="Group_1476" data-name="Group 1476">
      <path id="Path_1004" data-name="Path 1004" d="M26.723,35.1H11.532A2.524,2.524,0,0,1,9,32.538V18.94a5.207,5.207,0,0,1,2.38-4.362l.456-.308a2.526,2.526,0,0,0,1.215-2.155V11.5H25.2v.616a2.526,2.526,0,0,0,1.215,2.155l.456.308a5.141,5.141,0,0,1,2.38,4.362v13.6A2.524,2.524,0,0,1,26.723,35.1Z" transform="translate(-9 -6.183)" fill="#81d4fa"/>
      <path id="Path_1005" data-name="Path 1005" d="M41.233,14.679l-.513-.308a2.471,2.471,0,0,1-1.18-2.155V11.6H38v.616a2.588,2.588,0,0,0,1.18,2.155l.513.308a5.125,5.125,0,0,1,2.412,4.362v13.6A2.541,2.541,0,0,1,39.539,35.2h1.539a2.541,2.541,0,0,0,2.566-2.566V18.989A5.1,5.1,0,0,0,41.233,14.679Z" transform="translate(-23.39 -6.232)" fill="#4fc3f7"/>
      <path id="Path_1006" data-name="Path 1006" d="M11.412,14.679l.513-.308a2.471,2.471,0,0,0,1.18-2.155V11.6h1.539v.616a2.588,2.588,0,0,1-1.18,2.155l-.513.308a5.125,5.125,0,0,0-2.412,4.362v13.6A2.541,2.541,0,0,0,13.105,35.2H11.566A2.541,2.541,0,0,1,9,32.638V18.989A5.1,5.1,0,0,1,11.412,14.679Z" transform="translate(-9 -6.232)" fill="#b3e5fc"/>
      <path id="Path_1007" data-name="Path 1007" d="M27.838,6.144H16.259A1.259,1.259,0,0,1,15,4.862V1.783A1.259,1.259,0,0,1,16.259.5h11.58A1.259,1.259,0,0,1,29.1,1.783V4.862A1.259,1.259,0,0,1,27.838,6.144Z" transform="translate(-11.921 -0.5)" fill="#34444c"/>
      <path id="Path_1008" data-name="Path 1008" d="M39.039.5H37.5a1.27,1.27,0,0,1,1.283,1.283V4.862A1.27,1.27,0,0,1,37.5,6.144h1.539a1.27,1.27,0,0,0,1.283-1.283V1.783A1.27,1.27,0,0,0,39.039.5Z" transform="translate(-23.098 -0.5)" fill="#1b2428"/>
      <path id="Path_1009" data-name="Path 1009" d="M16.283.5h1.539a1.27,1.27,0,0,0-1.283,1.283V4.862a1.27,1.27,0,0,0,1.283,1.283H16.283A1.27,1.27,0,0,1,15,4.862V1.783A1.27,1.27,0,0,1,16.283.5Z" transform="translate(-11.927 -0.5)" fill="#6b777c"/>
      <path id="Path_1010" data-name="Path 1010" d="M36.513,6.105h0A.485.485,0,0,1,36,5.592V2.513A.485.485,0,0,1,36.513,2h0a.485.485,0,0,1,.513.513V5.592A.485.485,0,0,1,36.513,6.105Z" transform="translate(-22.337 -1.23)" fill="#6b777c"/>
      <path id="Path_1011" data-name="Path 1011" d="M32.513,6.105h0A.485.485,0,0,1,32,5.592V2.513A.485.485,0,0,1,32.513,2h0a.485.485,0,0,1,.513.513V5.592A.485.485,0,0,1,32.513,6.105Z" transform="translate(-20.361 -1.23)" fill="#6b777c"/>
      <path id="Path_1012" data-name="Path 1012" d="M28.513,6.105h0A.485.485,0,0,1,28,5.592V2.513A.485.485,0,0,1,28.513,2h0a.485.485,0,0,1,.513.513V5.592A.485.485,0,0,1,28.513,6.105Z" transform="translate(-18.385 -1.23)" fill="#6b777c"/>
      <path id="Path_1013" data-name="Path 1013" d="M24.513,6.105h0A.485.485,0,0,1,24,5.592V2.513A.485.485,0,0,1,24.513,2h0a.485.485,0,0,1,.513.513V5.592A.485.485,0,0,1,24.513,6.105Z" transform="translate(-16.409 -1.23)" fill="#6b777c"/>
      <path id="Path_1014" data-name="Path 1014" d="M20.513,6.105h0A.485.485,0,0,1,20,5.592V2.513A.485.485,0,0,1,20.513,2h0a.485.485,0,0,1,.513.513V5.592A.485.485,0,0,1,20.513,6.105Z" transform="translate(-14.434 -1.23)" fill="#6b777c"/>
      <path id="Path_1015" data-name="Path 1015" d="M36.341,37.763H23.513A.485.485,0,0,1,23,37.25V28.013a.485.485,0,0,1,.513-.513H36.341Z" transform="translate(-16.087 -13.884)" fill="#fafafa"/>
      <rect id="Rectangle_919" data-name="Rectangle 919" width="1.963" height="10.795" transform="translate(18.375 13.427)" fill="#eceff1"/>
      <path id="Path_1016" data-name="Path 1016" d="M35.671,33.066H33.618V31.013a.485.485,0,0,0-.513-.513H32.079a.485.485,0,0,0-.513.513v2.053H29.513a.485.485,0,0,0-.513.513v1.026a.485.485,0,0,0,.513.513h2.053v2.053a.485.485,0,0,0,.513.513h1.026a.485.485,0,0,0,.513-.513V35.118h2.053a.485.485,0,0,0,.513-.513V33.579A.485.485,0,0,0,35.671,33.066Z" transform="translate(-18.944 -15.334)" fill="#f72250"/>
    </g>
    <g id="Group_1477" data-name="Group 1477" transform="translate(14.097 27.382)">
      <path id="Path_1017" data-name="Path 1017" d="M41.618,57.579H38.539A1.512,1.512,0,0,1,37,56.039h0A1.512,1.512,0,0,1,38.539,54.5h3.079Z" transform="translate(-37 -54.5)" fill="#f72250"/>
      <path id="Path_1018" data-name="Path 1018" d="M37.513,56.039A1.512,1.512,0,0,1,39.053,54.5h-.513a1.539,1.539,0,0,0,0,3.079h.513A1.512,1.512,0,0,1,37.513,56.039Z" transform="translate(-37 -54.5)" fill="#f95e7f"/>
      <path id="Path_1019" data-name="Path 1019" d="M49.079,57.579H46V54.5h3.079a1.512,1.512,0,0,1,1.539,1.539h0A1.512,1.512,0,0,1,49.079,57.579Z" transform="translate(-41.382 -54.5)" fill="#ffc300"/>
      <path id="Path_1020" data-name="Path 1020" d="M52.539,56.039A1.512,1.512,0,0,1,51,57.579h.513a1.539,1.539,0,0,0,0-3.079H51A1.512,1.512,0,0,1,52.539,56.039Z" transform="translate(-43.816 -54.5)" fill="#d1a000"/>
    </g>
    <g id="Group_1478" data-name="Group 1478" transform="translate(9.566 28.921)">
      <path id="Path_1021" data-name="Path 1021" d="M32.618,60.579H29.539A1.512,1.512,0,0,1,28,59.039h0A1.512,1.512,0,0,1,29.539,57.5h3.079Z" transform="translate(-28 -57.5)" fill="#f72250"/>
      <path id="Path_1022" data-name="Path 1022" d="M28.513,59.039A1.512,1.512,0,0,1,30.053,57.5h-.513a1.539,1.539,0,1,0,0,3.079h.513A1.512,1.512,0,0,1,28.513,59.039Z" transform="translate(-28 -57.5)" fill="#f95e7f"/>
      <path id="Path_1023" data-name="Path 1023" d="M40.079,60.579H37V57.5h3.079a1.512,1.512,0,0,1,1.539,1.539h0A1.512,1.512,0,0,1,40.079,60.579Z" transform="translate(-32.382 -57.5)" fill="#ffc300"/>
      <path id="Path_1024" data-name="Path 1024" d="M43.539,59.039A1.512,1.512,0,0,1,42,60.579h.513a1.539,1.539,0,0,0,0-3.079H42A1.512,1.512,0,0,1,43.539,59.039Z" transform="translate(-34.816 -57.5)" fill="#d1a000"/>
    </g>
  </g>
</svg>
