<?xml version="1.0"?>
<svg xmlns="http://www.w3.org/2000/svg" xmlns:xlink="http://www.w3.org/1999/xlink" xmlns:svgjs="http://svgjs.com/svgjs" version="1.1" width="512" height="512" x="0" y="0" viewBox="0 0 512 512" style="enable-background:new 0 0 512 512" xml:space="preserve" class=""><g><g xmlns="http://www.w3.org/2000/svg"><g><path d="m111.672 20.604v298.659h297.228v-298.659c0-11.379-9.225-20.604-20.604-20.604h-256.021c-11.379 0-20.603 9.225-20.603 20.604z" fill="#e9efff" data-original="#e9efff" style="" class=""/></g><g><path d="m153.621 0h-21.345c-11.379 0-20.604 9.225-20.604 20.604v298.659h21.345v-298.659c0-11.379 9.225-20.604 20.604-20.604z" fill="#d3dcfb" data-original="#d3dcfb" style="" class=""/></g><g><g><path d="m439.001 512h-366.002c-11.379 0-20.604-9.225-20.604-20.604v-240.547c0-11.379 9.225-20.604 20.604-20.604h92.671c5.246 0 10.405 1.335 14.992 3.88l53.881 29.889c4.587 2.545 9.746 3.88 14.992 3.88h189.467c11.379 0 20.604 9.225 20.604 20.604v202.899c-.001 11.378-9.226 20.603-20.605 20.603z" fill="#81d4fa" data-original="#b3e59f" style="" class=""/></g></g><g><g><path d="m73.74 491.396v-240.547c0-11.379 9.225-20.604 20.604-20.604h-21.345c-11.379 0-20.604 9.225-20.604 20.604v240.547c0 11.379 9.225 20.604 20.604 20.604h21.345c-11.379 0-20.604-9.225-20.604-20.604z" fill="#4fc3f7" data-original="#95d6a4" style="" class=""/></g></g><g><path d="m344.884 182.96h-124.034c-4.267 0-7.726-3.459-7.726-7.726s3.459-7.726 7.726-7.726h124.034c4.267 0 7.726 3.459 7.726 7.726s-3.459 7.726-7.726 7.726z" fill="#bac5e2" data-original="#bac5e2" style="" class=""/></g><g><path d="m344.884 212.526h-124.034c-4.267 0-7.726-3.459-7.726-7.726s3.459-7.726 7.726-7.726h124.034c4.267 0 7.726 3.459 7.726 7.726s-3.459 7.726-7.726 7.726z" fill="#bac5e2" data-original="#bac5e2" style="" class=""/></g><g><path d="m188.132 182.96h-9.89c-4.267 0-7.726-3.459-7.726-7.726s3.459-7.726 7.726-7.726h9.89c4.267 0 7.726 3.459 7.726 7.726s-3.459 7.726-7.726 7.726z" fill="#bac5e2" data-original="#bac5e2" style="" class=""/></g><g><path d="m188.132 212.526h-9.89c-4.267 0-7.726-3.459-7.726-7.726s3.459-7.726 7.726-7.726h9.89c4.267 0 7.726 3.459 7.726 7.726s-3.459 7.726-7.726 7.726z" fill="#bac5e2" data-original="#bac5e2" style="" class=""/></g><g><path d="m296.342 133.563v-11.445c0-11.538-9.354-20.892-20.892-20.892h-30.329c-11.538 0-20.892 9.354-20.892 20.892v11.445c0 5.547 4.497 10.044 10.044 10.044h52.024c5.548 0 10.045-4.497 10.045-10.044z" fill="#4fc3f7" data-original="#e5979d" style="" class=""/></g><g><circle cx="260.286" cy="52.024" fill="#4fc3f7" r="22.005" data-original="#e5979d" style="" class=""/></g><g><circle cx="256" cy="386.249" fill="#e9efff" r="72.693" data-original="#e9efff" style="" class=""/></g><path d="m200.587 386.249c0-37.222 27.982-67.89 64.053-72.165-2.835-.336-5.714-.529-8.64-.529-40.147 0-72.693 32.546-72.693 72.693s32.546 72.693 72.693 72.693c2.926 0 5.805-.193 8.64-.529-36.072-4.273-64.053-34.941-64.053-72.163z" fill="#d3dcfb" data-original="#d3dcfb" style="" class=""/><g><path d="m285.051 373.051h-11.78c-2.25 0-4.073-1.824-4.073-4.073v-11.78c0-5.735-4.649-10.384-10.384-10.384h-5.628c-5.735 0-10.384 4.649-10.384 10.384v11.78c0 2.25-1.824 4.073-4.073 4.073h-11.78c-5.735 0-10.384 4.649-10.384 10.384v5.628c0 5.735 4.649 10.384 10.384 10.384h11.78c2.25 0 4.073 1.824 4.073 4.073v11.78c0 5.735 4.649 10.384 10.384 10.384h5.628c5.735 0 10.384-4.649 10.384-10.384v-11.78c0-2.25 1.824-4.073 4.073-4.073h11.78c5.735 0 10.384-4.649 10.384-10.384v-5.628c0-5.735-4.649-10.384-10.384-10.384z" fill="#81d4fa" data-original="#b3e59f" style="" class=""/></g></g></g></svg>
