<svg xmlns="http://www.w3.org/2000/svg" xmlns:xlink="http://www.w3.org/1999/xlink" width="250" zoomAndPan="magnify" viewBox="0 0 187.5 187.499992" height="250" preserveAspectRatio="xMidYMid meet" version="1.0"><defs><clipPath id="id1"><path d="M 109 0 L 187 0 L 187 69 L 109 69 Z M 109 0 " clip-rule="nonzero"/></clipPath><clipPath id="id2"><path d="M 1 99 L 63 99 L 63 185.25 L 1 185.25 Z M 1 99 " clip-rule="nonzero"/></clipPath><clipPath id="id3"><path d="M 40 36 L 187 36 L 187 185.25 L 40 185.25 Z M 40 36 " clip-rule="nonzero"/></clipPath></defs><path fill="#5ce1e6" d="M 8.777344 146.550781 C 8.082031 145.445312 7.457031 144.300781 6.910156 143.113281 C 6.359375 141.929688 5.890625 140.710938 5.496094 139.464844 C 5.105469 138.21875 4.792969 136.953125 4.566406 135.667969 C 4.335938 134.378906 4.191406 133.085938 4.128906 131.78125 C 4.066406 130.472656 4.089844 129.171875 4.195312 127.867188 C 4.300781 126.566406 4.492188 125.277344 4.761719 124 C 5.035156 122.71875 5.390625 121.464844 5.824219 120.234375 C 6.257812 119 6.769531 117.800781 7.359375 116.636719 C 7.878906 115.5625 8.46875 114.53125 9.125 113.535156 C 9.78125 112.542969 10.5 111.59375 11.277344 110.691406 C 12.058594 109.792969 12.894531 108.945312 13.785156 108.15625 C 14.675781 107.363281 15.613281 106.632812 16.597656 105.964844 C 17.585938 105.292969 18.609375 104.691406 19.675781 104.15625 C 20.738281 103.621094 21.835938 103.15625 22.960938 102.765625 C 24.085938 102.371094 25.230469 102.054688 26.398438 101.8125 C 27.566406 101.570312 28.742188 101.40625 29.933594 101.316406 C 30.644531 101.265625 31.371094 101.242188 32.097656 101.242188 C 32.820312 101.242188 33.546875 101.265625 34.261719 101.316406 C 35.449219 101.40625 36.628906 101.570312 37.792969 101.8125 C 38.960938 102.054688 40.109375 102.371094 41.234375 102.765625 C 42.359375 103.15625 43.453125 103.621094 44.519531 104.15625 C 45.582031 104.691406 46.609375 105.292969 47.59375 105.964844 C 48.582031 106.632812 49.519531 107.363281 50.410156 108.15625 C 51.300781 108.945312 52.136719 109.792969 52.914062 110.691406 C 53.695312 111.59375 54.414062 112.542969 55.070312 113.535156 C 55.726562 114.53125 56.3125 115.5625 56.832031 116.636719 C 57.421875 117.800781 57.933594 119 58.371094 120.234375 C 58.804688 121.464844 59.15625 122.71875 59.429688 124 C 59.703125 125.277344 59.894531 126.566406 60 127.867188 C 60.105469 129.171875 60.128906 130.472656 60.066406 131.78125 C 60.003906 133.085938 59.859375 134.378906 59.628906 135.667969 C 59.398438 136.953125 59.089844 138.21875 58.695312 139.464844 C 58.304688 140.710938 57.832031 141.929688 57.285156 143.113281 C 56.734375 144.300781 56.113281 145.445312 55.414062 146.550781 L 32.097656 183.097656 Z M 8.777344 146.550781 " fill-opacity="1" fill-rule="nonzero"/><path fill="#5ce1e6" d="M 111.859375 2.152344 L 185.152344 2.152344 L 185.152344 66.777344 L 111.859375 66.777344 Z M 111.859375 2.152344 " fill-opacity="1" fill-rule="nonzero"/><path fill="#f7f8f9" d="M 111.859375 2.152344 L 137.726562 2.152344 L 137.726562 19.386719 L 111.859375 19.386719 Z M 111.859375 2.152344 " fill-opacity="1" fill-rule="nonzero"/><path fill="#f7f8f9" d="M 159.285156 2.152344 L 185.152344 2.152344 L 185.152344 19.386719 L 159.285156 19.386719 Z M 159.285156 2.152344 " fill-opacity="1" fill-rule="nonzero"/><path fill="#f7f8f9" d="M 45.03125 129.246094 C 45.03125 130.09375 44.949219 130.933594 44.78125 131.765625 C 44.617188 132.597656 44.371094 133.40625 44.046875 134.191406 C 43.722656 134.972656 43.324219 135.71875 42.851562 136.425781 C 42.378906 137.128906 41.84375 137.78125 41.242188 138.382812 C 40.640625 138.984375 39.988281 139.519531 39.28125 139.992188 C 38.578125 140.460938 37.832031 140.859375 37.046875 141.183594 C 36.261719 141.507812 35.453125 141.753906 34.621094 141.921875 C 33.789062 142.085938 32.945312 142.167969 32.097656 142.167969 C 31.246094 142.167969 30.40625 142.085938 29.574219 141.921875 C 28.742188 141.753906 27.933594 141.507812 27.148438 141.183594 C 26.363281 140.859375 25.617188 140.460938 24.910156 139.992188 C 24.203125 139.519531 23.550781 138.984375 22.949219 138.382812 C 22.351562 137.78125 21.8125 137.128906 21.34375 136.425781 C 20.871094 135.71875 20.472656 134.972656 20.148438 134.191406 C 19.820312 133.40625 19.578125 132.597656 19.410156 131.765625 C 19.246094 130.933594 19.164062 130.09375 19.164062 129.246094 C 19.164062 128.394531 19.246094 127.554688 19.410156 126.722656 C 19.578125 125.890625 19.820312 125.082031 20.148438 124.296875 C 20.472656 123.515625 20.871094 122.769531 21.34375 122.0625 C 21.8125 121.359375 22.351562 120.707031 22.949219 120.105469 C 23.550781 119.503906 24.203125 118.96875 24.910156 118.496094 C 25.617188 118.027344 26.363281 117.628906 27.148438 117.304688 C 27.933594 116.980469 28.742188 116.734375 29.574219 116.566406 C 30.40625 116.402344 31.246094 116.320312 32.097656 116.320312 C 32.945312 116.320312 33.789062 116.402344 34.621094 116.566406 C 35.453125 116.734375 36.261719 116.980469 37.046875 117.304688 C 37.832031 117.628906 38.578125 118.027344 39.28125 118.496094 C 39.988281 118.96875 40.640625 119.503906 41.242188 120.105469 C 41.84375 120.707031 42.378906 121.359375 42.851562 122.0625 C 43.324219 122.769531 43.722656 123.515625 44.046875 124.296875 C 44.371094 125.082031 44.617188 125.890625 44.78125 126.722656 C 44.949219 127.554688 45.03125 128.394531 45.03125 129.246094 Z M 45.03125 129.246094 " fill-opacity="1" fill-rule="nonzero"/><path fill="#f7f8f9" d="M 42.875 183.097656 L 49.34375 174.480469 L 166.828125 174.480469 C 167.464844 174.480469 168.097656 174.417969 168.722656 174.292969 C 169.34375 174.167969 169.953125 173.984375 170.539062 173.742188 C 171.128906 173.5 171.6875 173.199219 172.21875 172.847656 C 172.746094 172.492188 173.238281 172.089844 173.6875 171.640625 C 174.136719 171.191406 174.539062 170.699219 174.894531 170.171875 C 175.25 169.640625 175.546875 169.082031 175.789062 168.496094 C 176.035156 167.90625 176.21875 167.300781 176.34375 166.675781 C 176.46875 166.054688 176.527344 165.421875 176.527344 164.785156 C 176.527344 164.148438 176.46875 163.519531 176.34375 162.894531 C 176.21875 162.269531 176.035156 161.664062 175.789062 161.078125 C 175.546875 160.488281 175.25 159.929688 174.894531 159.402344 C 174.539062 158.871094 174.136719 158.382812 173.6875 157.933594 C 173.238281 157.480469 172.746094 157.082031 172.21875 156.726562 C 171.6875 156.371094 171.128906 156.074219 170.539062 155.832031 C 169.953125 155.585938 169.34375 155.402344 168.722656 155.277344 C 168.097656 155.15625 167.464844 155.09375 166.828125 155.09375 L 95.691406 155.09375 C 95.019531 155.09375 94.351562 155.058594 93.683594 154.996094 C 93.015625 154.929688 92.351562 154.832031 91.695312 154.699219 C 91.035156 154.570312 90.386719 154.40625 89.746094 154.210938 C 89.101562 154.015625 88.472656 153.792969 87.851562 153.535156 C 87.234375 153.277344 86.628906 152.992188 86.035156 152.675781 C 85.445312 152.359375 84.871094 152.015625 84.3125 151.644531 C 83.753906 151.273438 83.214844 150.875 82.699219 150.449219 C 82.179688 150.023438 81.683594 149.574219 81.210938 149.097656 C 80.734375 148.625 80.285156 148.128906 79.859375 147.613281 C 79.433594 147.09375 79.035156 146.554688 78.664062 146 C 78.289062 145.441406 77.945312 144.867188 77.628906 144.277344 C 77.3125 143.683594 77.027344 143.078125 76.769531 142.460938 C 76.511719 141.839844 76.289062 141.210938 76.09375 140.570312 C 75.898438 139.929688 75.734375 139.277344 75.605469 138.621094 C 75.472656 137.964844 75.375 137.300781 75.308594 136.636719 C 75.242188 135.96875 75.210938 135.300781 75.210938 134.628906 C 75.210938 133.960938 75.242188 133.289062 75.308594 132.625 C 75.375 131.957031 75.472656 131.292969 75.605469 130.636719 C 75.734375 129.980469 75.898438 129.332031 76.09375 128.6875 C 76.289062 128.046875 76.511719 127.417969 76.769531 126.796875 C 77.027344 126.179688 77.3125 125.574219 77.628906 124.984375 C 77.945312 124.390625 78.289062 123.816406 78.664062 123.261719 C 79.035156 122.703125 79.433594 122.164062 79.859375 121.648438 C 80.285156 121.128906 80.734375 120.632812 81.210938 120.160156 C 81.683594 119.683594 82.179688 119.234375 82.699219 118.8125 C 83.214844 118.386719 83.753906 117.988281 84.3125 117.613281 C 84.871094 117.242188 85.445312 116.898438 86.035156 116.582031 C 86.628906 116.265625 87.234375 115.980469 87.851562 115.722656 C 88.472656 115.46875 89.101562 115.242188 89.746094 115.046875 C 90.386719 114.851562 91.035156 114.691406 91.695312 114.558594 C 92.351562 114.429688 93.015625 114.328125 93.683594 114.265625 C 94.351562 114.199219 95.019531 114.164062 95.691406 114.164062 L 139.882812 114.164062 C 140.730469 114.164062 141.574219 114.082031 142.40625 113.917969 C 143.238281 113.75 144.046875 113.507812 144.832031 113.183594 C 145.617188 112.855469 146.363281 112.457031 147.066406 111.988281 C 147.773438 111.515625 148.425781 110.980469 149.027344 110.378906 C 149.628906 109.78125 150.164062 109.128906 150.636719 108.421875 C 151.109375 107.714844 151.507812 106.972656 151.832031 106.1875 C 152.15625 105.402344 152.402344 104.59375 152.566406 103.761719 C 152.734375 102.929688 152.816406 102.089844 152.816406 101.242188 C 152.816406 100.394531 152.734375 99.550781 152.566406 98.71875 C 152.402344 97.886719 152.15625 97.078125 151.832031 96.296875 C 151.507812 95.511719 151.109375 94.765625 150.636719 94.0625 C 150.164062 93.355469 149.628906 92.703125 149.027344 92.101562 C 148.425781 91.503906 147.773438 90.964844 147.066406 90.496094 C 146.363281 90.023438 145.617188 89.625 144.832031 89.300781 C 144.046875 88.976562 143.238281 88.730469 142.40625 88.566406 C 141.574219 88.398438 140.730469 88.316406 139.882812 88.316406 L 63.355469 88.316406 C 62.402344 88.316406 61.449219 88.269531 60.503906 88.175781 C 59.554688 88.082031 58.613281 87.945312 57.675781 87.757812 C 56.742188 87.574219 55.820312 87.339844 54.90625 87.066406 C 53.996094 86.789062 53.097656 86.46875 52.21875 86.101562 C 51.335938 85.738281 50.476562 85.332031 49.636719 84.882812 C 48.796875 84.433594 47.980469 83.945312 47.1875 83.414062 C 46.394531 82.886719 45.628906 82.320312 44.890625 81.714844 C 44.15625 81.113281 43.449219 80.472656 42.777344 79.800781 C 42.101562 79.125 41.464844 78.421875 40.859375 77.683594 C 40.253906 76.949219 39.6875 76.183594 39.15625 75.394531 C 38.628906 74.601562 38.136719 73.785156 37.6875 72.945312 C 37.238281 72.105469 36.832031 71.246094 36.46875 70.367188 C 36.101562 69.484375 35.78125 68.589844 35.503906 67.679688 C 35.230469 66.765625 34.996094 65.84375 34.8125 64.910156 C 34.625 63.976562 34.484375 63.035156 34.394531 62.085938 C 34.300781 61.140625 34.253906 60.1875 34.253906 59.238281 C 34.253906 58.285156 34.300781 57.335938 34.394531 56.386719 C 34.484375 55.4375 34.625 54.496094 34.8125 53.5625 C 34.996094 52.628906 35.230469 51.707031 35.503906 50.796875 C 35.78125 49.882812 36.101562 48.988281 36.46875 48.109375 C 36.832031 47.230469 37.238281 46.367188 37.6875 45.527344 C 38.136719 44.6875 38.628906 43.871094 39.15625 43.082031 C 39.6875 42.289062 40.253906 41.523438 40.859375 40.789062 C 41.464844 40.050781 42.101562 39.347656 42.777344 38.675781 C 43.449219 38 44.15625 37.363281 44.890625 36.757812 C 45.628906 36.152344 46.394531 35.585938 47.1875 35.058594 C 47.980469 34.527344 48.796875 34.039062 49.636719 33.589844 C 50.476562 33.140625 51.335938 32.734375 52.21875 32.371094 C 53.097656 32.007812 53.996094 31.6875 54.90625 31.410156 C 55.820312 31.132812 56.742188 30.902344 57.675781 30.714844 C 58.613281 30.53125 59.554688 30.390625 60.503906 30.296875 C 61.449219 30.203125 62.402344 30.15625 63.355469 30.15625 L 103.234375 30.15625 L 103.234375 38.773438 L 63.355469 38.773438 C 62.683594 38.773438 62.015625 38.804688 61.347656 38.871094 C 60.679688 38.9375 60.015625 39.035156 59.359375 39.167969 C 58.703125 39.296875 58.050781 39.460938 57.410156 39.65625 C 56.769531 39.847656 56.136719 40.074219 55.515625 40.332031 C 54.898438 40.585938 54.292969 40.875 53.699219 41.191406 C 53.109375 41.503906 52.535156 41.851562 51.976562 42.222656 C 51.417969 42.59375 50.882812 42.992188 50.363281 43.417969 C 49.84375 43.84375 49.347656 44.292969 48.875 44.765625 C 48.398438 45.242188 47.949219 45.738281 47.523438 46.253906 C 47.097656 46.773438 46.699219 47.3125 46.328125 47.867188 C 45.953125 48.425781 45.609375 49 45.292969 49.589844 C 44.976562 50.179688 44.691406 50.785156 44.433594 51.40625 C 44.175781 52.023438 43.953125 52.65625 43.757812 53.296875 C 43.5625 53.9375 43.398438 54.585938 43.269531 55.246094 C 43.136719 55.902344 43.039062 56.5625 42.972656 57.230469 C 42.910156 57.898438 42.875 58.566406 42.875 59.238281 C 42.875 59.90625 42.910156 60.574219 42.972656 61.242188 C 43.039062 61.910156 43.136719 62.570312 43.269531 63.230469 C 43.398438 63.886719 43.5625 64.535156 43.757812 65.175781 C 43.953125 65.820312 44.175781 66.449219 44.433594 67.066406 C 44.691406 67.6875 44.976562 68.292969 45.292969 68.882812 C 45.609375 69.472656 45.953125 70.046875 46.328125 70.605469 C 46.699219 71.164062 47.097656 71.699219 47.523438 72.21875 C 47.949219 72.738281 48.398438 73.234375 48.875 73.707031 C 49.347656 74.179688 49.84375 74.628906 50.363281 75.054688 C 50.882812 75.480469 51.417969 75.878906 51.976562 76.25 C 52.535156 76.625 53.109375 76.96875 53.699219 77.285156 C 54.292969 77.601562 54.898438 77.886719 55.515625 78.144531 C 56.136719 78.398438 56.769531 78.625 57.410156 78.820312 C 58.050781 79.015625 58.703125 79.175781 59.359375 79.308594 C 60.015625 79.4375 60.679688 79.535156 61.347656 79.601562 C 62.015625 79.667969 62.683594 79.699219 63.355469 79.699219 L 139.882812 79.699219 C 140.589844 79.699219 141.292969 79.734375 141.996094 79.804688 C 142.699219 79.875 143.394531 79.976562 144.085938 80.113281 C 144.78125 80.253906 145.464844 80.421875 146.140625 80.628906 C 146.816406 80.832031 147.480469 81.070312 148.132812 81.339844 C 148.785156 81.609375 149.421875 81.910156 150.042969 82.242188 C 150.667969 82.578125 151.269531 82.9375 151.859375 83.332031 C 152.445312 83.722656 153.011719 84.140625 153.558594 84.589844 C 154.101562 85.039062 154.625 85.511719 155.125 86.007812 C 155.625 86.507812 156.097656 87.03125 156.546875 87.574219 C 156.992188 88.121094 157.414062 88.6875 157.804688 89.273438 C 158.199219 89.859375 158.5625 90.464844 158.894531 91.085938 C 159.226562 91.710938 159.527344 92.347656 159.796875 92.996094 C 160.066406 93.648438 160.304688 94.3125 160.511719 94.988281 C 160.714844 95.664062 160.886719 96.347656 161.023438 97.039062 C 161.164062 97.730469 161.265625 98.429688 161.335938 99.128906 C 161.40625 99.832031 161.4375 100.535156 161.4375 101.242188 C 161.4375 101.945312 161.40625 102.652344 161.335938 103.351562 C 161.265625 104.054688 161.164062 104.75 161.023438 105.445312 C 160.886719 106.136719 160.714844 106.820312 160.511719 107.496094 C 160.304688 108.167969 160.066406 108.832031 159.796875 109.484375 C 159.527344 110.136719 159.226562 110.773438 158.894531 111.394531 C 158.5625 112.019531 158.199219 112.621094 157.804688 113.207031 C 157.414062 113.796875 156.992188 114.359375 156.546875 114.90625 C 156.097656 115.453125 155.625 115.972656 155.125 116.472656 C 154.625 116.972656 154.101562 117.445312 153.558594 117.890625 C 153.011719 118.339844 152.445312 118.757812 151.859375 119.152344 C 151.269531 119.542969 150.667969 119.90625 150.042969 120.238281 C 149.421875 120.570312 148.785156 120.871094 148.132812 121.140625 C 147.480469 121.414062 146.816406 121.648438 146.140625 121.855469 C 145.464844 122.058594 144.78125 122.230469 144.085938 122.367188 C 143.394531 122.503906 142.699219 122.609375 141.996094 122.679688 C 141.292969 122.746094 140.589844 122.78125 139.882812 122.78125 L 95.691406 122.78125 C 94.910156 122.78125 94.140625 122.859375 93.378906 123.007812 C 92.613281 123.160156 91.871094 123.386719 91.152344 123.683594 C 90.433594 123.980469 89.75 124.347656 89.101562 124.777344 C 88.457031 125.210938 87.855469 125.703125 87.304688 126.253906 C 86.757812 126.800781 86.265625 127.402344 85.832031 128.046875 C 85.398438 128.695312 85.035156 129.375 84.734375 130.09375 C 84.4375 130.8125 84.214844 131.554688 84.0625 132.316406 C 83.910156 133.082031 83.832031 133.851562 83.832031 134.628906 C 83.832031 135.40625 83.910156 136.175781 84.0625 136.941406 C 84.214844 137.703125 84.4375 138.445312 84.734375 139.164062 C 85.035156 139.882812 85.398438 140.566406 85.832031 141.210938 C 86.265625 141.859375 86.757812 142.457031 87.304688 143.007812 C 87.855469 143.558594 88.457031 144.046875 89.101562 144.480469 C 89.75 144.914062 90.433594 145.277344 91.152344 145.574219 C 91.871094 145.871094 92.613281 146.097656 93.378906 146.25 C 94.140625 146.402344 94.910156 146.476562 95.691406 146.476562 L 166.828125 146.476562 C 167.429688 146.476562 168.027344 146.507812 168.625 146.566406 C 169.222656 146.625 169.816406 146.710938 170.402344 146.828125 C 170.992188 146.945312 171.574219 147.089844 172.148438 147.265625 C 172.722656 147.4375 173.285156 147.640625 173.839844 147.871094 C 174.394531 148.101562 174.9375 148.355469 175.464844 148.640625 C 175.996094 148.921875 176.507812 149.230469 177.007812 149.5625 C 177.507812 149.894531 177.988281 150.253906 178.453125 150.632812 C 178.917969 151.011719 179.359375 151.414062 179.785156 151.839844 C 180.210938 152.261719 180.613281 152.707031 180.992188 153.171875 C 181.375 153.632812 181.730469 154.117188 182.0625 154.613281 C 182.398438 155.113281 182.707031 155.625 182.988281 156.15625 C 183.269531 156.683594 183.527344 157.226562 183.757812 157.78125 C 183.988281 158.332031 184.1875 158.898438 184.363281 159.472656 C 184.535156 160.046875 184.683594 160.625 184.800781 161.214844 C 184.917969 161.800781 185.003906 162.394531 185.0625 162.992188 C 185.121094 163.589844 185.152344 164.1875 185.152344 164.785156 C 185.152344 165.386719 185.121094 165.984375 185.0625 166.582031 C 185.003906 167.179688 184.917969 167.769531 184.800781 168.359375 C 184.683594 168.945312 184.535156 169.527344 184.363281 170.101562 C 184.1875 170.675781 183.988281 171.238281 183.757812 171.792969 C 183.527344 172.347656 183.269531 172.886719 182.988281 173.417969 C 182.707031 173.945312 182.398438 174.460938 182.0625 174.957031 C 181.730469 175.457031 181.375 175.9375 180.992188 176.402344 C 180.613281 176.867188 180.210938 177.308594 179.785156 177.734375 C 179.359375 178.15625 178.917969 178.558594 178.453125 178.941406 C 177.988281 179.320312 177.507812 179.675781 177.007812 180.011719 C 176.507812 180.34375 175.996094 180.652344 175.464844 180.933594 C 174.9375 181.214844 174.394531 181.472656 173.839844 181.703125 C 173.285156 181.933594 172.722656 182.132812 172.148438 182.308594 C 171.574219 182.480469 170.992188 182.628906 170.402344 182.742188 C 169.816406 182.859375 169.222656 182.949219 168.625 183.007812 C 168.027344 183.066406 167.429688 183.097656 166.828125 183.097656 Z M 42.875 183.097656 " fill-opacity="1" fill-rule="nonzero"/><path fill="#f7f8f9" d="M 137.726562 2.152344 L 159.285156 2.152344 L 159.285156 32.3125 L 148.503906 21.539062 L 137.726562 32.3125 Z M 137.726562 2.152344 " fill-opacity="1" fill-rule="nonzero"/><g clip-path="url(#id1)"><path fill="#28328c" d="M 185.152344 0 L 111.859375 0 C 111.570312 0 111.296875 0.0546875 111.03125 0.164062 C 110.769531 0.273438 110.535156 0.429688 110.332031 0.632812 C 110.132812 0.832031 109.976562 1.066406 109.867188 1.328125 C 109.757812 1.59375 109.703125 1.867188 109.703125 2.152344 L 109.703125 66.777344 C 109.703125 67.0625 109.757812 67.335938 109.867188 67.601562 C 109.976562 67.863281 110.132812 68.097656 110.332031 68.300781 C 110.535156 68.5 110.769531 68.65625 111.03125 68.765625 C 111.296875 68.875 111.570312 68.929688 111.859375 68.929688 L 185.152344 68.929688 C 185.4375 68.929688 185.710938 68.875 185.976562 68.765625 C 186.242188 68.65625 186.472656 68.5 186.675781 68.300781 C 186.878906 68.097656 187.035156 67.863281 187.144531 67.601562 C 187.253906 67.335938 187.308594 67.0625 187.308594 66.777344 L 187.308594 2.152344 C 187.308594 1.867188 187.253906 1.59375 187.144531 1.328125 C 187.035156 1.066406 186.878906 0.832031 186.675781 0.632812 C 186.472656 0.429688 186.242188 0.273438 185.976562 0.164062 C 185.710938 0.0546875 185.4375 0 185.152344 0 Z M 182.996094 17.234375 L 161.4375 17.234375 L 161.4375 4.308594 L 182.996094 4.308594 Z M 157.128906 27.109375 L 150.027344 20.019531 C 149.828125 19.816406 149.59375 19.660156 149.328125 19.550781 C 149.066406 19.441406 148.789062 19.386719 148.503906 19.386719 C 148.21875 19.386719 147.945312 19.441406 147.679688 19.550781 C 147.414062 19.660156 147.183594 19.816406 146.980469 20.019531 L 139.882812 27.109375 L 139.882812 4.308594 L 157.128906 4.308594 Z M 114.011719 4.308594 L 135.570312 4.308594 L 135.570312 17.234375 L 114.011719 17.234375 Z M 114.011719 64.621094 L 114.011719 21.539062 L 135.570312 21.539062 L 135.570312 32.3125 C 135.570312 32.746094 135.691406 33.144531 135.933594 33.507812 C 136.175781 33.871094 136.5 34.132812 136.902344 34.300781 C 137.304688 34.46875 137.71875 34.507812 138.148438 34.421875 C 138.574219 34.339844 138.941406 34.140625 139.25 33.832031 L 148.503906 24.585938 L 157.757812 33.835938 C 158.066406 34.140625 158.433594 34.339844 158.863281 34.421875 C 159.289062 34.507812 159.707031 34.46875 160.109375 34.300781 C 160.511719 34.132812 160.832031 33.871094 161.074219 33.507812 C 161.316406 33.144531 161.4375 32.746094 161.4375 32.3125 L 161.4375 21.539062 L 182.996094 21.539062 L 182.996094 64.621094 Z M 114.011719 64.621094 " fill-opacity="1" fill-rule="nonzero"/></g><path fill="#28328c" d="M 32.097656 114.164062 C 31.105469 114.164062 30.125 114.261719 29.152344 114.457031 C 28.179688 114.648438 27.238281 114.933594 26.320312 115.3125 C 25.40625 115.691406 24.539062 116.15625 23.714844 116.707031 C 22.890625 117.257812 22.128906 117.882812 21.425781 118.582031 C 20.726562 119.28125 20.101562 120.042969 19.550781 120.867188 C 19 121.691406 18.535156 122.558594 18.15625 123.472656 C 17.777344 124.386719 17.488281 125.332031 17.296875 126.300781 C 17.105469 127.273438 17.007812 128.253906 17.007812 129.246094 C 17.007812 130.234375 17.105469 131.214844 17.296875 132.1875 C 17.488281 133.15625 17.777344 134.101562 18.15625 135.015625 C 18.535156 135.929688 19 136.796875 19.550781 137.621094 C 20.101562 138.445312 20.726562 139.207031 21.425781 139.90625 C 22.128906 140.605469 22.890625 141.230469 23.714844 141.78125 C 24.539062 142.332031 25.40625 142.796875 26.320312 143.175781 C 27.238281 143.554688 28.179688 143.839844 29.152344 144.03125 C 30.125 144.226562 31.105469 144.324219 32.097656 144.324219 C 33.085938 144.324219 34.070312 144.226562 35.039062 144.03125 C 36.011719 143.839844 36.957031 143.554688 37.871094 143.175781 C 38.785156 142.796875 39.65625 142.332031 40.480469 141.78125 C 41.304688 141.230469 42.066406 140.605469 42.765625 139.90625 C 43.46875 139.207031 44.09375 138.445312 44.644531 137.621094 C 45.195312 136.796875 45.660156 135.929688 46.039062 135.015625 C 46.417969 134.101562 46.703125 133.15625 46.898438 132.1875 C 47.089844 131.214844 47.1875 130.234375 47.1875 129.246094 C 47.1875 128.253906 47.089844 127.273438 46.894531 126.304688 C 46.699219 125.332031 46.414062 124.390625 46.035156 123.476562 C 45.652344 122.5625 45.1875 121.695312 44.636719 120.871094 C 44.089844 120.046875 43.460938 119.285156 42.761719 118.585938 C 42.0625 117.886719 41.300781 117.261719 40.476562 116.710938 C 39.652344 116.160156 38.785156 115.699219 37.867188 115.316406 C 36.953125 114.9375 36.011719 114.652344 35.039062 114.457031 C 34.066406 114.265625 33.085938 114.167969 32.097656 114.164062 Z M 32.097656 140.015625 C 31.390625 140.015625 30.6875 139.945312 29.992188 139.808594 C 29.300781 139.667969 28.625 139.464844 27.972656 139.195312 C 27.316406 138.925781 26.695312 138.59375 26.109375 138.199219 C 25.519531 137.804688 24.976562 137.359375 24.476562 136.859375 C 23.976562 136.359375 23.527344 135.816406 23.136719 135.226562 C 22.742188 134.640625 22.410156 134.019531 22.140625 133.367188 C 21.867188 132.710938 21.664062 132.039062 21.527344 131.34375 C 21.386719 130.652344 21.316406 129.953125 21.316406 129.246094 C 21.316406 128.535156 21.386719 127.835938 21.527344 127.144531 C 21.664062 126.449219 21.867188 125.777344 22.140625 125.121094 C 22.410156 124.46875 22.742188 123.847656 23.136719 123.261719 C 23.527344 122.671875 23.976562 122.128906 24.476562 121.628906 C 24.976562 121.128906 25.519531 120.683594 26.109375 120.289062 C 26.695312 119.894531 27.316406 119.5625 27.972656 119.292969 C 28.625 119.023438 29.300781 118.820312 29.992188 118.679688 C 30.6875 118.542969 31.390625 118.472656 32.097656 118.472656 C 32.804688 118.472656 33.503906 118.542969 34.199219 118.679688 C 34.894531 118.820312 35.566406 119.023438 36.222656 119.292969 C 36.875 119.5625 37.496094 119.894531 38.085938 120.289062 C 38.671875 120.683594 39.21875 121.128906 39.71875 121.628906 C 40.21875 122.128906 40.664062 122.671875 41.058594 123.261719 C 41.453125 123.847656 41.785156 124.46875 42.054688 125.121094 C 42.324219 125.777344 42.53125 126.449219 42.667969 127.144531 C 42.804688 127.835938 42.875 128.535156 42.875 129.246094 C 42.875 129.949219 42.804688 130.652344 42.667969 131.34375 C 42.527344 132.039062 42.324219 132.710938 42.050781 133.363281 C 41.78125 134.015625 41.449219 134.636719 41.054688 135.226562 C 40.660156 135.8125 40.214844 136.355469 39.714844 136.855469 C 39.214844 137.355469 38.671875 137.800781 38.082031 138.195312 C 37.492188 138.589844 36.875 138.921875 36.21875 139.191406 C 35.566406 139.460938 34.890625 139.667969 34.199219 139.804688 C 33.503906 139.945312 32.804688 140.015625 32.097656 140.015625 Z M 32.097656 140.015625 " fill-opacity="1" fill-rule="nonzero"/><g clip-path="url(#id2)"><path fill="#28328c" d="M 58.757812 115.664062 C 58.195312 114.511719 57.5625 113.398438 56.855469 112.324219 C 56.144531 111.253906 55.371094 110.234375 54.53125 109.261719 C 53.6875 108.292969 52.789062 107.378906 51.828125 106.527344 C 50.867188 105.671875 49.851562 104.886719 48.789062 104.167969 C 47.726562 103.445312 46.621094 102.796875 45.472656 102.21875 C 44.324219 101.644531 43.140625 101.144531 41.929688 100.722656 C 40.714844 100.300781 39.476562 99.960938 38.21875 99.699219 C 36.960938 99.4375 35.691406 99.261719 34.410156 99.167969 C 32.867188 99.0625 31.324219 99.0625 29.785156 99.167969 C 28.503906 99.261719 27.234375 99.4375 25.972656 99.699219 C 24.714844 99.960938 23.480469 100.300781 22.265625 100.722656 C 21.050781 101.144531 19.871094 101.644531 18.722656 102.21875 C 17.574219 102.796875 16.46875 103.445312 15.402344 104.167969 C 14.339844 104.886719 13.328125 105.671875 12.367188 106.527344 C 11.40625 107.378906 10.503906 108.292969 9.664062 109.261719 C 8.824219 110.234375 8.046875 111.253906 7.339844 112.324219 C 6.632812 113.398438 5.996094 114.511719 5.433594 115.664062 C 4.804688 116.914062 4.253906 118.199219 3.789062 119.519531 C 3.324219 120.839844 2.945312 122.183594 2.65625 123.554688 C 2.363281 124.921875 2.160156 126.304688 2.046875 127.699219 C 1.933594 129.09375 1.910156 130.488281 1.976562 131.886719 C 2.042969 133.285156 2.199219 134.671875 2.445312 136.050781 C 2.691406 137.429688 3.023438 138.785156 3.445312 140.121094 C 3.863281 141.457031 4.371094 142.757812 4.957031 144.027344 C 5.546875 145.296875 6.214844 146.523438 6.960938 147.707031 L 30.277344 184.253906 C 30.375 184.40625 30.492188 184.542969 30.625 184.667969 C 30.753906 184.792969 30.902344 184.898438 31.058594 184.984375 C 31.21875 185.070312 31.386719 185.136719 31.5625 185.183594 C 31.738281 185.226562 31.914062 185.25 32.097656 185.25 C 32.277344 185.25 32.457031 185.226562 32.632812 185.183594 C 32.808594 185.136719 32.972656 185.070312 33.132812 184.984375 C 33.292969 184.898438 33.4375 184.792969 33.570312 184.667969 C 33.703125 184.542969 33.816406 184.40625 33.914062 184.253906 L 57.234375 147.707031 C 57.980469 146.523438 58.648438 145.296875 59.234375 144.027344 C 59.824219 142.757812 60.328125 141.457031 60.75 140.121094 C 61.167969 138.785156 61.503906 137.429688 61.75 136.050781 C 61.992188 134.671875 62.148438 133.285156 62.21875 131.886719 C 62.285156 130.488281 62.261719 129.09375 62.144531 127.699219 C 62.03125 126.304688 61.832031 124.921875 61.539062 123.554688 C 61.246094 122.183594 60.867188 120.839844 60.402344 119.519531 C 59.9375 118.199219 59.390625 116.914062 58.757812 115.664062 Z M 32.097656 179.089844 L 10.597656 145.390625 C 9.949219 144.367188 9.371094 143.300781 8.859375 142.199219 C 8.351562 141.097656 7.914062 139.96875 7.550781 138.8125 C 7.1875 137.652344 6.898438 136.476562 6.683594 135.28125 C 6.472656 134.085938 6.335938 132.882812 6.28125 131.671875 C 6.222656 130.460938 6.242188 129.25 6.34375 128.039062 C 6.441406 126.828125 6.617188 125.628906 6.871094 124.445312 C 7.125 123.257812 7.453125 122.089844 7.855469 120.945312 C 8.261719 119.800781 8.738281 118.6875 9.285156 117.605469 C 9.761719 116.617188 10.304688 115.664062 10.910156 114.746094 C 11.511719 113.828125 12.171875 112.957031 12.890625 112.125 C 13.609375 111.292969 14.378906 110.511719 15.199219 109.78125 C 16.019531 109.050781 16.882812 108.375 17.792969 107.757812 C 18.699219 107.140625 19.644531 106.585938 20.628906 106.089844 C 21.609375 105.597656 22.617188 105.167969 23.65625 104.804688 C 24.691406 104.445312 25.75 104.148438 26.824219 103.925781 C 27.898438 103.699219 28.984375 103.546875 30.082031 103.464844 C 30.746094 103.417969 31.417969 103.394531 32.097656 103.394531 C 32.773438 103.394531 33.445312 103.417969 34.113281 103.464844 C 35.207031 103.546875 36.292969 103.699219 37.371094 103.925781 C 38.445312 104.148438 39.5 104.445312 40.539062 104.804688 C 41.578125 105.167969 42.585938 105.597656 43.566406 106.089844 C 44.546875 106.585938 45.492188 107.140625 46.402344 107.757812 C 47.308594 108.375 48.175781 109.050781 48.996094 109.78125 C 49.816406 110.511719 50.582031 111.292969 51.300781 112.125 C 52.019531 112.957031 52.679688 113.828125 53.285156 114.746094 C 53.890625 115.664062 54.429688 116.617188 54.910156 117.605469 C 55.457031 118.6875 55.933594 119.800781 56.335938 120.945312 C 56.742188 122.089844 57.070312 123.257812 57.324219 124.445312 C 57.574219 125.628906 57.753906 126.828125 57.851562 128.039062 C 57.949219 129.25 57.96875 130.460938 57.914062 131.671875 C 57.855469 132.882812 57.722656 134.085938 57.507812 135.28125 C 57.296875 136.476562 57.007812 137.652344 56.644531 138.8125 C 56.28125 139.96875 55.84375 141.097656 55.332031 142.199219 C 54.824219 143.300781 54.246094 144.367188 53.597656 145.390625 Z M 32.097656 179.089844 " fill-opacity="1" fill-rule="nonzero"/></g><g clip-path="url(#id3)"><path fill="#28328c" d="M 166.828125 144.324219 L 95.691406 144.324219 C 95.054688 144.324219 94.421875 144.261719 93.796875 144.136719 C 93.171875 144.011719 92.566406 143.828125 91.976562 143.585938 C 91.390625 143.339844 90.832031 143.042969 90.300781 142.6875 C 89.769531 142.335938 89.28125 141.933594 88.832031 141.484375 C 88.378906 141.035156 87.976562 140.542969 87.625 140.015625 C 87.269531 139.484375 86.972656 138.925781 86.726562 138.339844 C 86.484375 137.75 86.300781 137.144531 86.175781 136.519531 C 86.050781 135.894531 85.988281 135.265625 85.988281 134.628906 C 85.988281 133.992188 86.050781 133.363281 86.175781 132.738281 C 86.300781 132.113281 86.484375 131.507812 86.726562 130.917969 C 86.972656 130.332031 87.269531 129.773438 87.625 129.242188 C 87.976562 128.714844 88.378906 128.226562 88.832031 127.773438 C 89.28125 127.324219 89.769531 126.921875 90.300781 126.570312 C 90.832031 126.214844 91.390625 125.917969 91.976562 125.675781 C 92.566406 125.429688 93.171875 125.246094 93.796875 125.121094 C 94.421875 125 95.054688 124.9375 95.691406 124.9375 L 139.882812 124.9375 C 140.660156 124.9375 141.433594 124.898438 142.207031 124.820312 C 142.980469 124.746094 143.746094 124.632812 144.507812 124.480469 C 145.269531 124.328125 146.023438 124.140625 146.765625 123.914062 C 147.507812 123.691406 148.238281 123.429688 148.957031 123.132812 C 149.675781 122.835938 150.375 122.503906 151.058594 122.136719 C 151.746094 121.773438 152.410156 121.375 153.054688 120.941406 C 153.703125 120.511719 154.324219 120.050781 154.925781 119.558594 C 155.527344 119.066406 156.101562 118.542969 156.648438 117.996094 C 157.199219 117.445312 157.71875 116.871094 158.210938 116.273438 C 158.703125 115.671875 159.167969 115.050781 159.597656 114.40625 C 160.03125 113.761719 160.429688 113.09375 160.792969 112.410156 C 161.160156 111.726562 161.492188 111.027344 161.789062 110.308594 C 162.085938 109.59375 162.347656 108.863281 162.574219 108.121094 C 162.800781 107.375 162.988281 106.625 163.140625 105.863281 C 163.289062 105.101562 163.40625 104.335938 163.480469 103.5625 C 163.558594 102.792969 163.59375 102.015625 163.59375 101.242188 C 163.59375 100.464844 163.558594 99.691406 163.480469 98.917969 C 163.40625 98.144531 163.289062 97.378906 163.140625 96.617188 C 162.988281 95.859375 162.800781 95.105469 162.574219 94.363281 C 162.347656 93.621094 162.085938 92.890625 161.789062 92.171875 C 161.492188 91.457031 161.160156 90.757812 160.792969 90.070312 C 160.429688 89.386719 160.03125 88.722656 159.597656 88.078125 C 159.167969 87.433594 158.703125 86.808594 158.210938 86.210938 C 157.71875 85.609375 157.199219 85.035156 156.648438 84.488281 C 156.101562 83.9375 155.527344 83.417969 154.925781 82.925781 C 154.324219 82.433594 153.703125 81.972656 153.054688 81.539062 C 152.410156 81.109375 151.746094 80.710938 151.058594 80.34375 C 150.375 79.980469 149.675781 79.648438 148.957031 79.351562 C 148.238281 79.054688 147.507812 78.792969 146.765625 78.566406 C 146.023438 78.339844 145.269531 78.152344 144.507812 78 C 143.746094 77.851562 142.980469 77.738281 142.207031 77.660156 C 141.433594 77.585938 140.660156 77.546875 139.882812 77.546875 L 63.355469 77.546875 C 62.753906 77.546875 62.15625 77.515625 61.558594 77.457031 C 60.960938 77.398438 60.371094 77.308594 59.78125 77.191406 C 59.191406 77.074219 58.613281 76.929688 58.039062 76.757812 C 57.464844 76.582031 56.898438 76.378906 56.34375 76.148438 C 55.792969 75.921875 55.25 75.664062 54.71875 75.382812 C 54.191406 75.097656 53.675781 74.789062 53.179688 74.457031 C 52.679688 74.125 52.199219 73.769531 51.734375 73.386719 C 51.273438 73.007812 50.828125 72.605469 50.402344 72.179688 C 49.980469 71.757812 49.578125 71.3125 49.195312 70.847656 C 48.816406 70.386719 48.460938 69.90625 48.125 69.40625 C 47.792969 68.90625 47.484375 68.394531 47.203125 67.867188 C 46.917969 67.335938 46.664062 66.796875 46.433594 66.242188 C 46.203125 65.6875 46.003906 65.125 45.828125 64.550781 C 45.65625 63.976562 45.507812 63.394531 45.390625 62.808594 C 45.273438 62.21875 45.1875 61.628906 45.128906 61.03125 C 45.070312 60.433594 45.039062 59.835938 45.039062 59.238281 C 45.039062 58.636719 45.070312 58.039062 45.128906 57.441406 C 45.1875 56.847656 45.273438 56.253906 45.390625 55.664062 C 45.507812 55.078125 45.65625 54.496094 45.828125 53.921875 C 46.003906 53.351562 46.203125 52.785156 46.433594 52.230469 C 46.664062 51.679688 46.917969 51.136719 47.203125 50.609375 C 47.484375 50.078125 47.792969 49.566406 48.125 49.066406 C 48.460938 48.570312 48.816406 48.089844 49.195312 47.625 C 49.578125 47.160156 49.980469 46.71875 50.402344 46.292969 C 50.828125 45.871094 51.273438 45.46875 51.734375 45.085938 C 52.199219 44.707031 52.679688 44.347656 53.179688 44.015625 C 53.675781 43.683594 54.191406 43.375 54.71875 43.09375 C 55.25 42.808594 55.792969 42.554688 56.34375 42.324219 C 56.898438 42.09375 57.464844 41.890625 58.039062 41.71875 C 58.613281 41.542969 59.191406 41.398438 59.78125 41.28125 C 60.371094 41.164062 60.960938 41.074219 61.558594 41.015625 C 62.15625 40.957031 62.753906 40.925781 63.355469 40.925781 L 103.234375 40.925781 C 103.519531 40.925781 103.796875 40.871094 104.058594 40.761719 C 104.324219 40.652344 104.558594 40.5 104.757812 40.296875 C 104.960938 40.09375 105.117188 39.863281 105.226562 39.597656 C 105.335938 39.332031 105.390625 39.058594 105.390625 38.773438 C 105.390625 38.488281 105.335938 38.210938 105.226562 37.949219 C 105.117188 37.683594 104.960938 37.453125 104.757812 37.25 C 104.558594 37.046875 104.324219 36.890625 104.058594 36.78125 C 103.796875 36.675781 103.519531 36.621094 103.234375 36.621094 L 63.355469 36.621094 C 62.613281 36.621094 61.875 36.65625 61.136719 36.726562 C 60.398438 36.800781 59.664062 36.910156 58.9375 37.054688 C 58.210938 37.199219 57.492188 37.378906 56.785156 37.59375 C 56.074219 37.808594 55.378906 38.058594 54.691406 38.339844 C 54.007812 38.625 53.339844 38.941406 52.683594 39.289062 C 52.03125 39.640625 51.394531 40.019531 50.777344 40.429688 C 50.164062 40.84375 49.566406 41.285156 48.996094 41.753906 C 48.421875 42.222656 47.875 42.71875 47.347656 43.242188 C 46.824219 43.765625 46.328125 44.316406 45.859375 44.886719 C 45.386719 45.460938 44.945312 46.054688 44.535156 46.671875 C 44.121094 47.285156 43.742188 47.921875 43.390625 48.574219 C 43.042969 49.226562 42.726562 49.898438 42.441406 50.582031 C 42.160156 51.265625 41.910156 51.960938 41.695312 52.671875 C 41.480469 53.378906 41.300781 54.097656 41.15625 54.824219 C 41.011719 55.550781 40.902344 56.28125 40.828125 57.019531 C 40.757812 57.757812 40.71875 58.496094 40.71875 59.238281 C 40.71875 59.976562 40.757812 60.714844 40.828125 61.453125 C 40.902344 62.191406 41.011719 62.921875 41.15625 63.648438 C 41.300781 64.375 41.480469 65.09375 41.695312 65.800781 C 41.910156 66.511719 42.160156 67.207031 42.441406 67.890625 C 42.726562 68.578125 43.042969 69.246094 43.390625 69.898438 C 43.742188 70.550781 44.121094 71.1875 44.535156 71.800781 C 44.945312 72.417969 45.386719 73.011719 45.859375 73.585938 C 46.328125 74.15625 46.824219 74.707031 47.347656 75.230469 C 47.875 75.753906 48.421875 76.25 48.996094 76.71875 C 49.566406 77.191406 50.164062 77.632812 50.777344 78.042969 C 51.394531 78.453125 52.03125 78.835938 52.683594 79.183594 C 53.339844 79.53125 54.007812 79.847656 54.691406 80.132812 C 55.378906 80.417969 56.074219 80.664062 56.785156 80.878906 C 57.492188 81.097656 58.210938 81.277344 58.9375 81.421875 C 59.664062 81.566406 60.398438 81.671875 61.136719 81.746094 C 61.875 81.816406 62.613281 81.855469 63.355469 81.855469 L 139.882812 81.855469 C 140.515625 81.855469 141.152344 81.886719 141.785156 81.949219 C 142.417969 82.011719 143.042969 82.101562 143.667969 82.226562 C 144.289062 82.351562 144.90625 82.503906 145.515625 82.6875 C 146.121094 82.875 146.71875 83.085938 147.304688 83.332031 C 147.894531 83.574219 148.46875 83.84375 149.027344 84.144531 C 149.589844 84.441406 150.132812 84.769531 150.660156 85.121094 C 151.1875 85.476562 151.699219 85.851562 152.191406 86.253906 C 152.679688 86.65625 153.152344 87.082031 153.601562 87.53125 C 154.050781 87.980469 154.476562 88.453125 154.878906 88.941406 C 155.28125 89.433594 155.660156 89.941406 156.011719 90.46875 C 156.367188 91 156.691406 91.542969 156.992188 92.101562 C 157.292969 92.664062 157.5625 93.234375 157.804688 93.824219 C 158.050781 94.410156 158.261719 95.007812 158.449219 95.613281 C 158.632812 96.222656 158.785156 96.835938 158.910156 97.460938 C 159.035156 98.082031 159.128906 98.710938 159.191406 99.339844 C 159.253906 99.972656 159.285156 100.605469 159.285156 101.242188 C 159.285156 101.875 159.253906 102.507812 159.191406 103.140625 C 159.128906 103.773438 159.035156 104.402344 158.910156 105.023438 C 158.785156 105.644531 158.632812 106.261719 158.449219 106.867188 C 158.261719 107.476562 158.050781 108.074219 157.804688 108.660156 C 157.5625 109.246094 157.292969 109.820312 156.992188 110.378906 C 156.691406 110.941406 156.367188 111.484375 156.011719 112.011719 C 155.660156 112.539062 155.28125 113.050781 154.878906 113.539062 C 154.476562 114.03125 154.050781 114.5 153.601562 114.949219 C 153.152344 115.398438 152.679688 115.824219 152.191406 116.226562 C 151.699219 116.628906 151.1875 117.007812 150.660156 117.359375 C 150.132812 117.714844 149.589844 118.039062 149.027344 118.339844 C 148.46875 118.636719 147.894531 118.910156 147.304688 119.152344 C 146.71875 119.394531 146.121094 119.609375 145.515625 119.792969 C 144.90625 119.976562 144.289062 120.132812 143.667969 120.253906 C 143.042969 120.378906 142.417969 120.472656 141.785156 120.535156 C 141.152344 120.597656 140.515625 120.628906 139.882812 120.628906 L 95.691406 120.628906 C 94.769531 120.628906 93.859375 120.71875 92.957031 120.898438 C 92.054688 121.078125 91.179688 121.34375 90.328125 121.695312 C 89.476562 122.046875 88.671875 122.476562 87.90625 122.988281 C 87.140625 123.5 86.433594 124.078125 85.78125 124.730469 C 85.132812 125.378906 84.550781 126.085938 84.039062 126.851562 C 83.527344 127.613281 83.097656 128.421875 82.746094 129.269531 C 82.390625 130.121094 82.125 130.996094 81.949219 131.898438 C 81.769531 132.800781 81.679688 133.710938 81.679688 134.628906 C 81.679688 135.546875 81.769531 136.460938 81.949219 137.359375 C 82.125 138.261719 82.390625 139.136719 82.746094 139.988281 C 83.097656 140.835938 83.527344 141.644531 84.039062 142.40625 C 84.550781 143.171875 85.132812 143.878906 85.78125 144.53125 C 86.433594 145.179688 87.140625 145.761719 87.90625 146.269531 C 88.671875 146.78125 89.476562 147.214844 90.328125 147.566406 C 91.179688 147.917969 92.054688 148.183594 92.957031 148.363281 C 93.859375 148.542969 94.769531 148.628906 95.691406 148.628906 L 166.828125 148.628906 C 167.359375 148.628906 167.886719 148.65625 168.414062 148.707031 C 168.941406 148.761719 169.464844 148.839844 169.984375 148.941406 C 170.5 149.042969 171.015625 149.171875 171.523438 149.328125 C 172.027344 149.480469 172.527344 149.65625 173.015625 149.859375 C 173.503906 150.0625 173.984375 150.289062 174.449219 150.539062 C 174.917969 150.789062 175.371094 151.058594 175.8125 151.351562 C 176.25 151.648438 176.675781 151.960938 177.085938 152.296875 C 177.496094 152.632812 177.886719 152.988281 178.261719 153.363281 C 178.636719 153.738281 178.992188 154.128906 179.328125 154.539062 C 179.664062 154.945312 179.976562 155.371094 180.269531 155.8125 C 180.566406 156.25 180.835938 156.703125 181.085938 157.171875 C 181.335938 157.636719 181.5625 158.113281 181.765625 158.605469 C 181.96875 159.09375 182.144531 159.589844 182.300781 160.097656 C 182.453125 160.601562 182.582031 161.117188 182.683594 161.632812 C 182.789062 162.152344 182.867188 162.675781 182.917969 163.203125 C 182.96875 163.730469 182.996094 164.257812 182.996094 164.785156 C 182.996094 165.316406 182.96875 165.84375 182.917969 166.371094 C 182.867188 166.894531 182.789062 167.417969 182.683594 167.9375 C 182.582031 168.457031 182.453125 168.96875 182.300781 169.476562 C 182.144531 169.980469 181.96875 170.480469 181.765625 170.96875 C 181.5625 171.457031 181.335938 171.933594 181.085938 172.402344 C 180.835938 172.867188 180.566406 173.320312 180.269531 173.761719 C 179.976562 174.203125 179.664062 174.625 179.328125 175.035156 C 178.992188 175.445312 178.636719 175.835938 178.261719 176.210938 C 177.886719 176.585938 177.496094 176.9375 177.085938 177.273438 C 176.675781 177.609375 176.25 177.925781 175.8125 178.21875 C 175.371094 178.511719 174.917969 178.785156 174.449219 179.035156 C 173.984375 179.285156 173.503906 179.507812 173.015625 179.710938 C 172.527344 179.914062 172.027344 180.09375 171.523438 180.246094 C 171.015625 180.398438 170.5 180.527344 169.984375 180.632812 C 169.464844 180.734375 168.941406 180.8125 168.414062 180.863281 C 167.886719 180.914062 167.359375 180.941406 166.828125 180.941406 L 42.875 180.941406 C 42.589844 180.941406 42.316406 180.996094 42.050781 181.105469 C 41.785156 181.214844 41.554688 181.371094 41.351562 181.574219 C 41.148438 181.773438 40.992188 182.007812 40.882812 182.273438 C 40.773438 182.535156 40.71875 182.808594 40.71875 183.097656 C 40.71875 183.382812 40.773438 183.65625 40.882812 183.921875 C 40.992188 184.183594 41.148438 184.417969 41.351562 184.617188 C 41.554688 184.820312 41.785156 184.976562 42.050781 185.085938 C 42.316406 185.195312 42.589844 185.25 42.875 185.25 L 166.828125 185.25 C 167.5 185.25 168.167969 185.21875 168.835938 185.152344 C 169.503906 185.085938 170.164062 184.988281 170.824219 184.855469 C 171.480469 184.726562 172.132812 184.5625 172.773438 184.367188 C 173.414062 184.175781 174.046875 183.949219 174.664062 183.691406 C 175.285156 183.4375 175.890625 183.148438 176.480469 182.832031 C 177.074219 182.519531 177.648438 182.171875 178.207031 181.800781 C 178.761719 181.429688 179.300781 181.03125 179.820312 180.605469 C 180.339844 180.179688 180.835938 179.730469 181.308594 179.257812 C 181.785156 178.78125 182.234375 178.285156 182.660156 177.769531 C 183.085938 177.25 183.484375 176.710938 183.855469 176.15625 C 184.230469 175.597656 184.574219 175.023438 184.890625 174.433594 C 185.207031 173.839844 185.492188 173.238281 185.75 172.617188 C 186.003906 172 186.230469 171.367188 186.425781 170.726562 C 186.621094 170.085938 186.78125 169.4375 186.914062 168.777344 C 187.042969 168.121094 187.144531 167.460938 187.207031 166.792969 C 187.273438 166.125 187.308594 165.457031 187.308594 164.785156 C 187.308594 164.117188 187.273438 163.449219 187.207031 162.78125 C 187.144531 162.113281 187.042969 161.453125 186.914062 160.792969 C 186.78125 160.136719 186.621094 159.488281 186.425781 158.847656 C 186.230469 158.203125 186.003906 157.574219 185.75 156.957031 C 185.492188 156.335938 185.207031 155.730469 184.890625 155.140625 C 184.574219 154.546875 184.230469 153.972656 183.855469 153.417969 C 183.484375 152.859375 183.085938 152.324219 182.660156 151.804688 C 182.234375 151.285156 181.785156 150.789062 181.308594 150.316406 C 180.835938 149.84375 180.339844 149.394531 179.820312 148.96875 C 179.300781 148.542969 178.765625 148.144531 178.207031 147.769531 C 177.648438 147.398438 177.074219 147.054688 176.480469 146.738281 C 175.890625 146.421875 175.285156 146.136719 174.664062 145.878906 C 174.046875 145.625 173.414062 145.398438 172.773438 145.203125 C 172.132812 145.007812 171.480469 144.847656 170.824219 144.714844 C 170.164062 144.585938 169.503906 144.488281 168.835938 144.421875 C 168.167969 144.355469 167.5 144.324219 166.828125 144.324219 Z M 166.828125 144.324219 " fill-opacity="1" fill-rule="nonzero"/></g><path fill="#28328c" d="M 63.355469 90.472656 L 139.882812 90.472656 C 140.589844 90.472656 141.289062 90.539062 141.984375 90.679688 C 142.679688 90.816406 143.351562 91.019531 144.007812 91.289062 C 144.660156 91.5625 145.28125 91.894531 145.871094 92.285156 C 146.457031 92.679688 147.003906 93.125 147.503906 93.625 C 148.003906 94.125 148.449219 94.667969 148.84375 95.257812 C 149.238281 95.84375 149.570312 96.464844 149.839844 97.121094 C 150.109375 97.773438 150.316406 98.445312 150.453125 99.140625 C 150.589844 99.832031 150.660156 100.535156 150.660156 101.242188 C 150.660156 101.949219 150.589844 102.648438 150.453125 103.34375 C 150.316406 104.035156 150.109375 104.710938 149.839844 105.363281 C 149.570312 106.015625 149.238281 106.636719 148.84375 107.226562 C 148.449219 107.8125 148.003906 108.355469 147.503906 108.855469 C 147.003906 109.355469 146.457031 109.804688 145.871094 110.195312 C 145.28125 110.589844 144.660156 110.921875 144.007812 111.191406 C 143.351562 111.460938 142.679688 111.667969 141.984375 111.804688 C 141.289062 111.941406 140.589844 112.011719 139.882812 112.011719 L 95.691406 112.011719 C 94.949219 112.011719 94.210938 112.046875 93.472656 112.121094 C 92.734375 112.191406 92 112.300781 91.273438 112.445312 C 90.546875 112.589844 89.828125 112.769531 89.121094 112.984375 C 88.410156 113.199219 87.714844 113.449219 87.027344 113.734375 C 86.34375 114.015625 85.675781 114.332031 85.019531 114.683594 C 84.367188 115.03125 83.730469 115.410156 83.113281 115.824219 C 82.5 116.234375 81.902344 116.675781 81.332031 117.144531 C 80.757812 117.617188 80.210938 118.113281 79.683594 118.636719 C 79.160156 119.160156 78.664062 119.707031 78.191406 120.28125 C 77.722656 120.851562 77.28125 121.449219 76.871094 122.0625 C 76.457031 122.679688 76.078125 123.3125 75.726562 123.96875 C 75.378906 124.621094 75.0625 125.289062 74.777344 125.972656 C 74.496094 126.660156 74.246094 127.355469 74.03125 128.0625 C 73.816406 128.773438 73.632812 129.492188 73.488281 130.21875 C 73.34375 130.945312 73.238281 131.675781 73.164062 132.414062 C 73.089844 133.148438 73.054688 133.886719 73.054688 134.628906 C 73.054688 135.371094 73.089844 136.109375 73.164062 136.847656 C 73.238281 137.582031 73.34375 138.316406 73.488281 139.042969 C 73.632812 139.769531 73.816406 140.484375 74.03125 141.195312 C 74.246094 141.902344 74.496094 142.601562 74.777344 143.285156 C 75.0625 143.96875 75.378906 144.636719 75.726562 145.292969 C 76.078125 145.945312 76.457031 146.578125 76.871094 147.195312 C 77.28125 147.8125 77.722656 148.40625 78.191406 148.976562 C 78.664062 149.550781 79.160156 150.097656 79.683594 150.621094 C 80.210938 151.144531 80.757812 151.644531 81.332031 152.113281 C 81.902344 152.582031 82.5 153.023438 83.113281 153.433594 C 83.730469 153.847656 84.367188 154.226562 85.019531 154.578125 C 85.675781 154.925781 86.34375 155.242188 87.027344 155.527344 C 87.714844 155.808594 88.410156 156.058594 89.121094 156.273438 C 89.828125 156.488281 90.546875 156.667969 91.273438 156.8125 C 92 156.957031 92.734375 157.066406 93.472656 157.136719 C 94.210938 157.210938 94.949219 157.246094 95.691406 157.246094 L 166.828125 157.246094 C 167.324219 157.246094 167.8125 157.296875 168.300781 157.390625 C 168.785156 157.488281 169.257812 157.632812 169.714844 157.820312 C 170.171875 158.011719 170.609375 158.242188 171.019531 158.519531 C 171.433594 158.792969 171.8125 159.105469 172.164062 159.457031 C 172.515625 159.804688 172.828125 160.1875 173.101562 160.597656 C 173.378906 161.007812 173.609375 161.445312 173.800781 161.902344 C 173.988281 162.359375 174.132812 162.828125 174.226562 163.316406 C 174.324219 163.800781 174.375 164.292969 174.375 164.785156 C 174.375 165.28125 174.324219 165.773438 174.226562 166.257812 C 174.132812 166.742188 173.988281 167.214844 173.800781 167.671875 C 173.609375 168.128906 173.378906 168.5625 173.101562 168.976562 C 172.828125 169.386719 172.515625 169.765625 172.164062 170.117188 C 171.8125 170.46875 171.433594 170.78125 171.019531 171.054688 C 170.609375 171.328125 170.171875 171.5625 169.714844 171.75 C 169.257812 171.941406 168.785156 172.085938 168.300781 172.179688 C 167.8125 172.277344 167.324219 172.324219 166.828125 172.324219 L 49.34375 172.324219 C 49.054688 172.324219 48.78125 172.378906 48.515625 172.488281 C 48.253906 172.597656 48.019531 172.753906 47.816406 172.957031 C 47.617188 173.160156 47.460938 173.390625 47.351562 173.65625 C 47.242188 173.917969 47.1875 174.195312 47.1875 174.480469 C 47.1875 174.765625 47.242188 175.039062 47.351562 175.304688 C 47.460938 175.566406 47.617188 175.800781 47.816406 176.003906 C 48.019531 176.203125 48.253906 176.359375 48.515625 176.46875 C 48.78125 176.578125 49.054688 176.632812 49.34375 176.632812 L 166.828125 176.632812 C 167.605469 176.632812 168.378906 176.558594 169.140625 176.40625 C 169.90625 176.253906 170.644531 176.03125 171.367188 175.730469 C 172.085938 175.433594 172.769531 175.070312 173.414062 174.636719 C 174.0625 174.203125 174.660156 173.714844 175.210938 173.164062 C 175.761719 172.613281 176.253906 172.015625 176.6875 171.367188 C 177.117188 170.722656 177.484375 170.039062 177.78125 169.320312 C 178.082031 168.601562 178.304688 167.859375 178.457031 167.097656 C 178.609375 166.335938 178.683594 165.5625 178.683594 164.785156 C 178.683594 164.007812 178.609375 163.238281 178.457031 162.476562 C 178.304688 161.710938 178.082031 160.972656 177.78125 160.253906 C 177.484375 159.535156 177.117188 158.851562 176.6875 158.203125 C 176.253906 157.558594 175.761719 156.960938 175.210938 156.410156 C 174.660156 155.859375 174.0625 155.367188 173.414062 154.9375 C 172.769531 154.503906 172.085938 154.136719 171.367188 153.839844 C 170.644531 153.542969 169.90625 153.316406 169.140625 153.167969 C 168.378906 153.015625 167.605469 152.9375 166.828125 152.9375 L 95.691406 152.9375 C 95.089844 152.9375 94.492188 152.910156 93.894531 152.851562 C 93.296875 152.792969 92.703125 152.703125 92.117188 152.585938 C 91.527344 152.46875 90.945312 152.324219 90.371094 152.152344 C 89.796875 151.976562 89.234375 151.773438 88.679688 151.546875 C 88.125 151.316406 87.582031 151.058594 87.050781 150.777344 C 86.523438 150.496094 86.007812 150.1875 85.511719 149.851562 C 85.011719 149.519531 84.53125 149.164062 84.066406 148.78125 C 83.601562 148.402344 83.15625 148 82.734375 147.574219 C 82.308594 147.152344 81.90625 146.707031 81.527344 146.246094 C 81.144531 145.78125 80.789062 145.300781 80.453125 144.800781 C 80.121094 144.304688 79.8125 143.789062 79.53125 143.261719 C 79.246094 142.730469 78.992188 142.191406 78.761719 141.636719 C 78.53125 141.082031 78.328125 140.519531 78.15625 139.945312 C 77.980469 139.371094 77.835938 138.789062 77.71875 138.203125 C 77.601562 137.613281 77.515625 137.019531 77.453125 136.425781 C 77.394531 135.828125 77.367188 135.230469 77.367188 134.628906 C 77.367188 134.03125 77.394531 133.429688 77.453125 132.835938 C 77.515625 132.238281 77.601562 131.644531 77.71875 131.058594 C 77.835938 130.46875 77.980469 129.886719 78.15625 129.3125 C 78.328125 128.742188 78.53125 128.175781 78.761719 127.621094 C 78.992188 127.070312 79.246094 126.527344 79.53125 126 C 79.8125 125.46875 80.121094 124.957031 80.453125 124.457031 C 80.789062 123.957031 81.144531 123.476562 81.527344 123.015625 C 81.90625 122.550781 82.308594 122.105469 82.734375 121.683594 C 83.15625 121.257812 83.601562 120.855469 84.066406 120.476562 C 84.53125 120.09375 85.011719 119.738281 85.511719 119.40625 C 86.007812 119.074219 86.523438 118.765625 87.050781 118.480469 C 87.582031 118.199219 88.125 117.941406 88.679688 117.714844 C 89.234375 117.484375 89.796875 117.28125 90.371094 117.109375 C 90.945312 116.933594 91.527344 116.789062 92.117188 116.671875 C 92.703125 116.554688 93.296875 116.464844 93.894531 116.40625 C 94.492188 116.347656 95.089844 116.320312 95.691406 116.320312 L 139.882812 116.320312 C 140.871094 116.320312 141.855469 116.222656 142.824219 116.03125 C 143.796875 115.835938 144.742188 115.550781 145.65625 115.171875 C 146.570312 114.792969 147.441406 114.328125 148.265625 113.777344 C 149.089844 113.226562 149.851562 112.601562 150.550781 111.902344 C 151.253906 111.203125 151.878906 110.441406 152.429688 109.617188 C 152.980469 108.796875 153.445312 107.925781 153.824219 107.011719 C 154.203125 106.097656 154.488281 105.152344 154.683594 104.183594 C 154.875 103.210938 154.972656 102.230469 154.972656 101.242188 C 154.972656 100.25 154.875 99.269531 154.683594 98.300781 C 154.488281 97.328125 154.203125 96.386719 153.824219 95.472656 C 153.445312 94.554688 152.980469 93.6875 152.429688 92.863281 C 151.878906 92.039062 151.253906 91.277344 150.550781 90.578125 C 149.851562 89.878906 149.089844 89.253906 148.265625 88.703125 C 147.441406 88.152344 146.570312 87.6875 145.65625 87.3125 C 144.742188 86.933594 143.796875 86.644531 142.824219 86.453125 C 141.855469 86.257812 140.871094 86.164062 139.882812 86.164062 L 63.355469 86.164062 C 62.472656 86.164062 61.589844 86.121094 60.714844 86.03125 C 59.835938 85.945312 58.964844 85.816406 58.097656 85.644531 C 57.230469 85.472656 56.378906 85.257812 55.53125 85.003906 C 54.6875 84.746094 53.859375 84.449219 53.042969 84.113281 C 52.226562 83.777344 51.429688 83.398438 50.652344 82.984375 C 49.875 82.566406 49.117188 82.113281 48.382812 81.625 C 47.648438 81.136719 46.941406 80.609375 46.261719 80.050781 C 45.578125 79.492188 44.925781 78.898438 44.300781 78.277344 C 43.675781 77.652344 43.085938 77 42.523438 76.320312 C 41.964844 75.636719 41.441406 74.929688 40.949219 74.195312 C 40.460938 73.460938 40.007812 72.707031 39.589844 71.929688 C 39.175781 71.152344 38.796875 70.355469 38.460938 69.539062 C 38.121094 68.726562 37.824219 67.898438 37.570312 67.054688 C 37.3125 66.210938 37.097656 65.355469 36.925781 64.488281 C 36.753906 63.625 36.625 62.753906 36.539062 61.875 C 36.453125 61 36.410156 60.117188 36.410156 59.238281 C 36.410156 58.355469 36.453125 57.476562 36.539062 56.597656 C 36.625 55.71875 36.753906 54.847656 36.925781 53.984375 C 37.097656 53.117188 37.3125 52.265625 37.570312 51.421875 C 37.824219 50.578125 38.121094 49.746094 38.460938 48.933594 C 38.796875 48.117188 39.175781 47.320312 39.589844 46.542969 C 40.007812 45.765625 40.460938 45.011719 40.949219 44.277344 C 41.441406 43.542969 41.964844 42.835938 42.523438 42.15625 C 43.085938 41.472656 43.675781 40.820312 44.300781 40.199219 C 44.925781 39.574219 45.578125 38.980469 46.261719 38.421875 C 46.941406 37.863281 47.648438 37.339844 48.382812 36.847656 C 49.117188 36.359375 49.875 35.90625 50.652344 35.492188 C 51.429688 35.074219 52.226562 34.699219 53.042969 34.359375 C 53.859375 34.023438 54.6875 33.726562 55.53125 33.46875 C 56.378906 33.214844 57.230469 33 58.097656 32.828125 C 58.964844 32.65625 59.835938 32.527344 60.714844 32.441406 C 61.589844 32.355469 62.472656 32.3125 63.355469 32.3125 L 103.234375 32.3125 C 103.519531 32.3125 103.796875 32.257812 104.058594 32.148438 C 104.324219 32.039062 104.558594 31.882812 104.757812 31.679688 C 104.960938 31.476562 105.117188 31.246094 105.226562 30.980469 C 105.335938 30.71875 105.390625 30.441406 105.390625 30.15625 C 105.390625 29.871094 105.335938 29.597656 105.226562 29.332031 C 105.117188 29.070312 104.960938 28.835938 104.757812 28.632812 C 104.558594 28.433594 104.324219 28.277344 104.058594 28.167969 C 103.796875 28.058594 103.519531 28.003906 103.234375 28.003906 L 63.355469 28.003906 C 62.332031 28.003906 61.308594 28.054688 60.289062 28.152344 C 59.273438 28.253906 58.261719 28.402344 57.257812 28.601562 C 56.253906 28.800781 55.261719 29.050781 54.28125 29.347656 C 53.300781 29.644531 52.339844 29.988281 51.394531 30.378906 C 50.445312 30.773438 49.523438 31.207031 48.621094 31.691406 C 47.71875 32.171875 46.839844 32.699219 45.988281 33.265625 C 45.136719 33.835938 44.316406 34.445312 43.523438 35.09375 C 42.734375 35.742188 41.976562 36.429688 41.253906 37.152344 C 40.527344 37.875 39.839844 38.632812 39.191406 39.421875 C 38.542969 40.214844 37.933594 41.035156 37.363281 41.882812 C 36.796875 42.734375 36.269531 43.609375 35.789062 44.511719 C 35.304688 45.414062 34.867188 46.339844 34.476562 47.285156 C 34.085938 48.230469 33.738281 49.191406 33.441406 50.171875 C 33.144531 51.148438 32.898438 52.140625 32.699219 53.144531 C 32.496094 54.148438 32.347656 55.15625 32.246094 56.175781 C 32.148438 57.195312 32.097656 58.214844 32.097656 59.238281 C 32.097656 60.261719 32.148438 61.28125 32.246094 62.296875 C 32.347656 63.316406 32.496094 64.328125 32.699219 65.332031 C 32.898438 66.332031 33.144531 67.324219 33.441406 68.304688 C 33.738281 69.28125 34.085938 70.246094 34.476562 71.191406 C 34.867188 72.132812 35.304688 73.058594 35.789062 73.960938 C 36.269531 74.863281 36.796875 75.738281 37.363281 76.589844 C 37.933594 77.441406 38.542969 78.261719 39.191406 79.050781 C 39.839844 79.84375 40.527344 80.597656 41.253906 81.324219 C 41.976562 82.046875 42.734375 82.730469 43.523438 83.382812 C 44.316406 84.03125 45.136719 84.640625 45.988281 85.207031 C 46.839844 85.773438 47.71875 86.300781 48.621094 86.78125 C 49.523438 87.265625 50.445312 87.703125 51.394531 88.09375 C 52.339844 88.484375 53.300781 88.828125 54.28125 89.125 C 55.261719 89.421875 56.253906 89.671875 57.257812 89.871094 C 58.261719 90.070312 59.273438 90.21875 60.289062 90.320312 C 61.308594 90.421875 62.332031 90.472656 63.355469 90.472656 Z M 63.355469 90.472656 " fill-opacity="1" fill-rule="nonzero"/><path fill="#28328c" d="M 144.195312 49.542969 L 120.480469 49.542969 C 120.195312 49.542969 119.917969 49.597656 119.65625 49.707031 C 119.390625 49.816406 119.160156 49.972656 118.957031 50.175781 C 118.753906 50.375 118.597656 50.609375 118.488281 50.875 C 118.378906 51.136719 118.324219 51.410156 118.324219 51.699219 C 118.324219 51.984375 118.378906 52.257812 118.488281 52.523438 C 118.597656 52.785156 118.753906 53.019531 118.957031 53.222656 C 119.160156 53.421875 119.390625 53.578125 119.65625 53.6875 C 119.917969 53.796875 120.195312 53.851562 120.480469 53.851562 L 144.195312 53.851562 C 144.480469 53.851562 144.753906 53.796875 145.019531 53.6875 C 145.28125 53.578125 145.515625 53.421875 145.71875 53.222656 C 145.917969 53.019531 146.074219 52.785156 146.183594 52.523438 C 146.292969 52.257812 146.347656 51.984375 146.347656 51.699219 C 146.347656 51.410156 146.292969 51.136719 146.183594 50.875 C 146.074219 50.609375 145.917969 50.375 145.71875 50.175781 C 145.515625 49.972656 145.28125 49.816406 145.019531 49.707031 C 144.753906 49.597656 144.480469 49.542969 144.195312 49.542969 Z M 144.195312 49.542969 " fill-opacity="1" fill-rule="nonzero"/><path fill="#28328c" d="M 131.257812 56.003906 L 120.480469 56.003906 C 120.195312 56.003906 119.917969 56.058594 119.65625 56.167969 C 119.390625 56.277344 119.160156 56.433594 118.957031 56.636719 C 118.753906 56.839844 118.597656 57.070312 118.488281 57.335938 C 118.378906 57.597656 118.324219 57.875 118.324219 58.160156 C 118.324219 58.445312 118.378906 58.71875 118.488281 58.984375 C 118.597656 59.25 118.753906 59.480469 118.957031 59.683594 C 119.160156 59.886719 119.390625 60.039062 119.65625 60.148438 C 119.917969 60.257812 120.195312 60.3125 120.480469 60.3125 L 131.257812 60.3125 C 131.546875 60.3125 131.820312 60.257812 132.085938 60.148438 C 132.347656 60.039062 132.582031 59.886719 132.785156 59.683594 C 132.984375 59.480469 133.140625 59.25 133.25 58.984375 C 133.359375 58.71875 133.414062 58.445312 133.414062 58.160156 C 133.414062 57.875 133.359375 57.597656 133.25 57.335938 C 133.140625 57.070312 132.984375 56.839844 132.785156 56.636719 C 132.582031 56.433594 132.347656 56.277344 132.085938 56.167969 C 131.820312 56.058594 131.546875 56.003906 131.257812 56.003906 Z M 131.257812 56.003906 " fill-opacity="1" fill-rule="nonzero"/></svg>