<?xml version="1.0"?>
<svg xmlns="http://www.w3.org/2000/svg" xmlns:xlink="http://www.w3.org/1999/xlink" xmlns:svgjs="http://svgjs.com/svgjs" version="1.1" width="512" height="512" x="0" y="0" viewBox="0 0 503.25 503.25" style="enable-background:new 0 0 512 512" xml:space="preserve" class=""><g><g xmlns="http://www.w3.org/2000/svg"><g><path d="m459.466 426.045v63.76c0 7.42-6.02 13.44-13.44 13.44h-388.8c-7.42 0-13.44-6.02-13.44-13.44v-63.76c0-42.96 25.47-79.98 62.13-96.76 4.82-2.21 9.83-4.06 15-5.53 9.29-2.66 19.1-4.08 29.24-4.08h202.94c7.12 0 14.07.7 20.8 2.04 2.305.453 3.5 4.37 5.751 4.974 2.769.743 6.579-1.789 9.249-.824 41.14 14.68 70.57 53.99 70.57 100.18z" fill="#81d4fa" data-original="#a6e7f0" style="" class=""/></g><g><path d="m69.226 426.048v63.758c0 7.419 6.025 13.444 13.444 13.444h-25.442c-7.419 0-13.444-6.025-13.444-13.444v-63.758c0-58.752 47.628-106.369 106.369-106.369h25.442c-58.741-.001-106.369 47.617-106.369 106.369z" fill="#4fc3f7" data-original="#6bd9e7" style="" class=""/></g><g><path d="m343.187 321.827c-96.237 47.402-93.064 54.028-190.402.169-1.738-.961-1.773-3.453-.058-4.454l31.23-18.231c6.735-3.368 10.987-10.248 10.987-17.767v-46.676l109.016.615v46.061c0 7.518 4.251 14.399 10.987 17.767l28.487 18.055c1.687 1.069 1.546 3.578-.247 4.461z" fill="#ffdecf" data-original="#ffdecf" style="" class=""/></g><g><path d="m258.741 358.707c-28.027 5.282-51.221-6.361-109.901-38.896l35.121-20.497c6.727-3.368 10.981-10.248 10.981-17.769v-46.682l25.442.142v46.539c0 7.521-4.254 14.401-10.981 17.769l-25.32 14.777c-4.325 2.524-4.244 8.803.143 11.215 34.795 19.164 56.156 29.952 74.515 33.402z" fill="#ffcdbe" data-original="#ffcdbe" style="" class=""/></g><g><path d="m135.933 470.659h-6.689c-4.142 0-7.5-3.357-7.5-7.5s3.358-7.5 7.5-7.5h6.689c.902 0 1.636-.734 1.636-1.637v-25.388c0-7.079-5.759-12.838-12.837-12.838h-22.627c-7.079 0-12.837 5.759-12.837 12.838v25.388c0 .902.734 1.637 1.636 1.637h6.689c4.142 0 7.5 3.357 7.5 7.5s-3.358 7.5-7.5 7.5h-6.689c-9.173 0-16.636-7.463-16.636-16.637v-25.388c0-15.35 12.488-27.838 27.837-27.838h22.627c15.35 0 27.837 12.488 27.837 27.838v25.388c0 9.174-7.463 16.637-16.636 16.637z" fill="#faf8f8" data-original="#faf8f8" style="" class=""/></g><g><g><path d="m120.916 323.755v80.32c0 4.14-3.36 7.5-7.5 7.5s-7.5-3.36-7.5-7.5v-74.79c4.82-2.21 9.83-4.06 15-5.53z" fill="#faf8f8" data-original="#faf8f8" style="" class=""/></g></g><g><g><path d="m388.896 325.865v77.58c0 4.49-3.36 8.13-7.5 8.13s-7.5-3.64-7.5-8.13v-81.73c5.14 1.01 10.16 2.4 15 4.15z" fill="#faf8f8" data-original="#faf8f8" style="" class=""/></g></g><g><path d="m381.396 468.549c-19.261 0-34.931-15.67-34.931-34.931s15.67-34.931 34.931-34.931 34.931 15.67 34.931 34.931-15.67 34.931-34.931 34.931zm0-54.861c-10.99 0-19.931 8.94-19.931 19.931s8.941 19.931 19.931 19.931 19.931-8.94 19.931-19.931-8.941-19.931-19.931-19.931z" fill="#faf8f8" data-original="#faf8f8" style="" class=""/></g><g><path d="m120.916 323.755v11.04c-5.32 3.19-10.34 6.83-15 10.88v-16.38c.14-.07.28-.14.43-.2.05-.03.11-.06.17-.08.6-.27 1.21-.54 1.82-.8.23-.1.47-.2.71-.3.54-.23 1.08-.45 1.63-.66 1.02-.42 2.06-.81 3.1-1.19.68-.25 1.37-.49 2.06-.72.19-.07.37-.13.56-.19.38-.14.77-.26 1.16-.38.48-.16.95-.31 1.43-.45.64-.2 1.28-.39 1.93-.57z" fill="#f7f8f4" data-original="#f7f8f4" style="" class=""/></g><g><g><path d="m120.916 323.755v11.04c-5.32 3.19-10.34 6.83-15 10.88v-16.39c.14-.07.28-.13.43-.19.05-.03.11-.06.17-.08.6-.27 1.21-.54 1.82-.8.23-.1.47-.2.71-.3.54-.23 1.08-.45 1.63-.66 1.02-.42 2.06-.81 3.1-1.19.68-.25 1.37-.49 2.06-.72.19-.07.37-.13.56-.19.38-.14.77-.26 1.16-.38.48-.16.95-.31 1.43-.45.64-.2 1.28-.39 1.93-.57z" fill="#f7f8f4" data-original="#f7f8f4" style="" class=""/></g></g><g><path d="m340.833 180.41c17.767 0 32.178-14.412 32.178-32.178s-14.412-32.178-32.178-32.178z" fill="#ffdecf" data-original="#ffdecf" style="" class=""/></g><g><path d="m341.626 101.285v71.32c0 39.86-32.31 72.16-72.16 72.16h-41.14c-4.307 0-8.61-.372-12.85-1.13-33.76-6.03-59.38-35.53-59.38-71.03v-71.32l86.81-22.657z" fill="#ffdecf" data-original="#ffdecf" style="" class=""/></g><g><path d="m156.881 116.053c-17.672.116-31.967 14.486-31.967 32.178 0 17.767 14.412 32.178 32.178 32.178z" fill="#ffdecf" data-original="#ffdecf" style="" class=""/></g><g><path d="m253.766 244.765h-25.44c-.64 0-1.29-.01-1.93-.02-1.14-.03-2.28-.09-3.41-.17-2.54-.18-5.05-.5-7.51-.94-33.76-6.03-59.38-35.53-59.38-71.03v-71.32h24.23v70.04c0 40.56 32.88 73.44 73.44 73.44z" fill="#ffcdbe" data-original="#ffcdbe" style="" class=""/></g><g><path d="m294.265 0h-92.017c-26.157 0-46.151 21.205-46.151 47.362v53.921h185.53v-53.921c0-26.157-21.205-47.362-47.362-47.362z" fill="#81d4fa" data-original="#a6e7f0" style="" class=""/></g><g><path d="m228.526 0c-26.613 0-48.198 21.575-48.198 48.198v53.083h-24.232v-53.083c0-26.623 20.375-48.198 46.987-48.198z" fill="#4fc3f7" data-original="#6bd9e7" style="" class=""/></g></g></g></svg>
