<?xml version="1.0"?>
<svg xmlns="http://www.w3.org/2000/svg" xmlns:xlink="http://www.w3.org/1999/xlink" xmlns:svgjs="http://svgjs.com/svgjs" version="1.1" width="512" height="512" x="0" y="0" viewBox="0 0 512 512" style="enable-background:new 0 0 512 512" xml:space="preserve" class=""><g><g xmlns="http://www.w3.org/2000/svg"><path clip-rule="evenodd" d="m136.149 391.725c74.751 0 135.726-60.974 135.726-135.725s-60.975-135.725-135.726-135.725c-74.749 0-135.725 60.974-135.725 135.725s60.976 135.725 135.725 135.725z" fill="#a7e0fb" fill-rule="evenodd" data-original="#bfe2ff" style="" class=""/><path clip-rule="evenodd" d="m136.149 120.275c74.949 0 135.726 60.776 135.726 135.725 0 74.978-60.776 135.725-135.726 135.725-4.224 0-8.392-.199-12.501-.566 69.11-6.322 123.225-64.405 123.225-135.158 0-70.726-54.114-128.836-123.225-135.129 4.11-.399 8.278-.597 12.501-.597z" fill="#63caf9" fill-rule="evenodd" data-original="#96d0ff" style="" class=""/><path d="m128.666 150.296c0-4.168 3.345-7.513 7.483-7.513s7.511 3.345 7.511 7.513v8.899c0 4.166-3.372 7.513-7.511 7.513s-7.483-3.347-7.483-7.513zm-38.892 200.976c-2.069 3.602-6.634 4.821-10.204 2.779-3.572-2.07-4.821-6.632-2.751-10.204l4.452-7.712c2.067-3.57 6.633-4.818 10.203-2.747 3.572 2.038 4.79 6.603 2.75 10.175zm101.254-175.38c-2.041 3.572-6.604 4.791-10.176 2.749-3.6-2.069-4.818-6.632-2.778-10.204l4.479-7.711c2.041-3.57 6.604-4.819 10.177-2.748 3.571 2.041 4.817 6.603 2.749 10.175zm-142.697 139.437c-3.572 2.098-8.135.852-10.205-2.721-2.068-3.57-.85-8.135 2.721-10.205l7.71-4.478c3.573-2.069 8.165-.851 10.233 2.75 2.071 3.572.852 8.134-2.721 10.205zm175.411-101.254c-3.572 2.069-8.137.851-10.235-2.723-2.067-3.57-.849-8.161 2.751-10.232l7.71-4.451c3.572-2.068 8.136-.85 10.233 2.723 2.07 3.57.852 8.164-2.75 10.233zm-193.326 49.437c-4.139 0-7.483-3.373-7.483-7.512s3.345-7.484 7.483-7.484h8.929c4.139 0 7.512 3.346 7.512 7.484s-3.373 7.512-7.512 7.512zm202.538 0c-4.139 0-7.511-3.373-7.511-7.512s3.372-7.484 7.511-7.484h8.929c4.139 0 7.484 3.346 7.484 7.484s-3.346 7.512-7.484 7.512zm-192.078-53.887c-3.572-2.069-4.818-6.634-2.75-10.206 2.041-3.57 6.605-4.818 10.176-2.75l7.74 4.451c3.57 2.071 4.79 6.633 2.748 10.205-2.068 3.573-6.633 4.792-10.203 2.75zm175.41 101.255c-3.599-2.041-4.817-6.605-2.779-10.176 2.071-3.603 6.636-4.821 10.206-2.779l7.711 4.478c3.6 2.041 4.818 6.605 2.777 10.178-2.068 3.57-6.634 4.818-10.206 2.748zm-139.467-142.67c-2.07-3.601-.85-8.164 2.722-10.233 3.572-2.071 8.164-.851 10.233 2.721l4.45 7.711c2.069 3.57.851 8.162-2.721 10.231s-8.165.851-10.232-2.72zm101.255 175.381c-2.069-3.57-.851-8.135 2.722-10.202 3.6-2.099 8.164-.853 10.232 2.72l4.451 7.709c2.068 3.573.85 8.164-2.721 10.234-3.571 2.069-8.137.851-10.205-2.723zm-49.408 9.214c0-4.139 3.345-7.513 7.483-7.513s7.511 3.374 7.511 7.513v8.929c0 4.139-3.372 7.483-7.511 7.483s-7.483-3.345-7.483-7.483z" fill="#22a6fe" data-original="#22a6fe" style="" class=""/><path d="m128.666 189.214c0-4.139 3.345-7.512 7.483-7.512s7.511 3.373 7.511 7.512v66.786c0 3.033-1.812 5.641-4.393 6.832l-46.346 26.759c-3.573 2.04-8.137.822-10.179-2.748-2.067-3.602-.821-8.165 2.751-10.206l43.172-24.918v-62.505z" fill="#365e7d" data-original="#365e7d" style="" class=""/><g clip-rule="evenodd" fill-rule="evenodd"><path d="m136.149 276.297c11.197 0 20.296-9.1 20.296-20.297 0-11.168-9.099-20.298-20.296-20.298-11.169 0-20.296 9.13-20.296 20.298.001 11.197 9.127 20.297 20.296 20.297z" fill="#22a6fe" data-original="#22a6fe" style="" class=""/><path d="m402.893 126.994-15.363-15.336c-3.4-3.77-3.742-7.541 0-11.312l15.363-15.335v-14.002c0-4.394 3.602-7.994 7.994-7.994h92.665c4.425 0 8.024 3.6 8.024 7.994v69.987c0 4.395-3.6 7.995-8.024 7.995h-92.665c-4.393 0-7.994-3.601-7.994-7.995zm7.994 86.003h92.665c4.425 0 8.024 3.6 8.024 7.994v70.017c0 4.395-3.6 7.995-8.024 7.995h-92.665c-4.393 0-7.994-3.6-7.994-7.995v-14.004l-15.363-15.334c-3.43-3.941-3.713-7.712 0-11.31l15.363-15.363v-14.005c0-4.395 3.601-7.995 7.994-7.995zm0 150.012h92.665c4.425 0 8.024 3.601 8.024 7.995v70.017c0 4.393-3.6 7.994-8.024 7.994h-92.665c-4.393 0-7.994-3.602-7.994-7.994v-14.005l-15.363-15.363c-3.487-3.855-3.517-7.625 0-11.311l15.363-15.336v-14.002c0-4.395 3.601-7.995 7.994-7.995z" fill="#b7c5cb" data-original="#f9f7f8" style="" class=""/><path d="m478.552 63.015h25c4.425 0 8.024 3.6 8.024 7.994v69.987c0 4.395-3.6 7.995-8.024 7.995h-25c4.422 0 8.021-3.601 8.021-7.995v-69.987c0-4.395-3.599-7.994-8.021-7.994zm0 149.982h25c4.425 0 8.024 3.6 8.024 7.994v70.017c0 4.395-3.6 7.995-8.024 7.995h-25c4.422 0 8.021-3.6 8.021-7.995v-70.017c0-4.394-3.599-7.994-8.021-7.994zm0 150.012h25c4.425 0 8.024 3.601 8.024 7.995v70.017c0 4.393-3.6 7.994-8.024 7.994h-25c4.422 0 8.021-3.602 8.021-7.994v-70.017c0-4.395-3.599-7.995-8.021-7.995z" fill="#7b96a3" data-original="#ebe8fa" style="" class=""/></g><path d="m319.384 7.512c0-4.139 3.346-7.512 7.482-7.512 4.169 0 7.514 3.373 7.514 7.512v497.006c0 4.139-3.345 7.482-7.514 7.482-4.137 0-7.482-3.344-7.482-7.482z" fill="#95d6a4" data-original="#95d6a4" style="" class=""/><path clip-rule="evenodd" d="m326.866 81.015c13.834 0 25.002 11.168 25.002 25.003 0 13.805-11.168 24.973-25.002 24.973-13.805 0-25-11.168-25-24.973 0-13.835 11.195-25.003 25-25.003zm0 299.995c13.834 0 25.002 11.197 25.002 25.002 0 13.806-11.168 25.003-25.002 25.003-13.805 0-25-11.197-25-25.003 0-13.805 11.195-25.002 25-25.002zm0-150.013c13.834 0 25.002 11.197 25.002 25.003s-11.168 25.002-25.002 25.002c-13.805 0-25-11.196-25-25.002s11.195-25.003 25-25.003z" fill="#f95e7f" fill-rule="evenodd" data-original="#f37c7c" style="" class=""/></g></g></svg>
