<svg xmlns="http://www.w3.org/2000/svg" xmlns:xlink="http://www.w3.org/1999/xlink" width="250"
    zoomAndPan="magnify" viewBox="0 0 187.5 187.499992" height="250"
    preserveAspectRatio="xMidYMid meet" version="1.0">
    <defs>
        <clipPath id="id1">
            <path d="M 0 0 L 187 0 L 187 187 L 0 187 Z M 0 0 " clip-rule="nonzero" />
        </clipPath>
        <clipPath id="id2">
            <path d="M 8 15 L 145 15 L 145 187 L 8 187 Z M 8 15 " clip-rule="nonzero" />
        </clipPath>
    </defs>
    <g clip-path="url(#id2)">
        <path fill="#55bee9"
            d="M 133.558594 15.625 L 19.136719 15.625 C 13.28125 15.625 8.59375 20.703125 8.59375 26.5625 L 8.59375 176.953125 C 8.59375 182.8125 13.28125 187.5 19.136719 187.5 L 133.558594 187.5 C 139.417969 187.5 144.101562 182.8125 144.101562 176.953125 L 144.101562 26.5625 C 144.101562 20.703125 139.417969 15.625 133.558594 15.625 Z M 133.558594 15.625 "
            fill-opacity="1" fill-rule="nonzero" />
    </g>
    <path fill="#e8eaed"
        d="M 26.558594 33.984375 L 126.140625 33.984375 L 126.140625 169.53125 L 26.558594 169.53125 Z M 26.558594 33.984375 "
        fill-opacity="1" fill-rule="nonzero" />
    <path fill="#415b6b"
        d="M 105.832031 12.890625 L 93.335938 12.890625 L 93.335938 2.734375 C 93.335938 1.171875 92.164062 0 90.601562 0 L 66.390625 0 C 64.828125 0 63.65625 1.171875 63.65625 2.734375 L 63.65625 12.5 L 50.769531 12.5 C 48.816406 12.5 47.253906 14.0625 47.253906 16.015625 L 47.253906 38.671875 L 109.347656 38.671875 L 109.347656 16.015625 C 109.347656 14.453125 107.785156 12.890625 105.832031 12.890625 Z M 105.832031 12.890625 "
        fill-opacity="1" fill-rule="nonzero" />
    <path fill="#cdd4df"
        d="M 33.976562 119.53125 L 74.199219 119.53125 L 74.199219 122.265625 L 33.976562 122.265625 Z M 33.976562 119.53125 "
        fill-opacity="1" fill-rule="nonzero" />
    <path fill="#cdd4df"
        d="M 33.976562 126.953125 L 74.199219 126.953125 L 74.199219 129.6875 L 33.976562 129.6875 Z M 33.976562 126.953125 "
        fill-opacity="1" fill-rule="nonzero" />
    <path fill="#cdd4df"
        d="M 33.976562 133.984375 L 74.199219 133.984375 L 74.199219 136.71875 L 33.976562 136.71875 Z M 33.976562 133.984375 "
        fill-opacity="1" fill-rule="nonzero" />
    <path fill="#cdd4df"
        d="M 33.976562 141.40625 L 74.199219 141.40625 L 74.199219 144.140625 L 33.976562 144.140625 Z M 33.976562 141.40625 "
        fill-opacity="1" fill-rule="nonzero" />
    <path fill="#cdd4df"
        d="M 33.976562 148.4375 L 55.066406 148.4375 L 55.066406 151.171875 L 33.976562 151.171875 Z M 33.976562 148.4375 "
        fill-opacity="1" fill-rule="nonzero" />
    <path fill="#cdd4df"
        d="M 78.886719 119.53125 L 119.109375 119.53125 L 119.109375 122.265625 L 78.886719 122.265625 Z M 78.886719 119.53125 "
        fill-opacity="1" fill-rule="nonzero" />
    <path fill="#cdd4df"
        d="M 78.886719 126.953125 L 119.109375 126.953125 L 119.109375 129.6875 L 78.886719 129.6875 Z M 78.886719 126.953125 "
        fill-opacity="1" fill-rule="nonzero" />
    <path fill="#cdd4df"
        d="M 78.886719 133.984375 L 119.109375 133.984375 L 119.109375 136.71875 L 78.886719 136.71875 Z M 78.886719 133.984375 "
        fill-opacity="1" fill-rule="nonzero" />
    <path fill="#cdd4df"
        d="M 78.886719 141.40625 L 119.109375 141.40625 L 119.109375 144.140625 L 78.886719 144.140625 Z M 78.886719 141.40625 "
        fill-opacity="1" fill-rule="nonzero" />
    <path fill="#cdd4df"
        d="M 78.886719 148.4375 L 99.976562 148.4375 L 99.976562 151.171875 L 78.886719 151.171875 Z M 78.886719 148.4375 "
        fill-opacity="1" fill-rule="nonzero" />
    <path fill="#f16f5a"
        d="M 69.125 73.046875 L 57.019531 73.046875 L 57.019531 60.546875 L 42.570312 60.546875 L 42.570312 73.046875 L 30.070312 73.046875 L 30.070312 87.5 L 42.570312 87.5 L 42.570312 100 L 57.019531 100 L 57.019531 87.5 L 69.125 87.5 Z M 69.125 73.046875 "
        fill-opacity="1" fill-rule="nonzero" />
    <path fill="#415b6b"
        d="M 69.90625 95.3125 C 69.515625 95.3125 69.125 94.921875 68.734375 94.53125 L 61.703125 73.046875 L 55.457031 82.03125 C 55.066406 82.421875 55.066406 82.421875 54.675781 82.421875 L 43.738281 82.421875 C 42.960938 82.421875 42.570312 82.03125 42.570312 81.25 C 42.570312 80.46875 42.960938 80.078125 43.738281 80.078125 L 53.894531 80.078125 L 60.921875 69.53125 C 61.3125 69.140625 61.703125 69.140625 62.09375 69.140625 C 62.484375 69.140625 62.875 69.53125 62.875 69.921875 L 69.515625 90.234375 L 72.636719 80.859375 C 72.636719 80.46875 73.417969 80.078125 73.808594 80.078125 L 82.402344 80.078125 L 86.308594 71.875 C 86.695312 71.484375 87.085938 71.09375 87.476562 71.09375 C 87.867188 71.09375 88.257812 71.484375 88.648438 71.875 L 92.945312 87.109375 L 94.117188 81.25 C 94.117188 80.859375 94.898438 80.46875 95.289062 80.46875 L 121.453125 80.46875 C 122.234375 80.46875 122.625 80.859375 122.625 81.640625 C 122.625 82.421875 122.234375 82.8125 121.453125 82.8125 L 96.460938 82.8125 L 94.507812 92.1875 C 94.507812 92.578125 94.117188 92.96875 93.335938 92.96875 C 92.945312 92.96875 92.164062 92.578125 92.164062 92.1875 L 87.476562 75.390625 L 84.355469 82.03125 C 83.964844 82.421875 83.574219 82.8125 83.183594 82.8125 L 74.589844 82.8125 L 70.6875 94.53125 C 70.6875 94.921875 70.296875 95.3125 69.90625 95.3125 Z M 69.90625 95.3125 "
        fill-opacity="1" fill-rule="nonzero" />
    <path fill="#415b6b"
        d="M 167.144531 182.03125 C 165.972656 182.03125 165.191406 181.25 165.191406 180.46875 L 165.191406 170.703125 C 165.191406 169.921875 165.972656 169.140625 167.144531 169.140625 C 168.316406 169.140625 169.097656 169.921875 169.097656 170.703125 L 169.097656 180.46875 C 169.097656 181.25 168.316406 182.03125 167.144531 182.03125 Z M 167.144531 182.03125 "
        fill-opacity="1" fill-rule="nonzero" />
    <path fill="#415b6b"
        d="M 175.734375 35.9375 L 159.332031 35.9375 C 158.550781 35.9375 158.160156 36.71875 158.160156 37.109375 L 158.160156 44.53125 C 158.160156 45.3125 158.941406 45.703125 159.332031 45.703125 L 175.734375 45.703125 C 176.515625 45.703125 176.90625 44.921875 176.90625 44.53125 L 176.90625 37.109375 C 176.90625 36.71875 176.515625 35.9375 175.734375 35.9375 Z M 175.734375 35.9375 "
        fill-opacity="1" fill-rule="nonzero" />
    <path fill="#e6594a"
        d="M 176.90625 42.1875 C 178.078125 42.1875 178.859375 42.96875 178.859375 44.140625 L 178.859375 164.0625 C 178.859375 165.625 178.46875 167.1875 177.296875 168.359375 L 170.269531 176.5625 C 170.269531 176.5625 169.878906 176.953125 169.488281 176.953125 L 165.582031 176.953125 C 165.191406 176.953125 165.191406 176.953125 164.800781 176.5625 L 157.773438 168.359375 C 156.601562 167.1875 156.210938 165.625 156.210938 164.0625 L 156.210938 44.140625 C 156.210938 42.96875 156.992188 42.1875 158.160156 42.1875 Z M 176.90625 42.1875 "
        fill-opacity="1" fill-rule="nonzero" />
    <path fill="#415b6b"
        d="M 168.316406 21.484375 L 166.363281 21.484375 C 163.628906 21.484375 161.285156 23.828125 161.285156 26.5625 L 161.285156 44.921875 L 173.390625 44.921875 L 173.390625 26.5625 C 173.390625 23.4375 171.050781 21.484375 168.316406 21.484375 Z M 168.316406 21.484375 "
        fill-opacity="1" fill-rule="nonzero" />
    <path fill="#f16f5a"
        d="M 176.125 42.1875 L 157.382812 42.1875 C 156.210938 42.1875 155.429688 42.96875 155.429688 44.140625 L 155.429688 164.0625 C 155.429688 165.625 155.820312 167.1875 156.992188 168.359375 L 164.019531 176.5625 C 164.019531 176.5625 164.410156 176.953125 164.800781 176.953125 L 168.707031 176.953125 C 169.097656 176.953125 169.097656 176.953125 169.488281 176.5625 L 176.515625 168.359375 C 177.6875 167.1875 178.078125 165.625 178.078125 164.0625 L 178.078125 44.140625 C 178.078125 42.96875 177.296875 42.1875 176.125 42.1875 Z M 176.125 42.1875 "
        fill-opacity="1" fill-rule="nonzero" />
    <path fill="#415b6b"
        d="M 161.285156 40.234375 L 161.285156 94.921875 C 161.285156 98.4375 164.019531 101.171875 167.535156 101.171875 C 171.050781 101.171875 173.78125 98.4375 173.78125 94.921875 L 173.78125 40.234375 Z M 161.285156 40.234375 "
        fill-opacity="1" fill-rule="nonzero" />
</svg>