<svg width="42" height="42" viewBox="0 0 42 42" fill="none" xmlns="http://www.w3.org/2000/svg">
<path d="M39.0834 41H2.91991C1.86111 41 1 40.1422 1 39.08V2.91993C1 1.86113 1.85776 1 2.91991 1H39.0834C40.1422 1 41.0033 1.85778 41.0033 2.91993V39.0834C41 40.1422 40.1422 41 39.0834 41Z" stroke="#130F3F" stroke-width="1.03987" stroke-miterlimit="10" stroke-linecap="round" stroke-linejoin="round"/>
<path d="M31.3973 1C31.3973 6.65924 26.8103 11.2463 21.1511 11.2463C15.4918 11.2463 10.9048 6.65924 10.9048 1" stroke="#130F3F" stroke-width="1.03987" stroke-miterlimit="10" stroke-linecap="round" stroke-linejoin="round"/>
<path d="M21.1509 8.90753V6.83681" stroke="#130F3F" stroke-width="1.03987" stroke-miterlimit="10" stroke-linecap="round" stroke-linejoin="round"/>
<path d="M25.1281 7.94255L24.0928 6.14994" stroke="#130F3F" stroke-width="1.03987" stroke-miterlimit="10" stroke-linecap="round" stroke-linejoin="round"/>
<path d="M28.0933 5.11795L26.2974 4.0826" stroke="#130F3F" stroke-width="1.03987" stroke-miterlimit="10" stroke-linecap="round" stroke-linejoin="round"/>
<path d="M14.3994 4.78958L16.192 3.75424" stroke="#130F3F" stroke-width="1.03987" stroke-miterlimit="10" stroke-linecap="round" stroke-linejoin="round"/>
<path d="M17.2241 7.75491L18.2595 5.95895" stroke="#130F3F" stroke-width="1.03987" stroke-miterlimit="10" stroke-linecap="round" stroke-linejoin="round"/>
<path d="M13.9668 26.3778C14.3488 24.9839 15.6656 24.0625 16.3659 22.7993C16.9355 21.7706 17.0327 20.5142 16.701 19.3883C16.3625 18.229 15.2133 17.4885 14.0104 17.6293C12.8879 17.7599 11.293 18.1486 9.49039 19.2175C5.92866 21.325 8.5656 25.4296 8.69962 28.8807C8.74988 30.231 8.46509 31.5746 8.5053 32.9249C8.68288 38.4267 14.4795 37.4181 14.771 34.1881C14.8313 33.5046 14.8246 32.4391 14.4426 31.1994C14.3957 31.0218 13.6016 27.708 13.9668 26.3778Z" stroke="#130F3F" stroke-width="1.03987" stroke-miterlimit="10" stroke-linecap="round" stroke-linejoin="round"/>
<path d="M18.2493 15.9573C18.2493 16.2153 18.0416 16.423 17.7836 16.423C17.5256 16.423 17.3179 16.2153 17.3179 15.9573C17.3179 15.6993 17.5256 15.4915 17.7836 15.4915C18.0416 15.4915 18.2493 15.6993 18.2493 15.9573Z" stroke="#130F3F" stroke-width="1.03987" stroke-miterlimit="10" stroke-linecap="round" stroke-linejoin="round"/>
<path d="M14.4764 15.2402C14.4764 15.4982 14.2687 15.706 14.0107 15.706C13.7527 15.706 13.5449 15.4982 13.5449 15.2402C13.5449 14.9822 13.7527 14.7745 14.0107 14.7745C14.2687 14.7778 14.4764 14.9856 14.4764 15.2402Z" stroke="#130F3F" stroke-width="1.03987" stroke-miterlimit="10" stroke-linecap="round" stroke-linejoin="round"/>
<path d="M11.0086 15.706C11.0086 15.964 10.8009 16.1717 10.5429 16.1717C10.2849 16.1717 10.0771 15.964 10.0771 15.706C10.0771 15.448 10.2849 15.2402 10.5429 15.2402C10.8009 15.2402 11.0086 15.4513 11.0086 15.706Z" stroke="#130F3F" stroke-width="1.03987" stroke-miterlimit="10" stroke-linecap="round" stroke-linejoin="round"/>
<path d="M8.10678 17.0328C8.10678 17.2908 7.89904 17.4986 7.64104 17.4986C7.38304 17.4986 7.17529 17.2908 7.17529 17.0328C7.17529 16.7748 7.38304 16.5671 7.64104 16.5671C7.89904 16.5704 8.10678 16.7782 8.10678 17.0328Z" stroke="#130F3F" stroke-width="1.03987" stroke-miterlimit="10" stroke-linecap="round" stroke-linejoin="round"/>
<path d="M6.28403 19.7435C6.28403 20.0015 6.07628 20.2092 5.81828 20.2092C5.56028 20.2092 5.35254 20.0015 5.35254 19.7435C5.35254 19.4855 5.56028 19.2778 5.81828 19.2778C6.07628 19.2811 6.28403 19.4889 6.28403 19.7435Z" stroke="#130F3F" stroke-width="1.03987" stroke-miterlimit="10" stroke-linecap="round" stroke-linejoin="round"/>
<path d="M28.033 26.3778C27.651 24.9839 26.3342 24.0625 25.6339 22.7993C25.0643 21.7706 24.9671 20.5142 25.2989 19.3883C25.6373 18.229 26.7865 17.4885 27.9894 17.6293C29.1119 17.7599 30.7068 18.1486 32.5094 19.2175C36.0712 21.325 33.4342 25.4296 33.3002 28.8807C33.2499 30.231 33.5347 31.5746 33.4945 32.9249C33.3169 38.4267 27.5203 37.4181 27.2288 34.1881C27.1685 33.5046 27.1752 32.4391 27.5572 31.1994C27.6041 31.0218 28.3982 27.708 28.033 26.3778Z" stroke="#130F3F" stroke-width="1.03987" stroke-miterlimit="10" stroke-linecap="round" stroke-linejoin="round"/>
<path d="M23.751 15.9573C23.751 16.2153 23.9587 16.423 24.2167 16.423C24.4747 16.423 24.6824 16.2153 24.6824 15.9573C24.6824 15.6993 24.4747 15.4915 24.2167 15.4915C23.9587 15.4915 23.751 15.6993 23.751 15.9573Z" stroke="#130F3F" stroke-width="1.03987" stroke-miterlimit="10" stroke-linecap="round" stroke-linejoin="round"/>
<path d="M27.5239 15.2402C27.5239 15.4982 27.7317 15.706 27.9897 15.706C28.2477 15.706 28.4554 15.4982 28.4554 15.2402C28.4554 14.9822 28.2477 14.7745 27.9897 14.7745C27.7317 14.7778 27.5239 14.9856 27.5239 15.2402Z" stroke="#130F3F" stroke-width="1.03987" stroke-miterlimit="10" stroke-linecap="round" stroke-linejoin="round"/>
<path d="M30.9917 15.706C30.9917 15.964 31.1994 16.1717 31.4574 16.1717C31.7154 16.1717 31.9232 15.964 31.9232 15.706C31.9232 15.448 31.7154 15.2402 31.4574 15.2402C31.1994 15.2402 30.9917 15.4513 30.9917 15.706Z" stroke="#130F3F" stroke-width="1.03987" stroke-miterlimit="10" stroke-linecap="round" stroke-linejoin="round"/>
<path d="M33.897 17.0328C33.897 17.2908 34.1047 17.4986 34.3627 17.4986C34.6207 17.4986 34.8285 17.2908 34.8285 17.0328C34.8285 16.7748 34.6207 16.5671 34.3627 16.5671C34.1047 16.5704 33.897 16.7782 33.897 17.0328Z" stroke="#130F3F" stroke-width="1.03987" stroke-miterlimit="10" stroke-linecap="round" stroke-linejoin="round"/>
<path d="M35.7192 19.7435C35.7192 20.0015 35.927 20.2092 36.185 20.2092C36.443 20.2092 36.6507 20.0015 36.6507 19.7435C36.6507 19.4855 36.443 19.2778 36.185 19.2778C35.927 19.2811 35.7192 19.4889 35.7192 19.7435Z" stroke="#130F3F" stroke-width="1.03987" stroke-miterlimit="10" stroke-linecap="round" stroke-linejoin="round"/>
<path d="M31.4806 20.943C29.936 20.0283 28.6024 19.7201 27.7547 19.6229C27.7346 19.6195 27.7145 19.6195 27.6944 19.6195C27.4766 19.6195 27.2789 19.7603 27.222 19.9512C27.0343 20.5946 27.0947 21.2949 27.3895 21.8243C27.5771 22.1627 27.8887 22.5312 28.2171 22.9233C28.646 23.4326 29.1453 24.0323 29.5306 24.7594C30.1102 24.88 30.6798 25.0476 31.1791 25.3558C31.3868 25.4865 31.5778 25.6406 31.7554 25.8048C31.7956 25.6339 31.8358 25.4664 31.8727 25.2989C32.5897 22.2933 32.5227 21.5596 31.4806 20.943Z" fill="#FCB017"/>
<path d="M10.5193 20.943C12.0639 20.0283 13.3975 19.7201 14.2452 19.6229C14.2653 19.6195 14.2854 19.6195 14.3055 19.6195C14.5233 19.6195 14.721 19.7603 14.778 19.9512C14.9656 20.5946 14.9053 21.2949 14.6104 21.8243C14.4228 22.1627 14.1112 22.5312 13.7828 22.9233C13.354 23.4326 12.8547 24.0323 12.4694 24.7594C11.8897 24.88 11.3201 25.0476 10.8209 25.3558C10.6131 25.4865 10.4221 25.6406 10.2446 25.8048C10.2044 25.6339 10.1641 25.4664 10.1273 25.2989C9.41024 22.2933 9.47724 21.5596 10.5193 20.943Z" fill="#FCB017"/>
</svg>
