<svg xmlns="http://www.w3.org/2000/svg" width="22" height="24" viewBox="0 0 22 24">
  <g id="Group_2683" data-name="Group 2683" transform="translate(-314 -516)">
    <path id="_Color_l_Container" data-name="🎨 Color l Container" d="M0,0H22a0,0,0,0,1,0,0V20a4,4,0,0,1-4,4H4a4,4,0,0,1-4-4V0A0,0,0,0,1,0,0Z" transform="translate(314 516)" fill="#92f1b7"/>
    <g id="_05be7897e68b3860f275fd589cf11348" data-name="05be7897e68b3860f275fd589cf11348" transform="translate(171.75 510)">
      <g id="Group_765" data-name="Group 765" transform="translate(147.25 10)">
        <path id="Path_66" data-name="Path 66" d="M151.2-500.959c-.021.024-.258.457-.529.965-.451.834-.5.92-.6.948-.647.172-2.014.57-2.039.591a8.1,8.1,0,0,0,.207,1.051c.129.563.236,1.044.236,1.068s-.272.436-.608.917-.608.889-.608.9.393.319.876.673.88.652.891.666.068.46.125.985.122,1.013.132,1.078l.018.117.4-.024.393-.024-1.191,2.266c-.655,1.246-1.184,2.276-1.173,2.283s.529-.161,1.155-.378,1.148-.385,1.155-.378.175.5.376,1.105.372,1.109.39,1.126.572-1.02,1.241-2.3l1.213-2.331,1.209,2.317c.662,1.273,1.213,2.324,1.22,2.331a.024.024,0,0,0,.032,0c.011-.007.182-.508.379-1.112s.372-1.105.386-1.119a11.9,11.9,0,0,1,1.162.368c.63.22,1.148.388,1.159.381s-.511-1.016-1.152-2.235-1.166-2.228-1.166-2.238a1.563,1.563,0,0,1,.336.007l.336.024.021-.134c.011-.072.079-.549.147-1.057s.132-.944.139-.961.418-.323.912-.669a6.379,6.379,0,0,0,.88-.68c-.007-.024-.283-.439-.6-.927l-.587-.882.265-1.047c.215-.848.254-1.054.215-1.078s-.511-.172-1.08-.343l-1.034-.312-.5-.954c-.275-.522-.511-.961-.526-.972s-.486.168-1.059.395l-1.034.415-1.027-.429c-.561-.237-1.03-.429-1.037-.429S151.213-500.979,151.2-500.959Zm2.414,2.537a3.211,3.211,0,0,1,2.775,2.228,3.452,3.452,0,0,1,.1,1.373,3.018,3.018,0,0,1-.858,1.655,3.181,3.181,0,0,1-2.507.978,3.217,3.217,0,0,1-2.414-1.167,2.957,2.957,0,0,1-.7-1.929,2.916,2.916,0,0,1,.951-2.235,3.19,3.19,0,0,1,1.939-.9A2.122,2.122,0,0,1,153.609-498.422Z" transform="translate(-147.25 501)" fill="#fff"/>
      </g>
    </g>
  </g>
</svg>
