<svg height="504pt" viewBox="0 0 504.30532 504" width="504pt" xmlns="http://www.w3.org/2000/svg"><path d="m50.351562 176.414062h243.410157c4.636719 0 8.394531-3.757812 8.394531-8.390624 0-4.636719-3.757812-8.394532-8.394531-8.394532h-243.410157c-4.636718 0-8.394531 3.757813-8.394531 8.394532 0 4.632812 3.757813 8.390624 8.394531 8.390624zm0 0"/><path d="m176.253906 67.300781h100.722656c4.632813 0 8.390626-3.757812 8.390626-8.394531s-3.757813-8.394531-8.390626-8.394531h-100.722656c-4.636718 0-8.394531 3.757812-8.394531 8.394531s3.757813 8.394531 8.394531 8.394531zm0 0"/><path d="m176.253906 100.875h100.722656c4.632813 0 8.390626-3.757812 8.390626-8.394531s-3.757813-8.394531-8.390626-8.394531h-100.722656c-4.636718 0-8.394531 3.757812-8.394531 8.394531s3.757813 8.394531 8.394531 8.394531zm0 0"/><path d="m176.253906 134.449219h100.722656c4.632813 0 8.390626-3.757813 8.390626-8.394531 0-4.636719-3.757813-8.394532-8.390626-8.394532h-100.722656c-4.636718 0-8.394531 3.757813-8.394531 8.394532 0 4.636718 3.757813 8.394531 8.394531 8.394531zm0 0"/><path d="m226.613281 361.070312h-176.261719c-4.636718 0-8.394531 3.757813-8.394531 8.394532v92.328125c0 4.632812 3.757813 8.390625 8.394531 8.390625 4.636719 0 8.394532-3.757813 8.394532-8.390625v-83.933594h167.867187c4.636719 0 8.394531-3.757813 8.394531-8.394531 0-4.636719-3.757812-8.394532-8.394531-8.394532zm0 0"/><path d="m58.746094 209.988281c0 4.636719-3.757813 8.394531-8.394532 8.394531-4.636718 0-8.394531-3.757812-8.394531-8.394531s3.757813-8.394531 8.394531-8.394531c4.636719 0 8.394532 3.757812 8.394532 8.394531zm0 0"/><path d="m235.007812 201.59375h-151.082031c-4.636719 0-8.394531 3.757812-8.394531 8.394531s3.757812 8.394531 8.394531 8.394531h151.082031c4.636719 0 8.394532-3.757812 8.394532-8.394531s-3.757813-8.394531-8.394532-8.394531zm0 0"/><path d="m58.746094 243.5625c0 4.636719-3.757813 8.394531-8.394532 8.394531-4.636718 0-8.394531-3.757812-8.394531-8.394531s3.757813-8.394531 8.394531-8.394531c4.636719 0 8.394532 3.757812 8.394532 8.394531zm0 0"/><path d="m235.007812 235.167969h-151.082031c-4.636719 0-8.394531 3.757812-8.394531 8.394531s3.757812 8.394531 8.394531 8.394531h151.082031c4.636719 0 8.394532-3.757812 8.394532-8.394531s-3.757813-8.394531-8.394532-8.394531zm0 0"/><path d="m58.746094 277.136719c0 4.636719-3.757813 8.394531-8.394532 8.394531-4.636718 0-8.394531-3.757812-8.394531-8.394531s3.757813-8.394531 8.394531-8.394531c4.636719 0 8.394532 3.757812 8.394532 8.394531zm0 0"/><path d="m235.007812 268.742188h-151.082031c-4.636719 0-8.394531 3.757812-8.394531 8.394531s3.757812 8.394531 8.394531 8.394531h151.082031c4.636719 0 8.394532-3.757812 8.394532-8.394531s-3.757813-8.394531-8.394532-8.394531zm0 0"/><path d="m58.746094 310.710938c0 4.632812-3.757813 8.390624-8.394532 8.390624-4.636718 0-8.394531-3.757812-8.394531-8.390624 0-4.636719 3.757813-8.394532 8.394531-8.394532 4.636719 0 8.394532 3.757813 8.394532 8.394532zm0 0"/><path d="m235.007812 302.316406h-151.082031c-4.636719 0-8.394531 3.757813-8.394531 8.394532 0 4.632812 3.757812 8.390624 8.394531 8.390624h151.082031c4.636719 0 8.394532-3.757812 8.394532-8.390624 0-4.636719-3.757813-8.394532-8.394532-8.394532zm0 0"/><path d="m167.859375 419.824219h-16.785156v-16.785157c0-4.636718-3.757813-8.394531-8.394531-8.394531-4.636719 0-8.394532 3.757813-8.394532 8.394531v16.785157h-16.785156c-4.636719 0-8.394531 3.757812-8.394531 8.394531s3.757812 8.394531 8.394531 8.394531h16.785156v16.785157c0 4.636718 3.757813 8.394531 8.394532 8.394531 4.636718 0 8.394531-3.757813 8.394531-8.394531v-16.785157h16.785156c4.636719 0 8.394531-3.757812 8.394531-8.394531s-3.757812-8.394531-8.394531-8.394531zm0 0"/><path d="m386.089844 268.742188c-14.355469.023437-28.582032 2.695312-41.96875 7.882812v-251.292969c0-13.90625-11.273438-25.179687-25.179688-25.179687h-226.621094c-.183593 0-.335937.09375-.511718.101562-.761719.050782-1.511719.203125-2.234375.453125-.265625.082031-.523438.175781-.78125.285157-.867188.394531-1.660157.933593-2.347657 1.59375l-83.9375 83.933593v.042969c-.691406.695312-1.261718 1.503906-1.675781 2.394531-.105469.257813-.199219.519531-.277343.789063-.25.714844-.40625 1.464844-.453126 2.222656 0 .183594-.101562.335938-.101562.511719v386.097656c.152344 14.035156 11.632812 25.296875 25.667969 25.179687h343.636719c1.210937-.019531 2.402343-.304687 3.488281-.839843 43.433593 5.214843 86.164062-14.128907 110.90625-50.199219 24.742187-36.074219 27.402343-82.902344 6.902343-121.542969-20.503906-38.640625-60.769531-62.695312-104.511718-62.433593zm-302.164063-239.933594v46.886718c0 4.632813-3.757812 8.390626-8.394531 8.390626h-46.882812zm-58.265625 458.164062c-4.765625.121094-8.734375-3.628906-8.882812-8.394531v-377.703125h58.753906c13.90625 0 25.183594-11.273438 25.183594-25.179688v-58.753906h218.226562c4.636719 0 8.394532 3.757813 8.394532 8.390625v259.308594c-36.085938 20.765625-58.449219 59.113281-58.746094 100.746094-.300782 41.632812 21.503906 80.300781 57.285156 101.585937zm360.429688 0c-55.625 0-100.722656-45.09375-100.722656-100.722656 0-55.625 45.097656-100.71875 100.722656-100.71875 55.628906 0 100.722656 45.09375 100.722656 100.71875-.0625 55.601562-45.121094 100.664062-100.722656 100.722656zm0 0"/><path d="m429.996094 330.519531-78.058594 93.660157-18.683594-18.683594c-3.292968-3.179688-8.527344-3.132813-11.765625.101562-3.238281 3.238282-3.285156 8.472656-.101562 11.769532l25.179687 25.179687c1.578125 1.578125 3.71875 2.460937 5.949219 2.457031h.378906c2.359375-.105468 4.566407-1.199218 6.078125-3.011718l83.933594-100.722657c2.964844-3.5625 2.480469-8.859375-1.082031-11.824219-3.566407-2.96875-8.863281-2.484374-11.828125 1.082032zm0 0"/></svg>