<svg id="Capa_1" enable-background="new 0 0 512 512" height="512" viewBox="0 0 512 512" width="512" xmlns="http://www.w3.org/2000/svg"><g><path d="m504.5 368.01c4.143 0 7.5-3.358 7.5-7.5v-30.41c0-33.347-26.337-60.654-59.302-62.224 15.716-12.541 25.814-31.838 25.814-53.461 0-37.709-30.678-68.387-68.387-68.387-20.365 0-38.668 8.958-51.207 23.129-.235-.431-.482-.857-.739-1.277v-25.302c0-39.123-22.107-73.173-54.481-90.334.129-1.438.209-2.884.209-4.336-.001-26.417-21.491-47.908-47.907-47.908s-47.907 21.491-47.907 47.907c0 1.455.08 2.904.209 4.345-32.365 17.163-54.465 51.209-54.465 90.325v25.303c-.26.424-.508.854-.745 1.289-12.539-14.178-30.846-23.141-51.217-23.141-37.709 0-68.387 30.678-68.387 68.387 0 21.623 10.099 40.92 25.814 53.461-32.965 1.57-59.302 28.877-59.302 62.224v73.47c0 4.142 3.358 7.5 7.5 7.5s7.5-3.358 7.5-7.5v-73.47c0-26.082 21.219-47.3 47.3-47.3h39.498c.026 0 .051.002.077.002s.051-.002.077-.002h39.498c11.936 0 23.187 4.455 31.785 12.275l-10.271 1.775c-33.447 5.774-57.846 34.609-58.014 68.601v131.549h-47.346v-119.491c0-1.989-.79-3.897-2.197-5.303l-6.243-6.243c-2.929-2.929-7.678-2.929-10.606 0-2.929 2.929-2.929 7.678 0 10.606l4.046 4.046v116.385h-27.604v-58.43c0-4.142-3.358-7.5-7.5-7.5s-7.5 3.358-7.5 7.5v65.93c0 4.142 3.358 7.5 7.5 7.5h497c4.143 0 7.5-3.358 7.5-7.5v-108.99c0-4.142-3.357-7.5-7.5-7.5s-7.5 3.358-7.5 7.5v101.49h-27.604v-116.384l4.046-4.046c2.93-2.929 2.93-7.678.001-10.607-2.93-2.928-7.679-2.929-10.606 0l-6.243 6.243c-1.407 1.407-2.197 3.314-2.197 5.304v119.49h-47.337v-47.32c0-4.142-3.357-7.5-7.5-7.5s-7.5 3.358-7.5 7.5v47.32h-39.611v-31.896c0-4.142-3.357-7.5-7.5-7.5s-7.5 3.358-7.5 7.5v31.896h-162.88v-31.896c0-4.142-3.358-7.5-7.5-7.5s-7.5 3.358-7.5 7.5v31.896h-39.619v-131.513c.132-26.671 19.295-49.321 45.567-53.856l9.131-1.578v40.511c-21.185 3.581-37.376 22.049-37.376 44.237v23.234c0 11.93 9.702 21.636 21.631 21.642 1.016 2.938 3.799 5.051 7.083 5.051 4.142 0 7.5-3.358 7.5-7.5v-10.102c0-4.142-3.358-7.5-7.5-7.5-3.283 0-6.066 2.113-7.082 5.05-3.657-.006-6.631-2.983-6.631-6.642v-23.234c0-16.474 13.402-29.876 29.876-29.876s29.876 13.402 29.876 29.876v23.234c0 3.659-2.974 6.635-6.631 6.642-1.016-2.937-3.799-5.05-7.082-5.05-4.142 0-7.5 3.358-7.5 7.5v10.102c0 4.142 3.358 7.5 7.5 7.5 3.283 0 6.067-2.113 7.083-5.051 11.928-.006 21.631-9.712 21.631-21.642v-23.234c0-22.188-16.191-40.656-37.376-44.237v-43.103l4.338-.75 57.477 43.803c1.342 1.023 2.944 1.535 4.546 1.535s3.204-.512 4.546-1.535l57.475-43.802 4.322.747v91.169c-9.381 3.145-16.162 12.011-16.162 22.437 0 13.047 10.615 23.663 23.662 23.663 13.048 0 23.663-10.615 23.663-23.663 0-10.426-6.781-19.293-16.163-22.437v-88.577l9.142 1.58c26.271 4.536 45.435 27.186 45.566 53.819v49.23c0 4.142 3.357 7.5 7.5 7.5s7.5-3.358 7.5-7.5v-49.267c-.168-33.954-24.566-62.789-58.013-68.563l-10.28-1.776c8.598-7.82 19.848-12.273 31.783-12.273h39.498c.026 0 .051.002.077.002s.051-.002.077-.002h39.496c26.081 0 47.3 21.219 47.3 47.3v30.41c0 4.141 3.357 7.499 7.5 7.499zm-174.648 61.718c-4.776 0-8.662-3.886-8.662-8.663s3.886-8.663 8.662-8.663 8.663 3.886 8.663 8.663-3.887 8.663-8.663 8.663zm80.273-268.701c29.438 0 53.387 23.949 53.387 53.387 0 29.412-23.908 53.343-53.31 53.385h-.154c-29.403-.042-53.311-23.973-53.311-53.385 0-29.437 23.95-53.387 53.388-53.387zm-66.832 11.983c2.864 2.944 4.38 6.833 4.267 10.95-.213 7.788-6.696 14.176-14.642 14.633v-30.145c3.942.112 7.611 1.721 10.375 4.562zm-87.293-158.01c17.442 0 31.75 13.642 32.833 30.816-10.307-3.506-21.347-5.409-32.825-5.409-11.484 0-22.53 1.906-32.842 5.415 1.08-17.177 15.39-30.822 32.834-30.822zm.008 40.407c48.066 0 87.17 39.104 87.17 87.17v12.819c-3.37-1.28-6.98-1.954-10.702-1.954h-2.378c-6.717 0-12.181 5.465-12.181 12.182v9.731c-29.484-5.026-55.774-37.376-56.055-37.725-1.422-1.779-3.576-2.813-5.854-2.815-.002 0-.004 0-.006 0-2.275 0-4.429 1.035-5.853 2.81-.284.354-26.569 32.699-56.051 37.729v-9.73c0-6.717-5.465-12.182-12.182-12.182h-2.377c-3.723 0-7.332.674-10.702 1.954v-12.819c.001-48.066 39.105-87.17 87.171-87.17zm66.344 235.23c-.378.463-.751.932-1.117 1.407l-22.622-3.909.005-13.523h11.031c7.005 0 12.703 5.699 12.703 12.703zm-31.579-35.37c-9.329 9.185-21.675 14.243-34.765 14.243s-25.437-5.058-34.765-14.243l-11.168-10.996c-10.153-9.997-15.976-23.902-15.976-38.151v-15.598c27.415-3.568 51.266-25.558 61.906-36.876 10.641 11.319 34.495 33.312 61.913 36.877v15.577c0 .007-.001.013-.001.019 0 14.249-5.823 28.155-15.976 38.151zm-100.007 36.779c-.367-.476-.74-.945-1.118-1.409v-3.322c0-7.004 5.699-12.703 12.704-12.703h11.048v13.523zm-26.309-108.087c-.113-4.117 1.402-8.006 4.267-10.95 2.763-2.84 6.433-4.45 10.375-4.562v30.145c-7.945-.456-14.428-6.845-14.642-14.633zm-115.969 30.456c0-29.438 23.949-53.387 53.387-53.387s53.387 23.949 53.387 53.387c0 29.412-23.908 53.343-53.31 53.385h-.154c-29.403-.042-53.31-23.973-53.31-53.385zm121.774 0c0-.812-.033-1.617-.061-2.422 2.945 1 6.081 1.564 9.33 1.615 1.737 15.553 8.811 30.315 20.021 41.352l4.726 4.653h-1.925c-12.133 0-22.462 7.844-26.202 18.724-9.296-6.241-20.212-9.912-31.705-10.458 15.716-12.541 25.816-31.84 25.816-53.464zm85.746 120.705-41.849-31.893 8.018-1.385c3.596-.622 6.223-3.741 6.223-7.391v-16.118c8.527 4.04 17.909 6.177 27.608 6.177s19.081-2.138 27.608-6.177l-.006 16.116c-.001 3.65 2.626 6.771 6.223 7.393l8.024 1.386zm79.842-56.784c-3.739-10.881-14.068-18.725-26.201-18.725h-1.909l4.726-4.653c11.21-11.037 18.283-25.799 20.021-41.352 3.243-.051 6.374-.613 9.313-1.609-.028.804-.061 1.606-.061 2.416 0 21.625 10.1 40.923 25.818 53.464-11.495.548-22.411 4.218-31.707 10.459z"/></g></svg>